<svg width="1221" height="17" viewBox="0 0 1221 17" fill="none" xmlns="http://www.w3.org/2000/svg">
<path d="M8.45018 13.7021L11.5642 4.23408V13.7021H14.0842V0.778078H10.4662L7.49618 9.97608L4.50818 0.778078H0.836182V13.7021H3.32018V4.23408L6.43418 13.7021H8.45018Z" fill="white"/>
<path d="M19.3641 13.8641C20.6061 13.8641 21.5601 13.4861 22.1721 12.8201C22.5861 13.6121 23.5581 13.9361 25.1601 13.7021V11.8121C24.6021 11.8841 24.3861 11.7221 24.3861 11.2181V7.34808C24.3861 5.15208 22.9461 4.05408 20.5521 4.05408C18.3021 4.05408 16.8621 5.35008 16.4301 6.95208L18.8241 7.40208C19.0401 6.55608 19.5261 6.14208 20.4621 6.14208C21.5061 6.14208 21.9201 6.64608 21.9201 7.45608V7.60008L19.5621 8.05008C17.6541 8.39208 16.1421 9.18408 16.1421 11.0741C16.1421 12.7481 17.5101 13.8641 19.3641 13.8641ZM21.9201 10.3361C21.9201 11.3981 20.9301 11.9561 19.8681 11.9561C19.1121 11.9561 18.6261 11.5781 18.6261 10.9301C18.6261 10.1741 19.2381 9.90408 20.0661 9.74208L21.9201 9.36408V10.3361Z" fill="white"/>
<path d="M31.4654 14.2421L35.2094 4.23408H32.6714L30.5834 10.4621L28.4414 4.23408H25.8314L29.2334 13.3241L28.9274 14.0801C28.6574 14.7641 28.2974 14.9441 27.6314 14.9441C27.3434 14.9441 27.1814 14.9261 26.9114 14.9081V16.9421C27.2354 16.9781 27.4154 16.9961 27.9014 16.9961C29.9894 16.9961 30.8534 15.9161 31.4654 14.2421Z" fill="white"/>
<path d="M43.302 3.40608H42.06V3.22608C42.06 2.54208 42.438 2.18208 43.302 2.11008V0.778078C41.538 0.796079 40.35 1.75008 40.35 3.37008V6.19608H43.302V3.40608Z" fill="white"/>
<path d="M45.0267 11.6681V13.7021H54.2427V11.4161H48.7527L50.8587 9.72408C52.5867 8.35608 54.1347 6.86208 54.1347 4.72008C54.1347 2.27208 52.3527 0.580078 49.5807 0.580078C47.0787 0.580078 44.9907 2.30808 44.9907 4.81008C44.9907 5.29608 45.0447 5.67408 45.2067 6.17808H47.7087C47.5647 5.80008 47.4927 5.38608 47.4927 4.97208C47.4927 3.80208 48.2847 2.83008 49.5267 2.83008C50.7687 2.83008 51.5067 3.71208 51.5067 4.90008C51.5067 6.35808 50.1027 7.49208 48.3747 8.91408L45.0267 11.6681Z" fill="white"/>
<path d="M55.7072 7.24008C55.7072 11.1821 57.5972 13.9001 60.9092 13.9001C64.2032 13.9001 66.0932 11.1821 66.0932 7.24008C66.0932 3.29808 64.2032 0.580078 60.9092 0.580078C57.5972 0.580078 55.7072 3.29808 55.7072 7.24008ZM58.3712 7.24008C58.3712 4.66608 59.1272 2.84808 60.9092 2.84808C62.6732 2.84808 63.4292 4.66608 63.4292 7.24008C63.4292 9.81408 62.6732 11.6321 60.9092 11.6321C59.1272 11.6321 58.3712 9.81408 58.3712 7.24008Z" fill="white"/>
<path d="M222.602 13.6843C223.16 13.7743 223.682 13.8103 224.294 13.8103C226.976 13.8103 228.578 12.6043 228.578 9.95832V0.77832H225.932V9.65232C225.932 11.0203 225.302 11.4883 223.97 11.4883C223.448 11.4883 223.16 11.4523 222.602 11.3623V13.6843Z" fill="white"/>
<path d="M239.346 4.23432H236.826V9.79632C236.826 11.0203 235.962 11.6683 235.08 11.6683C234.036 11.6683 233.568 10.9843 233.568 9.94032V4.23432H231.048V10.4983C231.048 12.5503 232.308 13.9003 234.27 13.9003C235.476 13.9003 236.304 13.3423 236.826 12.7303V13.7023H239.346V4.23432Z" fill="white"/>
<path d="M244.498 0.77832H241.978V13.7023H244.498V0.77832Z" fill="white"/>
<path d="M402.317 11.3441C403.361 12.9101 405.629 13.9001 407.807 13.9001C410.561 13.9001 412.865 12.3341 412.865 9.72408C412.865 6.89808 410.345 6.37608 408.293 5.92608C406.601 5.54808 405.665 5.35008 405.665 4.34208C405.665 3.40608 406.529 2.79408 407.789 2.79408C409.229 2.79408 410.237 3.51408 410.993 4.57608L412.739 2.86608C411.839 1.57008 410.093 0.580078 407.861 0.580078C405.179 0.580078 403.055 2.12808 403.055 4.59408C403.055 7.15008 405.143 7.76208 407.069 8.21208C409.013 8.64408 410.237 8.80608 410.237 9.99408C410.237 11.0921 409.247 11.6861 407.897 11.6861C406.475 11.6861 405.089 10.9301 404.135 9.58008L402.317 11.3441Z" fill="white"/>
<path d="M419.101 13.9001C420.991 13.9001 422.593 12.9281 423.277 11.2001L421.153 10.4441C420.865 11.3621 420.091 11.8301 419.119 11.8301C417.877 11.8301 416.995 10.9661 416.815 9.52608H423.331V8.78808C423.331 6.14208 421.819 4.05408 419.011 4.05408C416.329 4.05408 414.403 6.17808 414.403 8.96808C414.403 11.9021 416.311 13.9001 419.101 13.9001ZM418.993 6.07008C420.217 6.07008 420.811 6.88008 420.829 7.81608H416.905C417.211 6.66408 417.985 6.07008 418.993 6.07008Z" fill="white"/>
<path d="M430.528 13.9001C433.138 13.9001 434.65 11.6681 434.65 8.96808C434.65 6.28608 433.138 4.05408 430.528 4.05408C429.34 4.05408 428.44 4.52208 427.882 5.20608V4.23408H425.362V16.9061H427.882V12.7301C428.44 13.4321 429.34 13.9001 430.528 13.9001ZM427.828 8.71608C427.828 7.09608 428.728 6.21408 429.934 6.21408C431.356 6.21408 432.112 7.34808 432.112 8.96808C432.112 10.6061 431.356 11.7401 429.934 11.7401C428.728 11.7401 427.828 10.8401 427.828 9.23808V8.71608Z" fill="white"/>
<path d="M604.064 0.77832H601.526V9.25632L595.856 0.77832H593.174V13.7023H595.712V4.79232L601.76 13.7023H604.064V0.77832Z" fill="white"/>
<path d="M615.52 8.96832C615.52 6.03432 613.612 4.05432 610.876 4.05432C608.14 4.05432 606.232 6.03432 606.232 8.96832C606.232 11.9203 608.14 13.9003 610.876 13.9003C613.612 13.9003 615.52 11.9203 615.52 8.96832ZM608.734 8.96832C608.734 7.18632 609.562 6.14232 610.876 6.14232C612.19 6.14232 613 7.18632 613 8.96832C613 10.7683 612.19 11.8123 610.876 11.8123C609.562 11.8123 608.734 10.7683 608.734 8.96832Z" fill="white"/>
<path d="M622.246 13.7023L625.666 4.23432H623.128L621.022 10.6423L618.898 4.23432H616.288L619.726 13.7023H622.246Z" fill="white"/>
<path d="M783.03 13.6841C783.588 13.7741 784.11 13.8101 784.722 13.8101C787.404 13.8101 789.006 12.6041 789.006 9.95808V0.778078H786.36V9.65208C786.36 11.0201 785.73 11.4881 784.398 11.4881C783.876 11.4881 783.588 11.4521 783.03 11.3621V13.6841Z" fill="white"/>
<path d="M794.122 13.8641C795.364 13.8641 796.318 13.4861 796.93 12.8201C797.344 13.6121 798.316 13.9361 799.918 13.7021V11.8121C799.36 11.8841 799.144 11.7221 799.144 11.2181V7.34808C799.144 5.15208 797.704 4.05408 795.31 4.05408C793.06 4.05408 791.62 5.35008 791.188 6.95208L793.582 7.40208C793.798 6.55608 794.284 6.14208 795.22 6.14208C796.264 6.14208 796.678 6.64608 796.678 7.45608V7.60008L794.32 8.05008C792.412 8.39208 790.9 9.18408 790.9 11.0741C790.9 12.7481 792.268 13.8641 794.122 13.8641ZM796.678 10.3361C796.678 11.3981 795.688 11.9561 794.626 11.9561C793.87 11.9561 793.384 11.5781 793.384 10.9301C793.384 10.1741 793.996 9.90408 794.824 9.74208L796.678 9.36408V10.3361Z" fill="white"/>
<path d="M801.879 13.7021H804.399V8.23008C804.399 6.98808 805.263 6.35808 806.145 6.35808C807.225 6.35808 807.657 7.11408 807.657 8.17608V13.7021H810.177V7.45608C810.177 5.40408 808.971 4.05408 806.991 4.05408C805.785 4.05408 804.921 4.59408 804.399 5.20608V4.23408H801.879V13.7021Z" fill="white"/>
<path d="M819.22 3.40608H817.978V3.22608C817.978 2.54208 818.356 2.18208 819.22 2.11008V0.778078C817.456 0.796079 816.268 1.75008 816.268 3.37008V6.19608H819.22V3.40608Z" fill="white"/>
<path d="M820.945 11.6681V13.7021H830.161V11.4161H824.671L826.777 9.72408C828.505 8.35608 830.053 6.86208 830.053 4.72008C830.053 2.27208 828.271 0.580078 825.499 0.580078C822.997 0.580078 820.909 2.30808 820.909 4.81008C820.909 5.29608 820.963 5.67408 821.125 6.17808H823.627C823.483 5.80008 823.411 5.38608 823.411 4.97208C823.411 3.80208 824.203 2.83008 825.445 2.83008C826.687 2.83008 827.425 3.71208 827.425 4.90008C827.425 6.35808 826.021 7.49208 824.293 8.91408L820.945 11.6681Z" fill="white"/>
<path d="M835.204 0.706078C835.06 2.20008 834.358 2.77608 832.702 2.90208L831.532 3.01008V4.99008H834.574V13.7021H837.238V0.706078H835.204Z" fill="white"/>
<path d="M1002.89 13.7023L1006 4.23432V13.7023H1008.52V0.77832H1004.9L1001.93 9.97632L998.944 0.77832H995.272V13.7023H997.756V4.23432L1000.87 13.7023H1002.89Z" fill="white"/>
<path d="M1013.8 13.8643C1015.04 13.8643 1016 13.4863 1016.61 12.8203C1017.02 13.6123 1017.99 13.9363 1019.6 13.7023V11.8123C1019.04 11.8843 1018.82 11.7223 1018.82 11.2183V7.34832C1018.82 5.15232 1017.38 4.05432 1014.99 4.05432C1012.74 4.05432 1011.3 5.35032 1010.87 6.95232L1013.26 7.40232C1013.48 6.55632 1013.96 6.14232 1014.9 6.14232C1015.94 6.14232 1016.36 6.64632 1016.36 7.45632V7.60032L1014 8.05032C1012.09 8.39232 1010.58 9.18432 1010.58 11.0743C1010.58 12.7483 1011.95 13.8643 1013.8 13.8643ZM1016.36 10.3363C1016.36 11.3983 1015.37 11.9563 1014.3 11.9563C1013.55 11.9563 1013.06 11.5783 1013.06 10.9303C1013.06 10.1743 1013.67 9.90432 1014.5 9.74232L1016.36 9.36432V10.3363Z" fill="white"/>
<path d="M1027.21 4.21632C1027.03 4.19832 1026.85 4.18032 1026.6 4.18032C1025.43 4.18032 1024.49 4.73832 1024.08 5.56632V4.23432H1021.56V13.7023H1024.08V8.89632C1024.08 7.43832 1025.08 6.62832 1026.4 6.62832C1026.7 6.62832 1026.92 6.64632 1027.21 6.68232V4.21632Z" fill="white"/>
<path d="M1193.48 13.7023L1196.59 4.23432V13.7023H1199.11V0.77832H1195.49L1192.52 9.97632L1189.54 0.77832H1185.86V13.7023H1188.35V4.23432L1191.46 13.7023H1193.48Z" fill="white"/>
<path d="M1204.39 13.8643C1205.63 13.8643 1206.59 13.4863 1207.2 12.8203C1207.61 13.6123 1208.59 13.9363 1210.19 13.7023V11.8123C1209.63 11.8843 1209.41 11.7223 1209.41 11.2183V7.34832C1209.41 5.15232 1207.97 4.05432 1205.58 4.05432C1203.33 4.05432 1201.89 5.35032 1201.46 6.95232L1203.85 7.40232C1204.07 6.55632 1204.55 6.14232 1205.49 6.14232C1206.53 6.14232 1206.95 6.64632 1206.95 7.45632V7.60032L1204.59 8.05032C1202.68 8.39232 1201.17 9.18432 1201.17 11.0743C1201.17 12.7483 1202.54 13.8643 1204.39 13.8643ZM1206.95 10.3363C1206.95 11.3983 1205.96 11.9563 1204.9 11.9563C1204.14 11.9563 1203.65 11.5783 1203.65 10.9303C1203.65 10.1743 1204.27 9.90432 1205.09 9.74232L1206.95 9.36432V10.3363Z" fill="white"/>
<path d="M1216.49 14.2423L1220.24 4.23432H1217.7L1215.61 10.4623L1213.47 4.23432H1210.86L1214.26 13.3243L1213.96 14.0803C1213.69 14.7643 1213.33 14.9443 1212.66 14.9443C1212.37 14.9443 1212.21 14.9263 1211.94 14.9083V16.9423C1212.26 16.9783 1212.44 16.9963 1212.93 16.9963C1215.02 16.9963 1215.88 15.9163 1216.49 14.2423Z" fill="white"/>
</svg>
