<?xml version="1.0" encoding="utf-8"?>
<!-- Generator: Adobe Illustrator 25.4.1, SVG Export Plug-In . SVG Version: 6.00 Build 0)  -->
<svg version="1.1" id="Layer_1" xmlns="http://www.w3.org/2000/svg" xmlns:xlink="http://www.w3.org/1999/xlink" x="0px" y="0px"
	 viewBox="0 0 1095 403" style="enable-background:new 0 0 1095 403;" xml:space="preserve">
<style type="text/css">
	.st0{fill:#00AB69;}
	.st1{fill:#FFFFFF;}
	.st2{opacity:0.15;}
	.st3{fill:#B01FED;}
	.st4{fill:#7DD6AD;}
	.st5{fill:#00543B;}
	.st6{fill:#EBBFFA;}
	.st7{opacity:0.2;}
	.st8{opacity:0.05;fill:#8000BF;}
	.st9{opacity:0.15;fill:#B01FED;}
</style>
<g>
	<g>
		<path d="M72.57,82.95l2.43,9.2l2.45-9.2h1.52l-3.15,11.49h-1.5l-2.45-8.95l-2.43,8.95h-1.5l-3.17-11.49h1.58l2.45,9.2l2.42-9.2
			H72.57z"/>
		<path d="M83.75,94.62c-2.29,0-3.89-1.76-3.89-4.35s1.6-4.35,3.89-4.35s3.89,1.76,3.89,4.35S86.04,94.62,83.75,94.62z M83.75,93.39
			c1.47,0,2.43-1.22,2.43-3.12c0-1.92-0.96-3.14-2.43-3.14s-2.43,1.22-2.43,3.14C81.32,92.17,82.28,93.39,83.75,93.39z"/>
		<path d="M90.9,94.45h-1.44v-8.37h1.44v1.14c0.45-0.69,1.25-1.3,2.42-1.3c1.12,0,1.91,0.56,2.32,1.42
			c0.46-0.69,1.36-1.42,2.67-1.42c1.73,0,2.77,1.23,2.77,3.01v5.52h-1.44v-5.14c0-1.17-0.48-2.05-1.67-2.05
			c-0.96,0-1.98,0.82-1.98,2.18v5.01h-1.44v-5.14c0-1.17-0.48-2.05-1.67-2.05c-0.96,0-1.99,0.82-1.99,2.18V94.45z"/>
		<path d="M102.82,90.27c0-2.5,1.58-4.35,3.86-4.35c2.34,0,3.57,1.78,3.57,4.1v0.48h-6.05c0.08,1.76,1.09,2.88,2.54,2.88
			c1.12,0,1.92-0.61,2.18-1.6l1.26,0.45c-0.51,1.49-1.78,2.4-3.44,2.4C104.42,94.62,102.82,92.85,102.82,90.27z M104.28,89.39h4.51
			c-0.03-1.18-0.67-2.24-2.13-2.24C105.45,87.15,104.54,87.96,104.28,89.39z"/>
		<path d="M112.04,86.07h1.44v1.14c0.48-0.69,1.31-1.3,2.5-1.3c1.78,0,2.79,1.23,2.79,3.01v5.52h-1.44v-5.14
			c0-1.17-0.5-2.05-1.74-2.05c-1.04,0-2.1,0.8-2.1,2.19v4.99h-1.44V86.07z"/>
		<path d="M9.26,138.07l2.43,9.2l2.45-9.2h1.52l-3.15,11.49H11l-2.45-8.95l-2.43,8.95h-1.5l-3.17-11.49h1.58l2.45,9.2l2.42-9.2H9.26
			z"/>
		<path d="M20.44,149.74c-2.29,0-3.89-1.76-3.89-4.35c0-2.59,1.6-4.35,3.89-4.35s3.89,1.76,3.89,4.35
			C24.33,147.98,22.73,149.74,20.44,149.74z M20.44,148.51c1.47,0,2.43-1.22,2.43-3.12c0-1.92-0.96-3.14-2.43-3.14
			s-2.43,1.22-2.43,3.14C18.01,147.29,18.97,148.51,20.44,148.51z"/>
		<path d="M30.49,142.62c-0.24-0.05-0.43-0.06-0.7-0.06c-1.22,0-2.19,0.96-2.19,2.43v4.58h-1.44v-8.37h1.44v1.42
			c0.37-0.85,1.18-1.49,2.32-1.49c0.22,0,0.43,0.02,0.58,0.03V142.62z"/>
		<path d="M33.51,145.1l3.71-3.91h1.79l-3.27,3.3l3.54,5.07h-1.68l-2.88-4.03l-1.22,1.23v2.8h-1.44v-11.49h1.44V145.1z"/>
		<path d="M40.55,138.07h1.57v1.66h-1.57V138.07z M42.06,149.57h-1.44v-8.37h1.44V149.57z"/>
		<path d="M44.46,141.2h1.44v1.14c0.48-0.69,1.31-1.3,2.5-1.3c1.78,0,2.79,1.23,2.79,3.01v5.52h-1.44v-5.14
			c0-1.17-0.5-2.05-1.74-2.05c-1.04,0-2.1,0.8-2.1,2.19v4.99h-1.44V141.2z"/>
		<path d="M56.68,152.62c-1.84,0-3.18-0.85-3.65-2.38l1.34-0.51c0.27,1.07,1.14,1.7,2.3,1.7c1.47,0,2.45-0.75,2.45-2.5v-0.94
			c-0.45,0.82-1.39,1.39-2.56,1.39c-2.29,0-3.63-1.89-3.63-4.18c0-2.27,1.34-4.16,3.63-4.16c1.15,0,2.11,0.58,2.56,1.39v-1.23h1.44
			v7.62C60.57,151.26,58.95,152.62,56.68,152.62z M56.83,142.3c-1.52,0-2.45,1.14-2.45,2.9s0.93,2.91,2.45,2.91
			c1.2,0,2.32-0.9,2.32-2.74v-0.3C59.15,143.2,58.03,142.3,56.83,142.3z"/>
		<path d="M67.78,148.35v4.1h-1.44V141.2h1.44v1.22c0.5-0.82,1.42-1.38,2.59-1.38c2.32,0,3.65,1.97,3.65,4.35
			c0,2.37-1.33,4.35-3.65,4.35C69.21,149.74,68.28,149.18,67.78,148.35z M67.75,145.69c0,1.92,1.18,2.79,2.37,2.79
			c1.57,0,2.45-1.3,2.45-3.09c0-1.81-0.88-3.09-2.45-3.09c-1.18,0-2.37,0.85-2.37,2.8V145.69z"/>
		<path d="M75.19,147.31c0-1.66,1.3-2.35,3.17-2.74l2.03-0.42v-0.35c0-0.96-0.53-1.5-1.65-1.5c-1.06,0-1.68,0.5-1.94,1.42
			l-1.36-0.35c0.4-1.36,1.63-2.34,3.34-2.34c1.87,0,3.03,0.91,3.03,2.71v4.08c0,0.54,0.34,0.72,0.9,0.59v1.15
			c-1.28,0.16-2.02-0.14-2.19-0.94c-0.51,0.66-1.44,1.09-2.58,1.09C76.42,149.71,75.19,148.81,75.19,147.31z M80.39,145.28
			l-1.63,0.35c-1.28,0.26-2.14,0.61-2.14,1.62c0,0.82,0.59,1.3,1.5,1.3c1.23,0,2.27-0.75,2.27-1.82V145.28z"/>
		<path d="M88.6,142.62c-0.24-0.05-0.43-0.06-0.7-0.06c-1.22,0-2.19,0.96-2.19,2.43v4.58h-1.44v-8.37h1.44v1.42
			c0.37-0.85,1.18-1.49,2.32-1.49c0.22,0,0.43,0.02,0.58,0.03V142.62z"/>
		<path d="M89.61,145.39c0-2.5,1.58-4.35,3.86-4.35c2.34,0,3.57,1.78,3.57,4.1v0.48h-6.05c0.08,1.76,1.09,2.88,2.54,2.88
			c1.12,0,1.92-0.61,2.18-1.6l1.26,0.45c-0.51,1.49-1.78,2.4-3.44,2.4C91.21,149.74,89.61,147.97,89.61,145.39z M91.06,144.51h4.51
			c-0.03-1.18-0.67-2.24-2.13-2.24C92.23,142.27,91.32,143.08,91.06,144.51z"/>
		<path d="M98.82,141.2h1.44v1.14c0.48-0.69,1.31-1.3,2.5-1.3c1.78,0,2.79,1.23,2.79,3.01v5.52h-1.44v-5.14
			c0-1.17-0.5-2.05-1.74-2.05c-1.04,0-2.1,0.8-2.1,2.19v4.99h-1.44V141.2z"/>
		<path d="M108.07,142.43h-1.3v-1.23h1.3v-2.45h1.42v2.45h1.9v1.23h-1.9v4.91c0,0.88,0.43,1.04,1.17,1.04c0.34,0,0.58-0.02,0.91-0.1
			v1.23c-0.37,0.08-0.78,0.13-1.26,0.13c-1.42,0-2.24-0.48-2.24-2.08V142.43z"/>
		<path d="M113.48,146.97c0.45,0.98,1.47,1.57,2.56,1.57c0.98,0,1.84-0.42,1.84-1.33s-0.8-1.04-2.18-1.33
			c-1.38-0.3-2.82-0.61-2.82-2.32c0-1.49,1.3-2.53,3.07-2.53c1.5,0,2.74,0.74,3.23,1.73l-1.02,0.82c-0.43-0.83-1.22-1.36-2.27-1.36
			c-0.96,0-1.6,0.48-1.6,1.23c0,0.78,0.74,0.93,1.9,1.18c1.44,0.34,3.09,0.62,3.09,2.45c0,1.6-1.46,2.66-3.25,2.66
			c-1.52,0-3.04-0.66-3.68-1.95L113.48,146.97z"/>
		<path d="M85.73,200.14v-6.95h1.54v6.9c0,2.35,1.25,3.38,2.98,3.38c1.75,0,2.99-1.02,2.99-3.38v-6.9h1.54v6.95
			c0,3.17-1.92,4.71-4.53,4.71C87.66,204.85,85.73,203.31,85.73,200.14z"/>
		<path d="M98.63,204.69h-1.54v-11.49h4.39c2.43,0,3.99,1.14,3.99,3.33c0,1.84-1.12,2.96-2.95,3.26l3.19,4.9h-1.76l-3.09-4.82h-2.23
			V204.69z M101.4,198.54c1.63,0,2.54-0.72,2.54-2.02c0-1.3-0.91-2-2.54-2h-2.77v4.02H101.4z"/>
		<path d="M112.41,204.69l-3.51-9.46v9.46h-1.44v-11.49h2.1l3.49,9.44l3.51-9.44h2.03v11.49h-1.42v-9.46l-3.52,9.46H112.41z"/>
		<path d="M66.46,249.66v10.15h-1.54v-10.15h-3.89v-1.34h9.32v1.34H66.46z"/>
		<path d="M71.81,248.32h1.44v4.26c0.48-0.69,1.31-1.3,2.5-1.3c1.78,0,2.79,1.23,2.79,3.01v5.52H77.1v-5.14
			c0-1.17-0.5-2.05-1.74-2.05c-1.04,0-2.1,0.8-2.1,2.19v4.99h-1.44V248.32z"/>
		<path d="M85.18,252.86c-0.24-0.05-0.43-0.06-0.7-0.06c-1.22,0-2.19,0.96-2.19,2.43v4.58h-1.44v-8.37h1.44v1.42
			c0.37-0.85,1.18-1.49,2.32-1.49c0.22,0,0.43,0.02,0.58,0.03V252.86z"/>
		<path d="M86.7,248.32h1.57v1.66H86.7V248.32z M88.2,259.81h-1.44v-8.37h1.44V259.81z"/>
		<path d="M92.74,259.81l-3.14-8.37h1.52l2.35,6.61l2.32-6.61h1.5l-3.14,8.37H92.74z"/>
		<path d="M98.65,248.32h1.57v1.66h-1.57V248.32z M100.15,259.81h-1.44v-8.37h1.44V259.81z"/>
		<path d="M102.55,251.44h1.44v1.14c0.48-0.69,1.31-1.3,2.5-1.3c1.78,0,2.79,1.23,2.79,3.01v5.52h-1.44v-5.14
			c0-1.17-0.5-2.05-1.74-2.05c-1.04,0-2.1,0.8-2.1,2.19v4.99h-1.44V251.44z"/>
		<path d="M114.77,262.87c-1.84,0-3.18-0.85-3.65-2.38l1.34-0.51c0.27,1.07,1.14,1.7,2.3,1.7c1.47,0,2.45-0.75,2.45-2.5v-0.94
			c-0.45,0.82-1.39,1.39-2.56,1.39c-2.29,0-3.63-1.89-3.63-4.18c0-2.27,1.34-4.16,3.63-4.16c1.15,0,2.11,0.58,2.56,1.39v-1.23h1.44
			v7.62C118.66,261.5,117.05,262.87,114.77,262.87z M114.92,252.54c-1.52,0-2.45,1.14-2.45,2.9s0.93,2.91,2.45,2.91
			c1.2,0,2.32-0.9,2.32-2.74v-0.3C117.24,253.44,116.12,252.54,114.92,252.54z"/>
		<path d="M33.38,303.44h1.54v10.15h5.73v1.34h-7.27V303.44z"/>
		<path d="M41.46,312.67c0-1.67,1.3-2.35,3.17-2.74l2.03-0.42v-0.35c0-0.96-0.53-1.5-1.65-1.5c-1.06,0-1.68,0.5-1.94,1.42
			l-1.36-0.35c0.4-1.36,1.63-2.34,3.34-2.34c1.87,0,3.03,0.91,3.03,2.71v4.08c0,0.54,0.34,0.72,0.9,0.59v1.15
			c-1.28,0.16-2.02-0.14-2.19-0.94c-0.51,0.66-1.44,1.09-2.58,1.09C42.7,315.07,41.46,314.18,41.46,312.67z M46.67,310.64
			l-1.63,0.35c-1.28,0.26-2.14,0.61-2.14,1.62c0,0.82,0.59,1.3,1.5,1.3c1.23,0,2.27-0.75,2.27-1.83V310.64z"/>
		<path d="M50.54,306.56h1.44v1.14c0.48-0.69,1.31-1.3,2.5-1.3c1.78,0,2.79,1.23,2.79,3.01v5.52h-1.44v-5.14
			c0-1.17-0.5-2.05-1.74-2.05c-1.04,0-2.1,0.8-2.1,2.19v4.99h-1.44V306.56z"/>
		<path d="M62.76,317.99c-1.84,0-3.18-0.85-3.65-2.38l1.34-0.51c0.27,1.07,1.14,1.7,2.3,1.7c1.47,0,2.45-0.75,2.45-2.5v-0.94
			c-0.45,0.82-1.39,1.39-2.56,1.39c-2.29,0-3.63-1.89-3.63-4.18c0-2.27,1.34-4.16,3.63-4.16c1.15,0,2.11,0.58,2.56,1.39v-1.23h1.44
			v7.62C66.65,316.62,65.03,317.99,62.76,317.99z M62.91,307.66c-1.52,0-2.45,1.14-2.45,2.9s0.93,2.91,2.45,2.91
			c1.2,0,2.32-0.9,2.32-2.74v-0.3C65.23,308.56,64.11,307.66,62.91,307.66z"/>
		<path d="M75.69,314.93h-1.44v-1.15c-0.48,0.7-1.3,1.33-2.48,1.33c-1.79,0-2.8-1.23-2.8-3.01v-5.54h1.44v5.23
			c0,1.18,0.51,1.99,1.74,1.99c1.04,0,2.1-0.79,2.1-2.18v-5.04h1.44V314.93z"/>
		<path d="M78.01,303.44h1.57v1.67h-1.57V303.44z M79.51,314.93h-1.44v-8.37h1.44V314.93z"/>
		<path d="M82.1,312.33c0.45,0.98,1.47,1.57,2.56,1.57c0.98,0,1.84-0.42,1.84-1.33c0-0.91-0.8-1.04-2.18-1.33
			c-1.38-0.3-2.82-0.61-2.82-2.32c0-1.49,1.3-2.53,3.07-2.53c1.5,0,2.74,0.74,3.23,1.73l-1.02,0.82c-0.43-0.83-1.22-1.36-2.27-1.36
			c-0.96,0-1.6,0.48-1.6,1.23c0,0.78,0.74,0.93,1.9,1.18c1.44,0.34,3.09,0.62,3.09,2.45c0,1.6-1.46,2.66-3.25,2.66
			c-1.52,0-3.04-0.66-3.68-1.95L82.1,312.33z"/>
		<path d="M89.69,303.44h1.44v4.26c0.48-0.69,1.31-1.3,2.5-1.3c1.78,0,2.79,1.23,2.79,3.01v5.52h-1.44v-5.14
			c0-1.17-0.5-2.05-1.74-2.05c-1.04,0-2.1,0.8-2.1,2.19v4.99h-1.44V303.44z"/>
		<path d="M98.65,303.44h1.57v1.67h-1.57V303.44z M100.15,314.93h-1.44v-8.37h1.44V314.93z"/>
		<path d="M102.55,306.56h1.44v1.14c0.48-0.69,1.31-1.3,2.5-1.3c1.78,0,2.79,1.23,2.79,3.01v5.52h-1.44v-5.14
			c0-1.17-0.5-2.05-1.74-2.05c-1.04,0-2.1,0.8-2.1,2.19v4.99h-1.44V306.56z"/>
		<path d="M114.78,317.99c-1.84,0-3.18-0.85-3.65-2.38l1.34-0.51c0.27,1.07,1.14,1.7,2.3,1.7c1.47,0,2.45-0.75,2.45-2.5v-0.94
			c-0.45,0.82-1.39,1.39-2.56,1.39c-2.29,0-3.63-1.89-3.63-4.18c0-2.27,1.34-4.16,3.63-4.16c1.15,0,2.11,0.58,2.56,1.39v-1.23h1.44
			v7.62C118.67,316.62,117.05,317.99,114.78,317.99z M114.92,307.66c-1.52,0-2.45,1.14-2.45,2.9s0.93,2.91,2.45,2.91
			c1.2,0,2.32-0.9,2.32-2.74v-0.3C117.24,308.56,116.12,307.66,114.92,307.66z"/>
	</g>
</g>
<g>
	<g>
		<path d="M192.49,34.19c1.58,0,2.74-0.91,3.22-2.43l1.07,0.34c-0.67,1.94-2.21,3.09-4.29,3.09c-2.93,0-5.07-2.4-5.07-5.91
			c0-3.51,2.14-5.91,5.07-5.91c2.08,0,3.62,1.15,4.29,3.09l-1.07,0.34c-0.48-1.52-1.63-2.43-3.22-2.43c-2.34,0-3.97,2.02-3.97,4.91
			C188.52,32.18,190.16,34.19,192.49,34.19z"/>
		<path d="M197.82,32.82c0-1.68,1.39-2.38,3.47-2.8l1.81-0.37v-0.51c0-1.09-0.62-1.68-1.84-1.68c-1.15,0-1.91,0.56-2.18,1.6
			l-1.01-0.3c0.4-1.34,1.62-2.24,3.22-2.24c1.78,0,2.87,0.9,2.87,2.58v4.45c0,0.59,0.45,0.79,1.04,0.61v0.9
			c-1.22,0.18-1.95-0.18-2.03-1.1c-0.48,0.69-1.47,1.25-2.66,1.25C199.05,35.19,197.82,34.35,197.82,32.82z M203.1,30.5l-1.5,0.32
			c-1.67,0.34-2.71,0.74-2.71,1.98c0,0.91,0.67,1.5,1.73,1.5c1.41,0,2.48-0.94,2.48-2.05V30.5z"/>
		<path d="M210.88,27.71c-0.22-0.05-0.43-0.06-0.69-0.06c-1.22,0-2.26,1.09-2.26,2.69v4.69h-1.06v-8.36h1.06v1.58
			c0.37-0.91,1.15-1.67,2.34-1.67c0.24,0,0.46,0.03,0.61,0.06V27.71z"/>
		<path d="M212.07,30.85c0-2.53,1.5-4.34,3.73-4.34c2.26,0,3.43,1.75,3.43,4.07v0.35h-6.15c0.03,2.03,1.15,3.33,2.77,3.33
			c1.26,0,2.1-0.7,2.35-1.81l0.96,0.3c-0.45,1.5-1.65,2.43-3.31,2.43C213.58,35.19,212.07,33.43,212.07,30.85z M213.13,30.1h5.03
			c-0.03-1.38-0.72-2.66-2.35-2.66C214.41,27.44,213.37,28.45,213.13,30.1z"/>
		<path d="M220.71,30.85c0-2.53,1.5-4.34,3.73-4.34c2.26,0,3.43,1.75,3.43,4.07v0.35h-6.15c0.03,2.03,1.15,3.33,2.77,3.33
			c1.26,0,2.1-0.7,2.35-1.81l0.96,0.3c-0.45,1.5-1.65,2.43-3.31,2.43C222.22,35.19,220.71,33.43,220.71,30.85z M221.77,30.1h5.03
			c-0.03-1.38-0.72-2.66-2.35-2.66C223.05,27.44,222.01,28.45,221.77,30.1z"/>
		<path d="M233.95,27.71c-0.22-0.05-0.43-0.06-0.69-0.06c-1.22,0-2.26,1.09-2.26,2.69v4.69h-1.06v-8.36H231v1.58
			c0.37-0.91,1.15-1.67,2.34-1.67c0.24,0,0.46,0.03,0.61,0.06V27.71z"/>
		<path d="M164.23,50.05c0-2.35,1.3-4.34,3.59-4.34c1.25,0,2.26,0.66,2.75,1.65v-4.63h1.06v11.49h-1.06v-1.49
			c-0.5,0.99-1.5,1.65-2.75,1.65C165.52,54.39,164.23,52.42,164.23,50.05z M167.99,46.66c-1.71,0-2.71,1.42-2.71,3.39
			s0.99,3.41,2.71,3.41c1.15,0,2.59-0.83,2.59-3.04v-0.69C170.58,47.49,169.14,46.66,167.99,46.66z"/>
		<path d="M173.68,50.05c0-2.53,1.5-4.34,3.73-4.34c2.26,0,3.43,1.75,3.43,4.07v0.35h-6.15c0.03,2.03,1.15,3.33,2.77,3.33
			c1.26,0,2.1-0.7,2.35-1.81l0.96,0.3c-0.45,1.5-1.65,2.43-3.31,2.43C175.19,54.39,173.68,52.63,173.68,50.05z M174.74,49.3h5.03
			c-0.03-1.38-0.72-2.66-2.35-2.66C176.02,46.64,174.98,47.65,174.74,49.3z"/>
		<path d="M185.11,54.23l-3.18-8.36h1.12l2.58,7.03l2.58-7.03h1.1l-3.19,8.36H185.11z"/>
		<path d="M190.4,50.05c0-2.53,1.5-4.34,3.73-4.34c2.26,0,3.43,1.75,3.43,4.07v0.35h-6.15c0.03,2.03,1.15,3.33,2.77,3.33
			c1.26,0,2.1-0.7,2.35-1.81l0.96,0.3c-0.45,1.5-1.65,2.43-3.31,2.43C191.91,54.39,190.4,52.63,190.4,50.05z M191.46,49.3h5.03
			c-0.03-1.38-0.72-2.66-2.35-2.66C192.74,46.64,191.7,47.65,191.46,49.3z"/>
		<path d="M200.69,54.23h-1.06V42.73h1.06V54.23z"/>
		<path d="M206.53,54.39c-2.24,0-3.75-1.76-3.75-4.34s1.5-4.34,3.75-4.34c2.24,0,3.76,1.76,3.76,4.34S208.77,54.39,206.53,54.39z
			 M206.53,53.47c1.62,0,2.69-1.34,2.69-3.42c0-2.07-1.07-3.43-2.69-3.43c-1.62,0-2.69,1.36-2.69,3.43
			C203.84,52.13,204.91,53.47,206.53,53.47z"/>
		<path d="M213.43,52.74v4.37h-1.06V45.87h1.06v1.49c0.5-0.99,1.5-1.65,2.75-1.65c2.29,0,3.58,1.98,3.58,4.34
			c0,2.37-1.3,4.34-3.58,4.34C214.93,54.39,213.92,53.73,213.43,52.74z M213.41,50.42c0,2.21,1.44,3.04,2.59,3.04
			c1.71,0,2.71-1.44,2.71-3.41s-0.99-3.39-2.71-3.39c-1.15,0-2.59,0.83-2.59,3.07V50.42z"/>
		<path d="M222.91,54.23h-1.06v-8.36h1.06v1.34c0.45-0.8,1.31-1.5,2.53-1.5c1.2,0,2.02,0.64,2.39,1.63
			c0.43-0.82,1.41-1.63,2.72-1.63c1.71,0,2.71,1.25,2.71,3.03v5.49h-1.06v-5.25c0-1.3-0.54-2.27-1.87-2.27
			c-1.09,0-2.24,0.96-2.24,2.43v5.09h-1.06v-5.25c0-1.3-0.54-2.27-1.87-2.27c-1.07,0-2.24,0.96-2.24,2.43V54.23z"/>
		<path d="M235.25,50.05c0-2.53,1.5-4.34,3.73-4.34c2.26,0,3.43,1.75,3.43,4.07v0.35h-6.15c0.03,2.03,1.15,3.33,2.77,3.33
			c1.26,0,2.1-0.7,2.35-1.81l0.96,0.3c-0.45,1.5-1.65,2.43-3.31,2.43C236.75,54.39,235.25,52.63,235.25,50.05z M236.31,49.3h5.03
			c-0.03-1.38-0.72-2.66-2.35-2.66C237.59,46.64,236.55,47.65,236.31,49.3z"/>
		<path d="M244.48,45.87h1.06v1.34c0.48-0.82,1.38-1.5,2.64-1.5c1.81,0,2.75,1.25,2.75,3.03v5.49h-1.06v-5.25
			c0-1.3-0.56-2.27-1.95-2.27c-1.17,0-2.38,0.93-2.38,2.46v5.06h-1.06V45.87z"/>
		<path d="M253.81,46.78h-1.39v-0.91h1.39v-2.42h1.04v2.42h2.02v0.91h-2.02v5.38c0,0.96,0.43,1.2,1.23,1.2
			c0.35,0,0.64-0.03,1.01-0.13v0.93c-0.38,0.1-0.74,0.14-1.22,0.14c-1.3,0-2.07-0.48-2.07-1.99V46.78z"/>
	</g>
</g>
<g>
	<g>
		<path d="M295.84,55.19c1.58,0,2.74-0.91,3.22-2.43l1.07,0.34c-0.67,1.94-2.21,3.09-4.29,3.09c-2.93,0-5.07-2.4-5.07-5.91
			s2.14-5.91,5.07-5.91c2.08,0,3.62,1.15,4.29,3.09l-1.07,0.34c-0.48-1.52-1.63-2.43-3.22-2.43c-2.34,0-3.97,2.02-3.97,4.91
			S293.5,55.19,295.84,55.19z"/>
		<path d="M305.02,56.18c-2.24,0-3.75-1.76-3.75-4.34s1.5-4.34,3.75-4.34c2.24,0,3.76,1.76,3.76,4.34S307.26,56.18,305.02,56.18z
			 M305.02,55.27c1.62,0,2.69-1.34,2.69-3.43c0-2.06-1.07-3.42-2.69-3.42c-1.62,0-2.69,1.36-2.69,3.42
			C302.33,53.93,303.41,55.27,305.02,55.27z"/>
		<path d="M311.92,56.02h-1.06v-8.36h1.06v1.34c0.45-0.8,1.31-1.5,2.53-1.5c1.2,0,2.02,0.64,2.39,1.63
			c0.43-0.82,1.41-1.63,2.72-1.63c1.71,0,2.71,1.25,2.71,3.03v5.49h-1.06v-5.25c0-1.3-0.54-2.27-1.87-2.27
			c-1.09,0-2.24,0.96-2.24,2.43v5.09h-1.06v-5.25c0-1.3-0.54-2.27-1.87-2.27c-1.07,0-2.24,0.96-2.24,2.43V56.02z"/>
		<path d="M325.9,56.02h-1.06v-8.36h1.06v1.34c0.45-0.8,1.31-1.5,2.53-1.5c1.2,0,2.02,0.64,2.39,1.63c0.43-0.82,1.41-1.63,2.72-1.63
			c1.71,0,2.71,1.25,2.71,3.03v5.49h-1.06v-5.25c0-1.3-0.54-2.27-1.87-2.27c-1.09,0-2.24,0.96-2.24,2.43v5.09h-1.06v-5.25
			c0-1.3-0.54-2.27-1.87-2.27c-1.07,0-2.24,0.96-2.24,2.43V56.02z"/>
		<path d="M345.18,56.02h-1.06v-1.34c-0.46,0.82-1.36,1.5-2.62,1.5c-1.79,0-2.77-1.23-2.77-3.01v-5.51h1.06v5.31
			c0,1.3,0.58,2.22,1.97,2.22c1.17,0,2.37-0.91,2.37-2.46v-5.07h1.06V56.02z"/>
		<path d="M347.88,47.67h1.06v1.34c0.48-0.82,1.38-1.5,2.64-1.5c1.81,0,2.75,1.25,2.75,3.03v5.49h-1.06v-5.25
			c0-1.3-0.56-2.27-1.95-2.27c-1.17,0-2.38,0.93-2.38,2.46v5.06h-1.06V47.67z"/>
		<path d="M356.86,44.53h1.23v1.42h-1.23V44.53z M358,56.02h-1.06v-8.36H358V56.02z"/>
		<path d="M363.88,55.26c1.26,0,2-0.8,2.26-1.92l0.96,0.38c-0.37,1.46-1.52,2.46-3.22,2.46c-2.27,0-3.79-1.74-3.79-4.34
			c0-2.58,1.52-4.34,3.79-4.34c1.68,0,2.82,1.01,3.2,2.45l-0.94,0.4c-0.26-1.12-0.99-1.92-2.26-1.92c-1.63,0-2.74,1.34-2.74,3.41
			C361.15,53.93,362.25,55.26,363.88,55.26z"/>
		<path d="M368.32,53.82c0-1.68,1.39-2.38,3.47-2.8l1.81-0.37v-0.51c0-1.09-0.62-1.68-1.84-1.68c-1.15,0-1.91,0.56-2.18,1.6
			l-1.01-0.3c0.4-1.34,1.62-2.24,3.22-2.24c1.78,0,2.87,0.9,2.87,2.58v4.45c0,0.59,0.45,0.78,1.04,0.61v0.9
			c-1.22,0.18-1.95-0.18-2.03-1.1c-0.48,0.69-1.47,1.25-2.66,1.25C369.55,56.18,368.32,55.35,368.32,53.82z M373.6,51.5l-1.5,0.32
			c-1.67,0.34-2.71,0.74-2.71,1.98c0,0.91,0.67,1.5,1.73,1.5c1.41,0,2.48-0.94,2.48-2.05V51.5z"/>
		<path d="M377.64,48.58h-1.39v-0.91h1.39v-2.42h1.04v2.42h2.02v0.91h-2.02v5.38c0,0.96,0.43,1.2,1.23,1.2
			c0.35,0,0.64-0.03,1.01-0.13v0.93c-0.38,0.1-0.74,0.14-1.22,0.14c-1.3,0-2.07-0.48-2.07-1.98V48.58z"/>
		<path d="M382.75,44.53h1.23v1.42h-1.23V44.53z M383.88,56.02h-1.06v-8.36h1.06V56.02z"/>
		<path d="M389.72,56.18c-2.24,0-3.75-1.76-3.75-4.34s1.5-4.34,3.75-4.34c2.24,0,3.76,1.76,3.76,4.34S391.96,56.18,389.72,56.18z
			 M389.72,55.27c1.62,0,2.69-1.34,2.69-3.43c0-2.06-1.07-3.42-2.69-3.42c-1.62,0-2.69,1.36-2.69,3.42
			C387.03,53.93,388.11,55.27,389.72,55.27z"/>
		<path d="M395.56,47.67h1.06v1.34c0.48-0.82,1.38-1.5,2.64-1.5c1.81,0,2.75,1.25,2.75,3.03v5.49h-1.06v-5.25
			c0-1.3-0.56-2.27-1.95-2.27c-1.17,0-2.38,0.93-2.38,2.46v5.06h-1.06V47.67z"/>
	</g>
</g>
<g>
	<g>
		<path d="M452.64,56.02h-1.12V44.53h1.12V56.02z"/>
		<path d="M455.41,47.67h1.06v1.34c0.48-0.82,1.38-1.5,2.64-1.5c1.81,0,2.75,1.25,2.75,3.03v5.49h-1.06v-5.25
			c0-1.3-0.56-2.27-1.95-2.27c-1.17,0-2.38,0.93-2.38,2.46v5.06h-1.06V47.67z"/>
		<path d="M467.92,45.36c-0.26-0.03-0.4-0.05-0.67-0.05c-0.91,0-1.41,0.5-1.41,1.67v0.69h1.99v0.91h-1.99v7.44h-1.07v-7.44h-1.31
			v-0.91h1.31V46.9c0-1.54,0.86-2.53,2.4-2.53c0.29,0,0.48,0,0.75,0.05V45.36z"/>
		<path d="M470.4,56.02h-1.06V44.53h1.06V56.02z"/>
		<path d="M479.44,56.02h-1.06v-1.34c-0.46,0.82-1.36,1.5-2.62,1.5c-1.79,0-2.77-1.23-2.77-3.01v-5.51h1.06v5.31
			c0,1.3,0.58,2.22,1.97,2.22c1.17,0,2.37-0.91,2.37-2.46v-5.07h1.06V56.02z"/>
		<path d="M481.55,51.85c0-2.53,1.5-4.34,3.73-4.34c2.26,0,3.43,1.75,3.43,4.07v0.35h-6.15c0.03,2.03,1.15,3.33,2.77,3.33
			c1.26,0,2.1-0.7,2.35-1.81l0.96,0.3c-0.45,1.5-1.65,2.43-3.31,2.43C483.05,56.18,481.55,54.42,481.55,51.85z M482.61,51.09h5.03
			c-0.03-1.38-0.72-2.66-2.35-2.66C483.89,48.44,482.85,49.45,482.61,51.09z"/>
		<path d="M490.78,47.67h1.06v1.34c0.48-0.82,1.38-1.5,2.64-1.5c1.81,0,2.75,1.25,2.75,3.03v5.49h-1.06v-5.25
			c0-1.3-0.56-2.27-1.95-2.27c-1.17,0-2.38,0.93-2.38,2.46v5.06h-1.06V47.67z"/>
		<path d="M503.04,55.26c1.26,0,2-0.8,2.26-1.92l0.96,0.38c-0.37,1.46-1.52,2.46-3.22,2.46c-2.27,0-3.79-1.74-3.79-4.34
			c0-2.58,1.52-4.34,3.79-4.34c1.68,0,2.82,1.01,3.2,2.45l-0.94,0.4c-0.26-1.12-0.99-1.92-2.26-1.92c-1.63,0-2.74,1.34-2.74,3.41
			C500.3,53.93,501.41,55.26,503.04,55.26z"/>
		<path d="M507.58,51.85c0-2.53,1.5-4.34,3.73-4.34c2.26,0,3.43,1.75,3.43,4.07v0.35h-6.15c0.03,2.03,1.15,3.33,2.77,3.33
			c1.26,0,2.1-0.7,2.35-1.81l0.96,0.3c-0.45,1.5-1.65,2.43-3.31,2.43C509.09,56.18,507.58,54.42,507.58,51.85z M508.64,51.09h5.03
			c-0.03-1.38-0.72-2.66-2.35-2.66C509.92,48.44,508.88,49.45,508.64,51.09z"/>
	</g>
</g>
<g>
	<g>
		<path d="M591.54,23.53h1.12v10.52h6v0.98h-7.12V23.53z"/>
		<path d="M599.7,30.85c0-2.53,1.5-4.34,3.73-4.34c2.26,0,3.43,1.75,3.43,4.07v0.35h-6.15c0.03,2.03,1.15,3.33,2.77,3.33
			c1.26,0,2.1-0.7,2.35-1.81l0.96,0.3c-0.45,1.5-1.65,2.43-3.31,2.43C601.2,35.19,599.7,33.43,599.7,30.85z M600.75,30.1h5.03
			c-0.03-1.38-0.72-2.66-2.35-2.66C602.03,27.44,600.99,28.45,600.75,30.1z"/>
		<path d="M608.23,32.82c0-1.68,1.39-2.38,3.47-2.8l1.81-0.37v-0.51c0-1.09-0.62-1.68-1.84-1.68c-1.15,0-1.91,0.56-2.18,1.6
			l-1.01-0.3c0.4-1.34,1.62-2.24,3.22-2.24c1.78,0,2.87,0.9,2.87,2.58v4.45c0,0.59,0.45,0.79,1.04,0.61v0.9
			c-1.22,0.18-1.95-0.18-2.03-1.1c-0.48,0.69-1.47,1.25-2.66,1.25C609.46,35.19,608.23,34.35,608.23,32.82z M613.51,30.5l-1.5,0.32
			c-1.67,0.34-2.71,0.74-2.71,1.98c0,0.91,0.67,1.5,1.73,1.5c1.41,0,2.48-0.94,2.48-2.05V30.5z"/>
		<path d="M616.69,30.85c0-2.35,1.3-4.34,3.59-4.34c1.25,0,2.26,0.66,2.75,1.65v-4.63h1.06v11.49h-1.06v-1.49
			c-0.5,0.99-1.5,1.65-2.75,1.65C617.99,35.19,616.69,33.22,616.69,30.85z M620.45,27.46c-1.71,0-2.71,1.42-2.71,3.39
			s0.99,3.41,2.71,3.41c1.15,0,2.59-0.83,2.59-3.04v-0.69C623.04,28.29,621.6,27.46,620.45,27.46z"/>
		<path d="M626.66,23.53h1.23v1.42h-1.23V23.53z M627.79,35.03h-1.06v-8.36h1.06V35.03z"/>
		<path d="M630.48,26.67h1.06v1.34c0.48-0.82,1.38-1.5,2.64-1.5c1.81,0,2.75,1.25,2.75,3.03v5.49h-1.06v-5.25
			c0-1.3-0.56-2.27-1.95-2.27c-1.17,0-2.38,0.93-2.38,2.46v5.06h-1.06V26.67z"/>
		<path d="M642.59,38.07c-1.74,0-3.09-0.86-3.5-2.32l1.01-0.4c0.29,1.17,1.25,1.82,2.5,1.82c1.63,0,2.67-0.86,2.67-2.77v-1.22
			c-0.45,0.98-1.46,1.66-2.69,1.66c-2.3,0-3.63-1.92-3.63-4.16c0-2.27,1.33-4.18,3.63-4.18c1.22,0,2.24,0.69,2.69,1.68v-1.52h1.06
			v7.67C646.32,36.79,644.79,38.07,642.59,38.07z M642.72,27.46c-1.68,0-2.71,1.31-2.71,3.23c0,1.9,1.02,3.23,2.71,3.23
			c1.2,0,2.56-0.91,2.56-3.01V30.5C645.28,28.35,643.92,27.46,642.72,27.46z"/>
		<path d="M600.6,54.39c-2.24,0-3.75-1.76-3.75-4.34s1.5-4.34,3.75-4.34c2.24,0,3.76,1.76,3.76,4.34S602.84,54.39,600.6,54.39z
			 M600.6,53.47c1.62,0,2.69-1.34,2.69-3.42c0-2.07-1.07-3.43-2.69-3.43c-1.62,0-2.69,1.36-2.69,3.43
			C597.91,52.13,598.99,53.47,600.6,53.47z"/>
		<path d="M606.71,46.78h-1.39v-0.91h1.39v-2.42h1.04v2.42h2.02v0.91h-2.02v5.38c0,0.96,0.43,1.2,1.23,1.2
			c0.35,0,0.64-0.03,1.01-0.13v0.93c-0.38,0.1-0.74,0.14-1.22,0.14c-1.3,0-2.07-0.48-2.07-1.99V46.78z"/>
		<path d="M611.9,42.73h1.06v4.48c0.48-0.82,1.38-1.5,2.64-1.5c1.81,0,2.75,1.25,2.75,3.03v5.49h-1.06v-5.25
			c0-1.3-0.56-2.27-1.95-2.27c-1.17,0-2.38,0.93-2.38,2.46v5.06h-1.06V42.73z"/>
		<path d="M620.36,50.05c0-2.53,1.5-4.34,3.73-4.34c2.26,0,3.43,1.75,3.43,4.07v0.35h-6.15c0.03,2.03,1.15,3.33,2.77,3.33
			c1.26,0,2.1-0.7,2.35-1.81l0.96,0.3c-0.45,1.5-1.65,2.43-3.31,2.43C621.86,54.39,620.36,52.63,620.36,50.05z M621.42,49.3h5.03
			c-0.03-1.38-0.72-2.66-2.35-2.66C622.7,46.64,621.66,47.65,621.42,49.3z"/>
		<path d="M633.59,46.91c-0.22-0.05-0.43-0.06-0.69-0.06c-1.22,0-2.26,1.09-2.26,2.69v4.69h-1.06v-8.36h1.06v1.58
			c0.37-0.91,1.15-1.67,2.34-1.67c0.24,0,0.46,0.03,0.61,0.06V46.91z"/>
		<path d="M635.29,51.75c0.4,1.12,1.5,1.76,2.67,1.76c1.09,0,2.06-0.54,2.06-1.58c0-1.04-0.88-1.2-2.29-1.52
			c-1.42-0.34-2.8-0.61-2.8-2.27c0-1.44,1.26-2.42,2.91-2.42c1.52,0,2.69,0.8,3.09,1.86l-0.82,0.54c-0.37-0.91-1.15-1.5-2.32-1.5
			c-1.1,0-1.84,0.56-1.84,1.47c0,0.93,0.85,1.1,2.1,1.39c1.47,0.35,2.99,0.64,2.99,2.38c0,1.52-1.38,2.53-3.09,2.53
			c-1.47,0-2.98-0.66-3.54-2.07L635.29,51.75z"/>
	</g>
</g>
<g>
	<g>
		<path d="M723.79,31.86c0.66,1.49,2.03,2.35,3.68,2.35c1.63,0,2.91-0.86,2.91-2.32c0-1.58-1.41-1.87-3.2-2.3
			c-1.84-0.45-3.62-0.91-3.62-3.03c0-1.92,1.7-3.19,3.76-3.19c2.02,0,3.38,0.96,4,2.35l-0.88,0.62c-0.56-1.2-1.52-2-3.14-2
			c-1.5,0-2.66,0.88-2.66,2.13c0,1.39,1.23,1.68,2.91,2.1c1.92,0.46,3.92,0.86,3.92,3.23c0,2.07-1.86,3.38-4.05,3.38
			c-2,0-3.84-1.02-4.55-2.64L723.79,31.86z"/>
		<path d="M733.68,27.58h-1.39v-0.91h1.39v-2.42h1.04v2.42h2.02v0.91h-2.02v5.38c0,0.96,0.43,1.2,1.23,1.2
			c0.35,0,0.64-0.03,1.01-0.13v0.93c-0.38,0.1-0.74,0.14-1.22,0.14c-1.3,0-2.07-0.48-2.07-1.99V27.58z"/>
		<path d="M742.86,27.71c-0.22-0.05-0.43-0.06-0.69-0.06c-1.22,0-2.26,1.09-2.26,2.69v4.69h-1.06v-8.36h1.06v1.58
			c0.37-0.91,1.15-1.67,2.34-1.67c0.24,0,0.46,0.03,0.61,0.06V27.71z"/>
		<path d="M743.95,32.82c0-1.68,1.39-2.38,3.47-2.8l1.81-0.37v-0.51c0-1.09-0.62-1.68-1.84-1.68c-1.15,0-1.91,0.56-2.18,1.6
			l-1.01-0.3c0.4-1.34,1.62-2.24,3.22-2.24c1.78,0,2.87,0.9,2.87,2.58v4.45c0,0.59,0.45,0.79,1.04,0.61v0.9
			c-1.22,0.18-1.95-0.18-2.03-1.1c-0.48,0.69-1.47,1.25-2.66,1.25C745.18,35.19,743.95,34.35,743.95,32.82z M749.23,30.5l-1.5,0.32
			c-1.67,0.34-2.71,0.74-2.71,1.98c0,0.91,0.67,1.5,1.73,1.5c1.41,0,2.48-0.94,2.48-2.05V30.5z"/>
		<path d="M753.28,27.58h-1.39v-0.91h1.39v-2.42h1.04v2.42h2.02v0.91h-2.02v5.38c0,0.96,0.43,1.2,1.23,1.2
			c0.35,0,0.64-0.03,1.01-0.13v0.93c-0.38,0.1-0.74,0.14-1.22,0.14c-1.3,0-2.07-0.48-2.07-1.99V27.58z"/>
		<path d="M757.87,30.85c0-2.53,1.5-4.34,3.73-4.34c2.26,0,3.43,1.75,3.43,4.07v0.35h-6.15c0.03,2.03,1.15,3.33,2.77,3.33
			c1.26,0,2.1-0.7,2.35-1.81l0.96,0.3c-0.45,1.5-1.65,2.43-3.31,2.43C759.37,35.19,757.87,33.43,757.87,30.85z M758.93,30.1h5.03
			c-0.03-1.38-0.72-2.66-2.35-2.66C760.21,27.44,759.17,28.45,758.93,30.1z"/>
		<path d="M770.16,38.07c-1.74,0-3.09-0.86-3.5-2.32l1.01-0.4c0.29,1.17,1.25,1.82,2.5,1.82c1.63,0,2.67-0.86,2.67-2.77v-1.22
			c-0.45,0.98-1.46,1.66-2.69,1.66c-2.3,0-3.63-1.92-3.63-4.16c0-2.27,1.33-4.18,3.63-4.18c1.22,0,2.24,0.69,2.69,1.68v-1.52h1.06
			v7.67C773.89,36.79,772.35,38.07,770.16,38.07z M770.29,27.46c-1.68,0-2.71,1.31-2.71,3.23c0,1.9,1.02,3.23,2.71,3.23
			c1.2,0,2.56-0.91,2.56-3.01V30.5C772.85,28.35,771.49,27.46,770.29,27.46z"/>
		<path d="M776.51,23.53h1.23v1.42h-1.23V23.53z M777.65,35.03h-1.06v-8.36h1.06V35.03z"/>
		<path d="M783.53,34.26c1.26,0,2-0.8,2.26-1.92l0.96,0.38c-0.37,1.46-1.52,2.47-3.22,2.47c-2.27,0-3.79-1.75-3.79-4.34
			c0-2.58,1.52-4.34,3.79-4.34c1.68,0,2.82,1.01,3.2,2.45l-0.94,0.4c-0.26-1.12-0.99-1.92-2.26-1.92c-1.63,0-2.74,1.34-2.74,3.41
			C780.8,32.93,781.9,34.26,783.53,34.26z"/>
		<path d="M709.92,54.23h-1.06v-8.36h1.06v1.34c0.45-0.8,1.31-1.5,2.53-1.5c1.2,0,2.02,0.64,2.39,1.63
			c0.43-0.82,1.41-1.63,2.72-1.63c1.71,0,2.71,1.25,2.71,3.03v5.49h-1.06v-5.25c0-1.3-0.54-2.27-1.87-2.27
			c-1.09,0-2.24,0.96-2.24,2.43v5.09h-1.06v-5.25c0-1.3-0.54-2.27-1.87-2.27c-1.07,0-2.24,0.96-2.24,2.43V54.23z"/>
		<path d="M722.14,52.02c0-1.68,1.39-2.38,3.47-2.8l1.81-0.37v-0.51c0-1.09-0.62-1.68-1.84-1.68c-1.15,0-1.91,0.56-2.18,1.6
			l-1.01-0.3c0.4-1.34,1.62-2.24,3.22-2.24c1.78,0,2.87,0.9,2.87,2.58v4.45c0,0.59,0.45,0.79,1.04,0.61v0.9
			c-1.22,0.18-1.95-0.18-2.03-1.1c-0.48,0.69-1.47,1.25-2.66,1.25C723.37,54.39,722.14,53.55,722.14,52.02z M727.42,49.7l-1.5,0.32
			c-1.67,0.34-2.71,0.74-2.71,1.98c0,0.91,0.67,1.5,1.73,1.5c1.41,0,2.48-0.94,2.48-2.05V49.7z"/>
		<path d="M731.2,45.87h1.06v1.34c0.48-0.82,1.38-1.5,2.64-1.5c1.81,0,2.75,1.25,2.75,3.03v5.49h-1.06v-5.25
			c0-1.3-0.56-2.27-1.95-2.27c-1.17,0-2.38,0.93-2.38,2.46v5.06h-1.06V45.87z"/>
		<path d="M739.55,52.02c0-1.68,1.39-2.38,3.47-2.8l1.81-0.37v-0.51c0-1.09-0.62-1.68-1.84-1.68c-1.15,0-1.91,0.56-2.18,1.6
			l-1.01-0.3c0.4-1.34,1.62-2.24,3.22-2.24c1.78,0,2.87,0.9,2.87,2.58v4.45c0,0.59,0.45,0.79,1.04,0.61v0.9
			c-1.22,0.18-1.95-0.18-2.03-1.1c-0.48,0.69-1.47,1.25-2.66,1.25C740.78,54.39,739.55,53.55,739.55,52.02z M744.83,49.7l-1.5,0.32
			c-1.67,0.34-2.71,0.74-2.71,1.98c0,0.91,0.67,1.5,1.73,1.5c1.41,0,2.48-0.94,2.48-2.05V49.7z"/>
		<path d="M751.66,57.27c-1.74,0-3.09-0.86-3.5-2.32l1.01-0.4c0.29,1.17,1.25,1.82,2.5,1.82c1.63,0,2.67-0.86,2.67-2.77v-1.22
			c-0.45,0.98-1.46,1.66-2.69,1.66c-2.3,0-3.63-1.92-3.63-4.16c0-2.27,1.33-4.18,3.63-4.18c1.22,0,2.24,0.69,2.69,1.68v-1.52h1.06
			v7.67C755.39,55.99,753.86,57.27,751.66,57.27z M751.79,46.66c-1.68,0-2.71,1.31-2.71,3.23c0,1.9,1.02,3.23,2.71,3.23
			c1.2,0,2.56-0.91,2.56-3.01V49.7C754.35,47.55,752.99,46.66,751.79,46.66z"/>
		<path d="M757.5,50.05c0-2.53,1.5-4.34,3.73-4.34c2.26,0,3.43,1.75,3.43,4.07v0.35h-6.15c0.03,2.03,1.15,3.33,2.77,3.33
			c1.26,0,2.1-0.7,2.35-1.81l0.96,0.3c-0.45,1.5-1.65,2.43-3.31,2.43C759,54.39,757.5,52.63,757.5,50.05z M758.56,49.3h5.03
			c-0.03-1.38-0.72-2.66-2.35-2.66C759.84,46.64,758.8,47.65,758.56,49.3z"/>
		<path d="M767.79,54.23h-1.06v-8.36h1.06v1.34c0.45-0.8,1.31-1.5,2.53-1.5c1.2,0,2.02,0.64,2.39,1.63
			c0.43-0.82,1.41-1.63,2.72-1.63c1.71,0,2.71,1.25,2.71,3.03v5.49h-1.06v-5.25c0-1.3-0.54-2.27-1.87-2.27
			c-1.09,0-2.24,0.96-2.24,2.43v5.09h-1.06v-5.25c0-1.3-0.54-2.27-1.87-2.27c-1.07,0-2.24,0.96-2.24,2.43V54.23z"/>
		<path d="M780.12,50.05c0-2.53,1.5-4.34,3.73-4.34c2.26,0,3.43,1.75,3.43,4.07v0.35h-6.15c0.03,2.03,1.15,3.33,2.77,3.33
			c1.26,0,2.1-0.7,2.35-1.81l0.96,0.3c-0.45,1.5-1.65,2.43-3.31,2.43C781.63,54.39,780.12,52.63,780.12,50.05z M781.18,49.3h5.03
			c-0.03-1.38-0.72-2.66-2.35-2.66C782.46,46.64,781.42,47.65,781.18,49.3z"/>
		<path d="M789.36,45.87h1.06v1.34c0.48-0.82,1.38-1.5,2.64-1.5c1.81,0,2.75,1.25,2.75,3.03v5.49h-1.06v-5.25
			c0-1.3-0.56-2.27-1.95-2.27c-1.17,0-2.38,0.93-2.38,2.46v5.06h-1.06V45.87z"/>
		<path d="M798.68,46.78h-1.39v-0.91h1.39v-2.42h1.04v2.42h2.02v0.91h-2.02v5.38c0,0.96,0.43,1.2,1.23,1.2
			c0.35,0,0.64-0.03,1.01-0.13v0.93c-0.38,0.1-0.74,0.14-1.22,0.14c-1.3,0-2.07-0.48-2.07-1.99V46.78z"/>
	</g>
</g>
<g>
	<g>
		<path d="M878.51,3.51v10.52h-1.1V3.51h-4.07V2.54h9.24v0.98H878.51z"/>
		<path d="M884.12,2.54h1.23v1.42h-1.23V2.54z M885.26,14.03h-1.06V5.67h1.06V14.03z"/>
		<path d="M889,14.03h-1.06V5.67H889v1.34c0.45-0.8,1.31-1.5,2.53-1.5c1.2,0,2.02,0.64,2.39,1.63c0.43-0.82,1.41-1.63,2.72-1.63
			c1.71,0,2.71,1.25,2.71,3.03v5.49h-1.06V8.78c0-1.3-0.54-2.27-1.87-2.27c-1.09,0-2.24,0.96-2.24,2.43v5.09h-1.06V8.78
			c0-1.3-0.54-2.27-1.87-2.27c-1.07,0-2.24,0.96-2.24,2.43V14.03z"/>
		<path d="M901.33,9.85c0-2.53,1.5-4.34,3.73-4.34c2.26,0,3.43,1.75,3.43,4.07v0.35h-6.15c0.03,2.03,1.15,3.33,2.77,3.33
			c1.26,0,2.1-0.7,2.35-1.81l0.96,0.3c-0.45,1.5-1.65,2.43-3.31,2.43C902.84,14.19,901.33,12.43,901.33,9.85z M902.39,9.1h5.03
			c-0.03-1.38-0.72-2.66-2.35-2.66C903.67,6.44,902.63,7.45,902.39,9.1z"/>
		<path d="M846.03,33.23h-1.06v-8.36h1.06v1.34c0.45-0.8,1.31-1.5,2.53-1.5c1.2,0,2.02,0.64,2.39,1.63
			c0.43-0.82,1.41-1.63,2.72-1.63c1.71,0,2.71,1.25,2.71,3.03v5.49h-1.06v-5.25c0-1.3-0.54-2.27-1.87-2.27
			c-1.09,0-2.24,0.96-2.24,2.43v5.09h-1.06v-5.25c0-1.3-0.54-2.27-1.87-2.27c-1.07,0-2.24,0.96-2.24,2.43V33.23z"/>
		<path d="M858.26,31.02c0-1.68,1.39-2.38,3.47-2.8l1.81-0.37v-0.51c0-1.09-0.62-1.68-1.84-1.68c-1.15,0-1.91,0.56-2.18,1.6
			l-1.01-0.3c0.4-1.34,1.62-2.24,3.22-2.24c1.78,0,2.87,0.9,2.87,2.58v4.45c0,0.59,0.45,0.78,1.04,0.61v0.9
			c-1.22,0.18-1.95-0.18-2.03-1.1c-0.48,0.69-1.47,1.25-2.66,1.25C859.49,33.39,858.26,32.56,858.26,31.02z M863.54,28.7l-1.5,0.32
			c-1.67,0.34-2.71,0.74-2.71,1.98c0,0.91,0.67,1.5,1.73,1.5c1.41,0,2.48-0.94,2.48-2.05V28.7z"/>
		<path d="M867.31,24.87h1.06v1.34c0.48-0.82,1.38-1.5,2.64-1.5c1.81,0,2.75,1.25,2.75,3.03v5.49h-1.06v-5.25
			c0-1.3-0.56-2.27-1.95-2.27c-1.17,0-2.38,0.93-2.38,2.46v5.06h-1.06V24.87z"/>
		<path d="M875.67,31.02c0-1.68,1.39-2.38,3.47-2.8l1.81-0.37v-0.51c0-1.09-0.62-1.68-1.84-1.68c-1.15,0-1.91,0.56-2.18,1.6
			l-1.01-0.3c0.4-1.34,1.62-2.24,3.22-2.24c1.78,0,2.87,0.9,2.87,2.58v4.45c0,0.59,0.45,0.78,1.04,0.61v0.9
			c-1.22,0.18-1.95-0.18-2.03-1.1c-0.48,0.69-1.47,1.25-2.66,1.25C876.9,33.39,875.67,32.56,875.67,31.02z M880.95,28.7l-1.5,0.32
			c-1.67,0.34-2.71,0.74-2.71,1.98c0,0.91,0.67,1.5,1.73,1.5c1.41,0,2.48-0.94,2.48-2.05V28.7z"/>
		<path d="M887.78,36.27c-1.74,0-3.09-0.86-3.5-2.32l1.01-0.4c0.29,1.17,1.25,1.83,2.5,1.83c1.63,0,2.67-0.87,2.67-2.77v-1.22
			c-0.45,0.98-1.46,1.67-2.69,1.67c-2.3,0-3.63-1.92-3.63-4.16c0-2.27,1.33-4.18,3.63-4.18c1.22,0,2.24,0.69,2.69,1.68v-1.52h1.06
			v7.67C891.51,34.99,889.97,36.27,887.78,36.27z M887.91,25.66c-1.68,0-2.71,1.31-2.71,3.23c0,1.91,1.02,3.23,2.71,3.23
			c1.2,0,2.56-0.91,2.56-3.01V28.7C890.47,26.55,889.11,25.66,887.91,25.66z"/>
		<path d="M893.62,29.05c0-2.53,1.5-4.34,3.73-4.34c2.26,0,3.43,1.75,3.43,4.07v0.35h-6.15c0.03,2.03,1.15,3.33,2.77,3.33
			c1.26,0,2.1-0.7,2.35-1.81l0.96,0.3c-0.45,1.5-1.65,2.43-3.31,2.43C895.12,33.39,893.62,31.63,893.62,29.05z M894.67,28.3h5.03
			c-0.03-1.38-0.72-2.66-2.35-2.66C895.95,25.64,894.91,26.65,894.67,28.3z"/>
		<path d="M903.9,33.23h-1.06v-8.36h1.06v1.34c0.45-0.8,1.31-1.5,2.53-1.5c1.2,0,2.02,0.64,2.39,1.63c0.43-0.82,1.41-1.63,2.72-1.63
			c1.71,0,2.71,1.25,2.71,3.03v5.49h-1.06v-5.25c0-1.3-0.54-2.27-1.87-2.27c-1.09,0-2.24,0.96-2.24,2.43v5.09h-1.06v-5.25
			c0-1.3-0.54-2.27-1.87-2.27c-1.07,0-2.24,0.96-2.24,2.43V33.23z"/>
		<path d="M916.24,29.05c0-2.53,1.5-4.34,3.73-4.34c2.26,0,3.43,1.75,3.43,4.07v0.35h-6.15c0.03,2.03,1.15,3.33,2.77,3.33
			c1.26,0,2.1-0.7,2.35-1.81l0.96,0.3c-0.45,1.5-1.65,2.43-3.31,2.43C917.74,33.39,916.24,31.63,916.24,29.05z M917.3,28.3h5.03
			c-0.03-1.38-0.72-2.66-2.35-2.66C918.58,25.64,917.54,26.65,917.3,28.3z"/>
		<path d="M925.47,24.87h1.06v1.34c0.48-0.82,1.38-1.5,2.64-1.5c1.81,0,2.75,1.25,2.75,3.03v5.49h-1.06v-5.25
			c0-1.3-0.56-2.27-1.95-2.27c-1.17,0-2.38,0.93-2.38,2.46v5.06h-1.06V24.87z"/>
		<path d="M934.8,25.79h-1.39v-0.91h1.39v-2.42h1.04v2.42h2.02v0.91h-2.02v5.38c0,0.96,0.43,1.2,1.23,1.2
			c0.35,0,0.64-0.03,1.01-0.13v0.93c-0.38,0.1-0.74,0.14-1.22,0.14c-1.3,0-2.07-0.48-2.07-1.98V25.79z"/>
		<path d="M851.08,46.73c-0.11,1.36-0.56,2.61-1.28,3.6l2.11,2.1h-1.41l-1.36-1.34c-0.96,0.94-2.22,1.5-3.73,1.5
			c-2.05,0-3.68-1.22-3.68-3.11c0-1.6,0.99-2.5,2.51-3.27c-0.74-0.8-1.3-1.63-1.3-2.67c0-1.49,1.1-2.77,2.95-2.77
			c1.79,0,2.78,1.14,2.78,2.59c0,1.42-1.04,2.16-2.86,3.01l3.3,3.27c0.53-0.83,0.86-1.89,0.94-3.07L851.08,46.73z M845.48,51.64
			c1.23,0,2.24-0.45,3.01-1.22l-3.62-3.59c-1.18,0.64-2.02,1.36-2.02,2.56C842.86,50.71,844.04,51.64,845.48,51.64z M845.23,45.77
			l0.03-0.02c1.68-0.75,2.42-1.28,2.42-2.4c0-0.86-0.64-1.73-1.75-1.73c-1.02,0-1.89,0.67-1.89,1.87
			C844.04,44.38,844.52,45.03,845.23,45.77z"/>
		<path d="M857.99,50.94v4.37h-1.06V44.07h1.06v1.49c0.5-0.99,1.5-1.65,2.75-1.65c2.29,0,3.58,1.98,3.58,4.34
			c0,2.37-1.3,4.34-3.58,4.34C859.5,52.59,858.49,51.93,857.99,50.94z M857.98,48.62c0,2.21,1.44,3.04,2.59,3.04
			c1.71,0,2.71-1.44,2.71-3.41s-0.99-3.39-2.71-3.39c-1.15,0-2.59,0.83-2.59,3.07V48.62z"/>
		<path d="M870.43,45.11c-0.22-0.05-0.43-0.06-0.69-0.06c-1.22,0-2.26,1.09-2.26,2.69v4.69h-1.06v-8.36h1.06v1.58
			c0.37-0.91,1.15-1.67,2.34-1.67c0.24,0,0.46,0.03,0.61,0.06V45.11z"/>
		<path d="M875.37,52.59c-2.24,0-3.75-1.76-3.75-4.34s1.5-4.34,3.75-4.34c2.24,0,3.76,1.76,3.76,4.34S877.61,52.59,875.37,52.59z
			 M875.37,51.67c1.62,0,2.69-1.34,2.69-3.42c0-2.07-1.07-3.43-2.69-3.43c-1.62,0-2.69,1.36-2.69,3.43
			C872.68,50.33,873.75,51.67,875.37,51.67z"/>
		<path d="M880.62,48.25c0-2.35,1.3-4.34,3.59-4.34c1.25,0,2.26,0.66,2.75,1.65v-4.63h1.06v11.49h-1.06v-1.49
			c-0.5,0.99-1.5,1.65-2.75,1.65C881.91,52.59,880.62,50.62,880.62,48.25z M884.38,44.86c-1.71,0-2.71,1.42-2.71,3.39
			s0.99,3.41,2.71,3.41c1.15,0,2.59-0.83,2.59-3.04v-0.69C886.97,45.69,885.53,44.86,884.38,44.86z"/>
		<path d="M897.02,52.43h-1.06v-1.34c-0.46,0.82-1.36,1.5-2.62,1.5c-1.79,0-2.77-1.23-2.77-3.01v-5.51h1.06v5.31
			c0,1.3,0.58,2.22,1.97,2.22c1.17,0,2.37-0.91,2.37-2.46v-5.07h1.06V52.43z"/>
		<path d="M902.92,51.66c1.26,0,2-0.8,2.26-1.92l0.96,0.38c-0.37,1.46-1.52,2.47-3.22,2.47c-2.27,0-3.79-1.75-3.79-4.34
			c0-2.58,1.52-4.34,3.79-4.34c1.68,0,2.82,1.01,3.2,2.45l-0.94,0.4c-0.26-1.12-0.99-1.92-2.26-1.92c-1.63,0-2.74,1.34-2.74,3.41
			C900.18,50.33,901.29,51.66,902.92,51.66z"/>
		<path d="M908.33,44.98h-1.39v-0.91h1.39v-2.42h1.04v2.42h2.02v0.91h-2.02v5.38c0,0.96,0.43,1.2,1.23,1.2
			c0.35,0,0.64-0.03,1.01-0.13v0.93c-0.38,0.1-0.74,0.14-1.22,0.14c-1.3,0-2.07-0.48-2.07-1.99V44.98z"/>
		<path d="M913.43,40.93h1.23v1.42h-1.23V40.93z M914.57,52.43h-1.06v-8.36h1.06V52.43z"/>
		<path d="M919.45,52.43l-3.18-8.36h1.12l2.58,7.03l2.58-7.03h1.1l-3.19,8.36H919.45z"/>
		<path d="M925.26,40.93h1.23v1.42h-1.23V40.93z M926.39,52.43h-1.06v-8.36h1.06V52.43z"/>
		<path d="M929.35,44.98h-1.39v-0.91h1.39v-2.42h1.04v2.42h2.02v0.91h-2.02v5.38c0,0.96,0.43,1.2,1.23,1.2
			c0.35,0,0.64-0.03,1.01-0.13v0.93c-0.38,0.1-0.74,0.14-1.22,0.14c-1.3,0-2.07-0.48-2.07-1.99V44.98z"/>
		<path d="M934.9,55.44c-0.32,0-0.51-0.03-0.77-0.1V54.4c0.29,0.1,0.46,0.11,0.72,0.11c0.61,0,0.96-0.27,1.34-1.22l0.48-1.15
			l-3.14-8.07h1.12l2.58,6.82l2.58-6.82h1.1l-3.7,9.38C936.73,54.7,936.15,55.44,934.9,55.44z"/>
	</g>
</g>
<g>
	<g>
		<path d="M996.4,44.53l2.66,9.83l2.66-9.83h1.12l-3.19,11.49h-1.1l-2.66-9.62l-2.66,9.62h-1.1l-3.18-11.49h1.14l2.66,9.83
			l2.66-9.83H996.4z"/>
		<path d="M1003.93,51.85c0-2.53,1.5-4.34,3.73-4.34c2.26,0,3.43,1.75,3.43,4.07v0.35h-6.15c0.03,2.03,1.15,3.33,2.77,3.33
			c1.26,0,2.1-0.7,2.35-1.81l0.96,0.3c-0.45,1.5-1.65,2.43-3.31,2.43C1005.44,56.18,1003.93,54.42,1003.93,51.85z M1004.99,51.09
			h5.03c-0.03-1.38-0.72-2.66-2.35-2.66C1006.27,48.44,1005.23,49.45,1004.99,51.09z"/>
		<path d="M1014.22,56.02h-1.06V44.53h1.06V56.02z"/>
		<path d="M1017.96,56.02h-1.06V44.53h1.06V56.02z"/>
		<path d="M1020.25,50.87h4.31v0.96h-4.31V50.87z"/>
		<path d="M1027.9,54.54v1.49h-1.06V44.53h1.06v4.63c0.5-0.99,1.5-1.65,2.75-1.65c2.29,0,3.58,1.99,3.58,4.34
			c0,2.37-1.3,4.34-3.58,4.34C1029.4,56.18,1028.4,55.53,1027.9,54.54z M1027.88,52.21c0,2.21,1.44,3.04,2.59,3.04
			c1.71,0,2.71-1.44,2.71-3.41s-0.99-3.39-2.71-3.39c-1.15,0-2.59,0.83-2.59,3.07V52.21z"/>
		<path d="M1035.74,51.85c0-2.53,1.5-4.34,3.73-4.34c2.26,0,3.43,1.75,3.43,4.07v0.35h-6.15c0.03,2.03,1.15,3.33,2.77,3.33
			c1.26,0,2.1-0.7,2.35-1.81l0.96,0.3c-0.45,1.5-1.65,2.43-3.31,2.43C1037.24,56.18,1035.74,54.42,1035.74,51.85z M1036.79,51.09
			h5.03c-0.03-1.38-0.72-2.66-2.35-2.66C1038.08,48.44,1037.04,49.45,1036.79,51.09z"/>
		<path d="M1044.89,44.53h1.23v1.42h-1.23V44.53z M1046.03,56.02h-1.06v-8.36h1.06V56.02z"/>
		<path d="M1048.71,47.67h1.06v1.34c0.48-0.82,1.38-1.5,2.64-1.5c1.81,0,2.75,1.25,2.75,3.03v5.49h-1.06v-5.25
			c0-1.3-0.56-2.27-1.95-2.27c-1.17,0-2.38,0.93-2.38,2.46v5.06h-1.06V47.67z"/>
		<path d="M1060.83,59.07c-1.74,0-3.09-0.86-3.5-2.32l1.01-0.4c0.29,1.17,1.25,1.83,2.5,1.83c1.63,0,2.67-0.87,2.67-2.77v-1.22
			c-0.45,0.98-1.46,1.67-2.69,1.67c-2.3,0-3.63-1.92-3.63-4.16c0-2.27,1.33-4.18,3.63-4.18c1.22,0,2.24,0.69,2.69,1.68v-1.52h1.06
			v7.67C1064.56,57.79,1063.02,59.07,1060.83,59.07z M1060.96,48.45c-1.68,0-2.71,1.31-2.71,3.23c0,1.91,1.02,3.23,2.71,3.23
			c1.2,0,2.56-0.91,2.56-3.01V51.5C1063.52,49.35,1062.16,48.45,1060.96,48.45z"/>
	</g>
</g>
<g>
	<rect x="278.7" y="122.67" class="st0" width="136.12" height="53.98"/>
	<path class="st1" d="M415.32,177.15H278.2v-54.98h137.12V177.15z M279.2,176.15h135.12v-52.98H279.2V176.15z"/>
</g>
<g class="st2">
	<rect x="550.93" y="68.69" class="st3" width="136.12" height="53.98"/>
	<path class="st1" d="M687.55,123.17H550.43V68.19h137.12V123.17z M551.43,122.17h135.12V69.19H551.43V122.17z"/>
</g>
<g class="st2">
	<rect x="550.93" y="122.67" class="st3" width="136.12" height="53.98"/>
	<path class="st1" d="M687.55,177.15H550.43v-54.98h137.12V177.15z M551.43,176.15h135.12v-52.98H551.43V176.15z"/>
</g>
<g class="st2">
	<rect x="550.93" y="176.65" class="st3" width="136.12" height="53.98"/>
	<path class="st1" d="M687.55,231.13H550.43v-54.98h137.12V231.13z M551.43,230.13h135.12v-52.98H551.43V230.13z"/>
</g>
<g>
	<rect x="550.93" y="230.63" class="st4" width="136.12" height="53.98"/>
	<path class="st1" d="M687.55,285.11H550.43v-54.98h137.12V285.11z M551.43,284.11h135.12v-52.98H551.43V284.11z"/>
</g>
<g class="st2">
	<rect x="686.96" y="68.69" class="st3" width="136.12" height="53.98"/>
	<path class="st1" d="M823.58,123.17H686.46V68.19h137.12V123.17z M687.46,122.17h135.12V69.19H687.46V122.17z"/>
</g>
<g class="st2">
	<rect x="686.96" y="122.67" class="st3" width="136.12" height="53.98"/>
	<path class="st1" d="M823.58,177.15H686.46v-54.98h137.12V177.15z M687.46,176.15h135.12v-52.98H687.46V176.15z"/>
</g>
<g class="st2">
	<rect x="686.96" y="176.65" class="st3" width="136.12" height="53.98"/>
	<path class="st1" d="M823.58,231.13H686.46v-54.98h137.12V231.13z M687.46,230.13h135.12v-52.98H687.46V230.13z"/>
</g>
<g class="st2">
	<rect x="686.96" y="230.63" class="st3" width="136.12" height="53.98"/>
	<path class="st1" d="M823.58,285.11H686.46v-54.98h137.12V285.11z M687.46,284.11h135.12v-52.98H687.46V284.11z"/>
</g>
<g class="st2">
	<rect x="686.96" y="284.61" class="st3" width="136.12" height="53.98"/>
	<path class="st1" d="M823.58,339.09H686.46v-54.98h137.12V339.09z M687.46,338.09h135.12v-52.98H687.46V338.09z"/>
</g>
<g class="st2">
	<rect x="823.08" y="68.69" class="st3" width="136.12" height="53.98"/>
	<path class="st1" d="M959.69,123.17H822.58V68.19h137.12V123.17z M823.58,122.17h135.12V69.19H823.58V122.17z"/>
</g>
<g class="st2">
	<rect x="823.08" y="122.67" class="st3" width="136.12" height="53.98"/>
	<path class="st1" d="M959.69,177.15H822.58v-54.98h137.12V177.15z M823.58,176.15h135.12v-52.98H823.58V176.15z"/>
</g>
<g class="st2">
	<rect x="823.08" y="176.65" class="st3" width="136.12" height="53.98"/>
	<path class="st1" d="M959.69,231.13H822.58v-54.98h137.12V231.13z M823.58,230.13h135.12v-52.98H823.58V230.13z"/>
</g>
<g class="st2">
	<rect x="823.08" y="230.63" class="st3" width="136.12" height="53.98"/>
	<path class="st1" d="M959.69,285.11H822.58v-54.98h137.12V285.11z M823.58,284.11h135.12v-52.98H823.58V284.11z"/>
</g>
<g class="st2">
	<rect x="823.08" y="284.61" class="st3" width="136.12" height="53.98"/>
	<path class="st1" d="M959.69,339.09H822.58v-54.98h137.12V339.09z M823.58,338.09h135.12v-52.98H823.58V338.09z"/>
</g>
<g>
	<rect x="959.19" y="68.69" class="st5" width="136.12" height="53.98"/>
	<path class="st1" d="M1095.81,123.17H958.69V68.19h137.12V123.17z M959.69,122.17h135.12V69.19H959.69V122.17z"/>
</g>
<g>
	<rect x="142.59" y="122.67" class="st6" width="136.12" height="53.98"/>
	<path class="st1" d="M279.21,177.15H142.09v-54.98h137.12V177.15z M143.09,176.15h135.12v-52.98H143.09V176.15z"/>
</g>
<g>
	<rect x="142.59" y="230.63" class="st4" width="136.12" height="53.98"/>
	<path class="st1" d="M279.21,285.11H142.09v-54.98h137.12V285.11z M143.09,284.11h135.12v-52.98H143.09V284.11z"/>
</g>
<g>
	<rect x="142.59" y="284.61" class="st4" width="136.12" height="53.98"/>
	<path class="st1" d="M279.21,339.09H142.09v-54.98h137.12V339.09z M143.09,338.09h135.12v-52.98H143.09V338.09z"/>
</g>
<g>
	<rect x="278.7" y="68.69" class="st4" width="136.12" height="53.98"/>
	<path class="st1" d="M415.32,123.17H278.2V68.19h137.12V123.17z M279.2,122.17h135.12V69.19H279.2V122.17z"/>
</g>
<g>
	<rect x="414.82" y="68.69" class="st6" width="136.12" height="53.98"/>
	<path class="st1" d="M551.43,123.17H414.32V68.19h137.12V123.17z M415.32,122.17h135.12V69.19H415.32V122.17z"/>
</g>
<g>
	<rect x="414.82" y="122.67" class="st6" width="136.12" height="53.98"/>
	<path class="st1" d="M551.43,177.15H414.32v-54.98h137.12V177.15z M415.32,176.15h135.12v-52.98H415.32V176.15z"/>
</g>
<g>
	<rect x="414.82" y="176.65" class="st6" width="136.12" height="53.98"/>
	<path class="st1" d="M551.43,231.13H414.32v-54.98h137.12V231.13z M415.32,230.13h135.12v-52.98H415.32V230.13z"/>
</g>
<g>
	<rect x="414.82" y="230.63" class="st6" width="136.12" height="53.98"/>
	<path class="st1" d="M551.43,285.11H414.32v-54.98h137.12V285.11z M415.32,284.11h135.12v-52.98H415.32V284.11z"/>
</g>
<g>
	<rect x="414.82" y="284.61" class="st6" width="136.12" height="53.98"/>
	<path class="st1" d="M551.43,339.09H414.32v-54.98h137.12V339.09z M415.32,338.09h135.12v-52.98H415.32V338.09z"/>
</g>
<g>
	<rect x="550.93" y="284.61" class="st6" width="136.12" height="53.98"/>
	<path class="st1" d="M687.55,339.09H550.43v-54.98h137.12V339.09z M551.43,338.09h135.12v-52.98H551.43V338.09z"/>
</g>
<g>
	<rect x="959.19" y="230.63" class="st6" width="136.12" height="53.98"/>
	<path class="st1" d="M1095.81,285.11H958.69v-54.98h137.12V285.11z M959.69,284.11h135.12v-52.98H959.69V284.11z"/>
</g>
<g>
	<rect x="142.59" y="68.69" class="st0" width="136.12" height="53.98"/>
	<path class="st1" d="M279.21,123.17H142.09V68.19h137.12V123.17z M143.09,122.17h135.12V69.19H143.09V122.17z"/>
</g>
<g>
	<rect x="142.59" y="176.65" class="st0" width="136.12" height="53.98"/>
	<path class="st1" d="M279.21,231.13H142.09v-54.98h137.12V231.13z M143.09,230.13h135.12v-52.98H143.09V230.13z"/>
</g>
<g>
	<rect x="278.7" y="176.65" class="st4" width="136.12" height="53.98"/>
	<path class="st1" d="M415.32,231.13H278.2v-54.98h137.12V231.13z M279.2,230.13h135.12v-52.98H279.2V230.13z"/>
</g>
<g>
	<rect x="278.7" y="230.63" class="st0" width="136.12" height="53.98"/>
	<path class="st1" d="M415.32,285.11H278.2v-54.98h137.12V285.11z M279.2,284.11h135.12v-52.98H279.2V284.11z"/>
</g>
<g>
	<rect x="278.7" y="284.61" class="st4" width="136.12" height="53.98"/>
	<path class="st1" d="M415.32,339.09H278.2v-54.98h137.12V339.09z M279.2,338.09h135.12v-52.98H279.2V338.09z"/>
</g>
<g>
	<rect x="959.19" y="122.67" class="st5" width="136.12" height="53.98"/>
	<path class="st1" d="M1095.81,177.15H958.69v-54.98h137.12V177.15z M959.69,176.15h135.12v-52.98H959.69V176.15z"/>
</g>
<g>
	<rect x="959.19" y="176.65" class="st0" width="136.12" height="53.98"/>
	<path class="st1" d="M1095.81,231.13H958.69v-54.98h137.12V231.13z M959.69,230.13h135.12v-52.98H959.69V230.13z"/>
</g>
<g>
	<rect x="959.19" y="284.61" class="st0" width="136.12" height="53.98"/>
	<path class="st1" d="M1095.81,339.09H958.69v-54.98h137.12V339.09z M959.69,338.09h135.12v-52.98H959.69V338.09z"/>
</g>
<g>
	<g class="st7">
		<g>
			<path d="M480.15,388.12h1.12v10.52h6v0.98h-7.12V388.12z"/>
			<path d="M492.05,399.77c-2.24,0-3.75-1.76-3.75-4.34s1.5-4.34,3.75-4.34c2.24,0,3.76,1.76,3.76,4.34S494.29,399.77,492.05,399.77
				z M492.05,398.86c1.62,0,2.69-1.34,2.69-3.43c0-2.06-1.07-3.42-2.69-3.42c-1.62,0-2.69,1.36-2.69,3.42
				C489.36,397.52,490.43,398.86,492.05,398.86z"/>
			<path d="M502.79,391.26l1.91,6.79l1.97-6.79h1.06l-2.56,8.36h-0.93l-1.91-6.77l-1.94,6.77h-0.93l-2.56-8.36h1.09l1.99,6.77
				l1.9-6.77H502.79z"/>
		</g>
	</g>
	<g class="st7">
		<g>
			<path d="M735.54,388.12v11.49h-1.12v-5.46h-6.69v5.46h-1.12v-11.49h1.12v5.06h6.69v-5.06H735.54z"/>
			<path d="M738.22,388.12h1.23v1.42h-1.23V388.12z M739.36,399.61h-1.06v-8.36h1.06V399.61z"/>
			<path d="M745.1,402.65c-1.74,0-3.09-0.86-3.5-2.32l1.01-0.4c0.29,1.17,1.25,1.83,2.5,1.83c1.63,0,2.67-0.87,2.67-2.77v-1.22
				c-0.45,0.98-1.46,1.67-2.69,1.67c-2.3,0-3.63-1.92-3.63-4.16c0-2.27,1.33-4.18,3.63-4.18c1.22,0,2.24,0.69,2.69,1.68v-1.52h1.06
				v7.67C748.83,401.37,747.3,402.65,745.1,402.65z M745.23,392.04c-1.68,0-2.71,1.31-2.71,3.23c0,1.91,1.02,3.23,2.71,3.23
				c1.2,0,2.56-0.91,2.56-3.01v-0.42C747.79,392.94,746.43,392.04,745.23,392.04z"/>
			<path d="M751.53,388.12h1.06v4.48c0.48-0.82,1.38-1.5,2.64-1.5c1.81,0,2.75,1.25,2.75,3.03v5.49h-1.06v-5.25
				c0-1.3-0.56-2.27-1.95-2.27c-1.17,0-2.38,0.93-2.38,2.46v5.06h-1.06V388.12z"/>
		</g>
	</g>
	<rect x="521.44" y="387.11" class="st8" width="32.21" height="14.32"/>
	<rect x="553.03" y="387.11" class="st9" width="32.21" height="14.32"/>
	<rect x="585.65" y="387.11" class="st6" width="32.21" height="14.32"/>
	<rect x="617.85" y="387.11" class="st4" width="32.21" height="14.32"/>
	<rect x="650.06" y="387.11" class="st0" width="32.21" height="14.32"/>
	<rect x="682.06" y="387.11" class="st5" width="32.21" height="14.32"/>
</g>
</svg>
