<?xml version="1.0" encoding="utf-8"?>
<!-- Generator: Adobe Illustrator 25.4.1, SVG Export Plug-In . SVG Version: 6.00 Build 0)  -->
<svg version="1.1" id="Layer_1" xmlns="http://www.w3.org/2000/svg" xmlns:xlink="http://www.w3.org/1999/xlink" x="0px" y="0px"
	 viewBox="0 0 507 453" style="enable-background:new 0 0 507 453;" xml:space="preserve">
<style type="text/css">
	.st0{fill:#FFC700;}
	.st1{fill:#231F20;}
	.st2{fill:#FFDB59;}
	.st3{fill:#FFE394;}
	.st4{fill:#E0C685;}
	.st5{opacity:8.000000e-02;}
	.st6{opacity:0.5;fill:#FFE394;}
	.st7{opacity:0.3;fill:#FFE394;}
</style>
<g>
	<g>
		<path d="M139.8,11.3c0.8,1.2,2,2,3.3,2c1.3,0,2.3-0.6,2.3-1.7c0-1.2-1.2-1.3-2.9-1.7c-1.7-0.4-3.6-0.9-3.6-3.2
			c0-2.1,1.8-3.5,4.1-3.5c2,0,3.5,0.9,4.3,2.1l-1.5,1.3c-0.6-1-1.5-1.7-2.8-1.7c-1.2,0-2.1,0.6-2.1,1.5c0,1,0.9,1.2,2.4,1.6
			c1.9,0.4,4.1,0.8,4.1,3.3c0,2.3-2,3.6-4.4,3.6c-2,0-3.9-0.9-4.8-2.4L139.8,11.3z"/>
		<path d="M148.8,3.3h1.9v4c0.5-0.6,1.2-1.1,2.3-1.1c1.8,0,2.8,1.2,2.8,3v5.5h-1.9v-5c0-1-0.4-1.8-1.5-1.8c-0.9,0-1.7,0.6-1.7,1.8
			v4.9h-1.9V3.3z"/>
		<path d="M161.3,15c-2.4,0-4-1.8-4-4.4c0-2.6,1.7-4.4,4-4.4c2.4,0,4,1.8,4,4.4C165.4,13.2,163.7,15,161.3,15z M161.3,13.4
			c1.3,0,2.1-1,2.1-2.8c0-1.7-0.8-2.8-2.1-2.8c-1.3,0-2.1,1-2.1,2.8C159.2,12.3,160,13.4,161.3,13.4z"/>
		<path d="M171.6,8.3c-0.2,0-0.4,0-0.7,0c-1.2,0-2.1,0.8-2.1,2.1v4.4h-1.9V6.4h1.9v1.2c0.4-0.8,1.2-1.3,2.3-1.3c0.2,0,0.4,0,0.5,0
			V8.3z"/>
		<path d="M173.1,8H172V6.4h1.2V3.9h1.9v2.5h1.8V8H175v4.4c0,0.8,0.4,0.8,1.1,0.8c0.3,0,0.5,0,0.8,0v1.6c-0.4,0.1-0.8,0.1-1.3,0.1
			c-1.6,0-2.5-0.5-2.5-2.2V8z"/>
		<path d="M181.8,8h-1.2V6.4h1.2V3.9h1.9v2.5h1.8V8h-1.8v4.4c0,0.8,0.4,0.8,1.1,0.8c0.3,0,0.5,0,0.8,0v1.6c-0.4,0.1-0.8,0.1-1.3,0.1
			c-1.6,0-2.5-0.5-2.5-2.2V8z"/>
		<path d="M186.5,10.6c0-2.5,1.7-4.4,4-4.4c2.4,0,3.7,1.8,3.7,4.1V11h-5.9c0.1,1.4,1,2.3,2.2,2.3c0.9,0,1.7-0.5,2-1.3l1.6,0.6
			c-0.6,1.5-1.9,2.4-3.6,2.4C188.2,15,186.5,13.2,186.5,10.6z M188.5,9.6h3.9c0-0.9-0.6-1.7-1.8-1.7C189.5,7.9,188.8,8.4,188.5,9.6z
			"/>
		<path d="M200.5,8.3c-0.2,0-0.4,0-0.7,0c-1.2,0-2.1,0.8-2.1,2.1v4.4h-1.9V6.4h1.9v1.2c0.4-0.8,1.2-1.3,2.3-1.3c0.2,0,0.4,0,0.5,0
			V8.3z"/>
		<path d="M203.7,14.8h-1.9V6.4h1.9v0.9c0.5-0.6,1.2-1.1,2.3-1.1c1,0,1.8,0.4,2.2,1.2c0.5-0.5,1.3-1.2,2.6-1.2c1.7,0,2.8,1.2,2.8,3
			v5.5h-1.9v-5c0-1-0.4-1.8-1.4-1.8c-0.8,0-1.7,0.6-1.7,1.8v4.9h-1.9v-5c0-1-0.4-1.8-1.4-1.8c-0.8,0-1.7,0.6-1.7,1.8V14.8z"/>
		<path d="M218.9,3.3h2v2h-2V3.3z M220.9,14.8H219V6.4h1.9V14.8z"/>
		<path d="M224.8,14.8h-1.9V6.4h1.9v0.9c0.5-0.6,1.2-1.1,2.3-1.1c1,0,1.8,0.4,2.2,1.2c0.5-0.5,1.3-1.2,2.6-1.2c1.7,0,2.8,1.2,2.8,3
			v5.5h-1.9v-5c0-1-0.4-1.8-1.4-1.8c-0.8,0-1.7,0.6-1.7,1.8v4.9h-1.9v-5c0-1-0.4-1.8-1.4-1.8c-0.8,0-1.7,0.6-1.7,1.8V14.8z"/>
		<path d="M238.7,13.9v3.8h-1.9V6.4h1.9v0.9c0.5-0.6,1.3-1.1,2.4-1.1c2.4,0,3.7,2,3.7,4.4c0,2.4-1.3,4.4-3.7,4.4
			C240,15,239.2,14.5,238.7,13.9z M238.6,10.9c0,1.6,0.9,2.4,2.1,2.4c1.4,0,2.1-1.1,2.1-2.7s-0.8-2.7-2.1-2.7
			c-1.2,0-2.1,0.9-2.1,2.4V10.9z"/>
		<path d="M245.7,12.5c0-1.6,1.2-2.3,2.8-2.6l2.3-0.5V9.2c0-0.8-0.4-1.3-1.4-1.3c-0.9,0-1.4,0.4-1.6,1.2l-1.8-0.4
			c0.4-1.4,1.6-2.5,3.5-2.5c2,0,3.2,1,3.2,2.9v3.6c0,0.5,0.2,0.6,0.7,0.6v1.5c-1.4,0.2-2.1-0.1-2.4-0.8c-0.5,0.6-1.4,0.9-2.5,0.9
			C246.9,14.9,245.7,14,245.7,12.5z M250.8,10.8l-1.8,0.4c-0.8,0.2-1.4,0.4-1.4,1.2c0,0.7,0.5,1,1.2,1c1,0,2-0.5,2-1.6V10.8z"/>
		<path d="M258.4,13.3c1,0,1.6-0.7,1.9-1.6l1.6,0.8c-0.4,1.4-1.7,2.4-3.5,2.4c-2.4,0-4.1-1.8-4.1-4.4c0-2.6,1.7-4.4,4.1-4.4
			c1.8,0,3.1,1,3.5,2.4l-1.6,0.9c-0.2-0.9-0.9-1.6-1.9-1.6c-1.3,0-2.2,1-2.2,2.7C256.2,12.3,257.1,13.3,258.4,13.3z"/>
		<path d="M263.2,8h-1.2V6.4h1.2V3.9h1.9v2.5h1.8V8h-1.8v4.4c0,0.8,0.4,0.8,1.1,0.8c0.3,0,0.5,0,0.8,0v1.6c-0.4,0.1-0.8,0.1-1.3,0.1
			c-1.6,0-2.5-0.5-2.5-2.2V8z"/>
		<path d="M269,12.1c0.5,0.8,1.5,1.4,2.4,1.4c0.8,0,1.6-0.3,1.6-1c0-0.7-0.7-0.8-2-1.1c-1.3-0.3-2.8-0.6-2.8-2.4
			c0-1.5,1.3-2.7,3.3-2.7c1.5,0,2.8,0.7,3.4,1.6L273.5,9c-0.5-0.8-1.3-1.2-2.2-1.2c-0.8,0-1.3,0.4-1.3,0.9c0,0.6,0.6,0.7,1.7,0.9
			c1.4,0.3,3.2,0.6,3.2,2.5c0,1.7-1.6,2.8-3.5,2.8c-1.6,0-3.1-0.6-3.9-1.8L269,12.1z"/>
		<path d="M143.1,39.8H142c-1.4-1.5-2.7-3.8-2.7-6.7s1.3-5.2,2.7-6.7h1.1c-1.5,1.6-2.6,4-2.6,6.7S141.6,38.2,143.1,39.8z"/>
		<path d="M149.5,29.8l1.9,6.8l2-6.8h1.1l-2.6,8.4H151l-1.9-6.8l-1.9,6.8h-0.9l-2.6-8.4h1.1l2,6.8l1.9-6.8H149.5z"/>
		<path d="M156.1,26.7h1.2v1.4h-1.2V26.7z M157.2,38.2h-1.1v-8.4h1.1V38.2z"/>
		<path d="M160.2,30.8h-1.4v-0.9h1.4v-2.4h1v2.4h2v0.9h-2v5.4c0,1,0.4,1.2,1.2,1.2c0.4,0,0.6,0,1-0.1v0.9c-0.4,0.1-0.7,0.1-1.2,0.1
			c-1.3,0-2.1-0.5-2.1-2V30.8z"/>
		<path d="M165.3,26.7h1.1v4.5c0.5-0.8,1.4-1.5,2.6-1.5c1.8,0,2.8,1.2,2.8,3v5.5h-1.1V33c0-1.3-0.6-2.3-2-2.3
			c-1.2,0-2.4,0.9-2.4,2.5v5.1h-1.1V26.7z"/>
		<path d="M174.3,26.7h1.2v1.4h-1.2V26.7z M175.5,38.2h-1.1v-8.4h1.1V38.2z"/>
		<path d="M178.1,29.8h1.1v1.3c0.5-0.8,1.4-1.5,2.6-1.5c1.8,0,2.8,1.2,2.8,3v5.5h-1.1V33c0-1.3-0.6-2.3-2-2.3
			c-1.2,0-2.4,0.9-2.4,2.5v5.1h-1.1V29.8z"/>
		<path d="M193.6,34.1c1.6-1.3,2.6-2.4,2.6-4c0-1.6-1-2.6-2.6-2.6c-1.5,0-2.6,1.1-2.6,2.6c0,0.5,0.1,0.9,0.3,1.4h-1.1
			c-0.2-0.5-0.3-0.9-0.3-1.4c0-2,1.6-3.5,3.7-3.5c2.3,0,3.7,1.4,3.7,3.5c0,1.9-1.2,3.2-2.9,4.6l-3.1,2.6h6.3v1h-7.8v-0.9L193.6,34.1
			z"/>
		<path d="M207.8,29.8l1.9,6.8l2-6.8h1.1l-2.6,8.4h-0.9l-1.9-6.8l-1.9,6.8h-0.9l-2.6-8.4h1.1l2,6.8l1.9-6.8H207.8z"/>
		<path d="M213.9,34c0-2.5,1.5-4.3,3.7-4.3c2.3,0,3.4,1.7,3.4,4.1v0.4h-6.1c0,2,1.2,3.3,2.8,3.3c1.3,0,2.1-0.7,2.4-1.8l1,0.3
			c-0.4,1.5-1.6,2.4-3.3,2.4C215.4,38.4,213.9,36.6,213.9,34z M214.9,33.3h5c0-1.4-0.7-2.7-2.4-2.7
			C216.2,30.6,215.2,31.6,214.9,33.3z"/>
		<path d="M222.5,34c0-2.5,1.5-4.3,3.7-4.3c2.3,0,3.4,1.7,3.4,4.1v0.4h-6.1c0,2,1.2,3.3,2.8,3.3c1.3,0,2.1-0.7,2.4-1.8l1,0.3
			c-0.4,1.5-1.6,2.4-3.3,2.4C224,38.4,222.5,36.6,222.5,34z M223.6,33.3h5c0-1.4-0.7-2.7-2.4-2.7C224.8,30.6,223.8,31.6,223.6,33.3z
			"/>
		<path d="M232.8,34.1l4.1-4.2h1.4l-3.4,3.3l3.6,5h-1.2l-3.1-4.3l-1.4,1.4v2.9h-1.1V26.7h1.1V34.1z"/>
		<path d="M240,35.7c0.4,1.1,1.5,1.8,2.7,1.8c1.1,0,2.1-0.5,2.1-1.6c0-1-0.9-1.2-2.3-1.5c-1.4-0.3-2.8-0.6-2.8-2.3
			c0-1.4,1.3-2.4,2.9-2.4c1.5,0,2.7,0.8,3.1,1.9l-0.8,0.5c-0.4-0.9-1.2-1.5-2.3-1.5c-1.1,0-1.8,0.6-1.8,1.5c0,0.9,0.8,1.1,2.1,1.4
			c1.5,0.4,3,0.6,3,2.4c0,1.5-1.4,2.5-3.1,2.5c-1.5,0-3-0.7-3.5-2.1L240,35.7z"/>
		<path d="M246.6,26.4h1.1c1.4,1.5,2.7,3.8,2.7,6.7s-1.3,5.2-2.7,6.7h-1.1c1.5-1.6,2.6-4,2.6-6.7S248.1,28,246.6,26.4z"/>
	</g>
</g>
<g>
	<g>
		<path d="M313.5,3.3h2V13h5.4v1.8h-7.5V3.3z"/>
		<path d="M325.7,15c-2.4,0-4-1.8-4-4.4c0-2.6,1.7-4.4,4-4.4c2.4,0,4,1.8,4,4.4C329.8,13.2,328.1,15,325.7,15z M325.7,13.4
			c1.3,0,2.1-1,2.1-2.8c0-1.7-0.8-2.8-2.1-2.8c-1.3,0-2.1,1-2.1,2.8C323.6,12.3,324.4,13.4,325.7,13.4z"/>
		<path d="M331.3,6.4h1.9v0.9c0.5-0.6,1.2-1.1,2.3-1.1c1.8,0,2.8,1.2,2.8,3v5.5h-1.9v-5c0-1-0.4-1.8-1.5-1.8c-0.9,0-1.7,0.6-1.7,1.8
			v4.9h-1.9V6.4z"/>
		<path d="M343.7,17.9c-1.9,0-3.3-0.8-3.8-2.4l1.8-0.6c0.3,0.9,1,1.5,2,1.5c1.3,0,2.2-0.6,2.2-2.2v-0.6c-0.4,0.6-1.3,1.1-2.4,1.1
			c-2.3,0-3.7-1.9-3.7-4.2c0-2.3,1.4-4.2,3.7-4.2c1.1,0,1.9,0.5,2.4,1.1V6.4h1.9V14C347.8,16.4,346.1,17.9,343.7,17.9z M343.8,7.9
			c-1.3,0-2.1,0.9-2.1,2.5c0,1.6,0.8,2.5,2.1,2.5c1.2,0,2-0.9,2-2.4v-0.2C345.9,8.8,345,7.9,343.8,7.9z"/>
		<path d="M353.3,8h-1.2V6.4h1.2V3.9h1.9v2.5h1.8V8h-1.8v4.4c0,0.8,0.4,0.8,1.1,0.8c0.3,0,0.5,0,0.8,0v1.6c-0.4,0.1-0.8,0.1-1.3,0.1
			c-1.6,0-2.5-0.5-2.5-2.2V8z"/>
		<path d="M358,10.6c0-2.5,1.7-4.4,4-4.4c2.4,0,3.7,1.8,3.7,4.1V11h-5.9c0.1,1.4,1,2.3,2.2,2.3c0.9,0,1.7-0.5,2-1.3l1.6,0.6
			c-0.6,1.5-1.9,2.4-3.6,2.4C359.6,15,358,13.2,358,10.6z M359.9,9.6h3.9c0-0.9-0.6-1.7-1.8-1.7C361,7.9,360.2,8.4,359.9,9.6z"/>
		<path d="M371.9,8.3c-0.2,0-0.4,0-0.7,0c-1.2,0-2.1,0.8-2.1,2.1v4.4h-1.9V6.4h1.9v1.2c0.4-0.8,1.2-1.3,2.3-1.3c0.2,0,0.4,0,0.5,0
			V8.3z"/>
		<path d="M375.1,14.8h-1.9V6.4h1.9v0.9c0.5-0.6,1.2-1.1,2.3-1.1c1,0,1.8,0.4,2.2,1.2c0.5-0.5,1.3-1.2,2.6-1.2c1.7,0,2.8,1.2,2.8,3
			v5.5h-1.9v-5c0-1-0.4-1.8-1.4-1.8c-0.8,0-1.7,0.6-1.7,1.8v4.9h-1.9v-5c0-1-0.4-1.8-1.4-1.8c-0.8,0-1.7,0.6-1.7,1.8V14.8z"/>
		<path d="M390.3,3.3h2v2h-2V3.3z M392.3,14.8h-1.9V6.4h1.9V14.8z"/>
		<path d="M396.2,14.8h-1.9V6.4h1.9v0.9c0.5-0.6,1.2-1.1,2.3-1.1c1,0,1.8,0.4,2.2,1.2c0.5-0.5,1.3-1.2,2.6-1.2c1.7,0,2.8,1.2,2.8,3
			v5.5h-1.9v-5c0-1-0.4-1.8-1.4-1.8c-0.8,0-1.7,0.6-1.7,1.8v4.9h-1.9v-5c0-1-0.4-1.8-1.4-1.8c-0.8,0-1.7,0.6-1.7,1.8V14.8z"/>
		<path d="M410.1,13.9v3.8h-1.9V6.4h1.9v0.9c0.5-0.6,1.3-1.1,2.4-1.1c2.4,0,3.7,2,3.7,4.4c0,2.4-1.3,4.4-3.7,4.4
			C411.4,15,410.6,14.5,410.1,13.9z M410,10.9c0,1.6,0.9,2.4,2.1,2.4c1.4,0,2.1-1.1,2.1-2.7s-0.8-2.7-2.1-2.7
			c-1.2,0-2.1,0.9-2.1,2.4V10.9z"/>
		<path d="M417.1,12.5c0-1.6,1.2-2.3,2.8-2.6l2.3-0.5V9.2c0-0.8-0.4-1.3-1.4-1.3c-0.9,0-1.4,0.4-1.6,1.2l-1.8-0.4
			c0.4-1.4,1.6-2.5,3.5-2.5c2,0,3.2,1,3.2,2.9v3.6c0,0.5,0.2,0.6,0.7,0.6v1.5c-1.4,0.2-2.1-0.1-2.4-0.8c-0.5,0.6-1.4,0.9-2.5,0.9
			C418.3,14.9,417.1,14,417.1,12.5z M422.2,10.8l-1.8,0.4c-0.8,0.2-1.4,0.4-1.4,1.2c0,0.7,0.5,1,1.2,1c1,0,2-0.5,2-1.6V10.8z"/>
		<path d="M429.8,13.3c1,0,1.6-0.7,1.9-1.6l1.6,0.8c-0.4,1.4-1.7,2.4-3.5,2.4c-2.4,0-4.1-1.8-4.1-4.4c0-2.6,1.7-4.4,4.1-4.4
			c1.8,0,3.1,1,3.5,2.4l-1.6,0.9c-0.2-0.9-0.9-1.6-1.9-1.6c-1.3,0-2.2,1-2.2,2.7C427.6,12.3,428.5,13.3,429.8,13.3z"/>
		<path d="M434.7,8h-1.2V6.4h1.2V3.9h1.9v2.5h1.8V8h-1.8v4.4c0,0.8,0.4,0.8,1.1,0.8c0.3,0,0.5,0,0.8,0v1.6c-0.4,0.1-0.8,0.1-1.3,0.1
			c-1.6,0-2.5-0.5-2.5-2.2V8z"/>
		<path d="M440.5,12.1c0.5,0.8,1.5,1.4,2.4,1.4c0.8,0,1.6-0.3,1.6-1c0-0.7-0.7-0.8-2-1.1c-1.3-0.3-2.8-0.6-2.8-2.4
			c0-1.5,1.3-2.7,3.3-2.7c1.5,0,2.8,0.7,3.4,1.6L445,9c-0.5-0.8-1.3-1.2-2.2-1.2c-0.8,0-1.3,0.4-1.3,0.9c0,0.6,0.6,0.7,1.7,0.9
			c1.4,0.3,3.2,0.6,3.2,2.5c0,1.7-1.6,2.8-3.5,2.8c-1.6,0-3.1-0.6-3.9-1.8L440.5,12.1z"/>
		<path d="M317.1,39.8H316c-1.4-1.5-2.7-3.8-2.7-6.7s1.3-5.2,2.7-6.7h1.1c-1.5,1.6-2.6,4-2.6,6.7S315.7,38.2,317.1,39.8z"/>
		<path d="M323.6,29.8l1.9,6.8l2-6.8h1.1l-2.6,8.4H325l-1.9-6.8l-1.9,6.8h-0.9l-2.6-8.4h1.1l2,6.8l1.9-6.8H323.6z"/>
		<path d="M330.1,26.7h1.2v1.4h-1.2V26.7z M331.3,38.2h-1.1v-8.4h1.1V38.2z"/>
		<path d="M334.2,30.8h-1.4v-0.9h1.4v-2.4h1v2.4h2v0.9h-2v5.4c0,1,0.4,1.2,1.2,1.2c0.4,0,0.6,0,1-0.1v0.9c-0.4,0.1-0.7,0.1-1.2,0.1
			c-1.3,0-2.1-0.5-2.1-2V30.8z"/>
		<path d="M339.4,26.7h1.1v4.5c0.5-0.8,1.4-1.5,2.6-1.5c1.8,0,2.8,1.2,2.8,3v5.5h-1.1V33c0-1.3-0.6-2.3-2-2.3
			c-1.2,0-2.4,0.9-2.4,2.5v5.1h-1.1V26.7z"/>
		<path d="M348.4,26.7h1.2v1.4h-1.2V26.7z M349.5,38.2h-1.1v-8.4h1.1V38.2z"/>
		<path d="M352.2,29.8h1.1v1.3c0.5-0.8,1.4-1.5,2.6-1.5c1.8,0,2.8,1.2,2.8,3v5.5h-1.1V33c0-1.3-0.6-2.3-2-2.3
			c-1.2,0-2.4,0.9-2.4,2.5v5.1h-1.1V29.8z"/>
		<path d="M371.1,29.6c-0.3-1.2-1.2-2.1-2.6-2.1c-1.9,0-3.4,1.8-3.4,4.8c0,0.1,0,0.3,0,0.4c0.5-1.2,1.7-2.2,3.3-2.2
			c2.1,0,3.7,1.7,3.7,3.9c0,2.2-1.7,3.9-3.9,3.9c-2.9,0-4.2-2.6-4.2-5.8c0-3.7,2-6,4.5-6c1.9,0,3.1,1.1,3.5,2.7L371.1,29.6z
			 M368.3,31.6c-1.6,0-2.9,1.3-2.9,2.9c0,1.7,1.2,2.9,2.8,2.9s2.8-1.2,2.8-2.9C371.1,32.8,369.9,31.6,368.3,31.6z"/>
		<path d="M378.6,38.2h-1.1v-8.4h1.1v1.3c0.4-0.8,1.3-1.5,2.5-1.5c1.2,0,2,0.6,2.4,1.6c0.4-0.8,1.4-1.6,2.7-1.6c1.7,0,2.7,1.2,2.7,3
			v5.5h-1.1V33c0-1.3-0.5-2.3-1.9-2.3c-1.1,0-2.2,1-2.2,2.4v5.1h-1.1V33c0-1.3-0.5-2.3-1.9-2.3c-1.1,0-2.2,1-2.2,2.4V38.2z"/>
		<path d="M394.6,38.4c-2.2,0-3.7-1.8-3.7-4.3s1.5-4.3,3.7-4.3c2.2,0,3.8,1.8,3.8,4.3S396.9,38.4,394.6,38.4z M394.6,37.5
			c1.6,0,2.7-1.3,2.7-3.4c0-2.1-1.1-3.4-2.7-3.4c-1.6,0-2.7,1.4-2.7,3.4C392,36.1,393,37.5,394.6,37.5z"/>
		<path d="M400.5,29.8h1.1v1.3c0.5-0.8,1.4-1.5,2.6-1.5c1.8,0,2.8,1.2,2.8,3v5.5h-1.1V33c0-1.3-0.6-2.3-2-2.3
			c-1.2,0-2.4,0.9-2.4,2.5v5.1h-1.1V29.8z"/>
		<path d="M409.8,30.8h-1.4v-0.9h1.4v-2.4h1v2.4h2v0.9h-2v5.4c0,1,0.4,1.2,1.2,1.2c0.4,0,0.6,0,1-0.1v0.9c-0.4,0.1-0.7,0.1-1.2,0.1
			c-1.3,0-2.1-0.5-2.1-2V30.8z"/>
		<path d="M415,26.7h1.1v4.5c0.5-0.8,1.4-1.5,2.6-1.5c1.8,0,2.8,1.2,2.8,3v5.5h-1.1V33c0-1.3-0.6-2.3-2-2.3c-1.2,0-2.4,0.9-2.4,2.5
			v5.1H415V26.7z"/>
		<path d="M424,35.7c0.4,1.1,1.5,1.8,2.7,1.8c1.1,0,2.1-0.5,2.1-1.6c0-1-0.9-1.2-2.3-1.5c-1.4-0.3-2.8-0.6-2.8-2.3
			c0-1.4,1.3-2.4,2.9-2.4c1.5,0,2.7,0.8,3.1,1.9l-0.8,0.5c-0.4-0.9-1.2-1.5-2.3-1.5c-1.1,0-1.8,0.6-1.8,1.5c0,0.9,0.8,1.1,2.1,1.4
			c1.5,0.4,3,0.6,3,2.4c0,1.5-1.4,2.5-3.1,2.5c-1.5,0-3-0.7-3.5-2.1L424,35.7z"/>
		<path d="M430.6,26.4h1.1c1.4,1.5,2.7,3.8,2.7,6.7s-1.3,5.2-2.7,6.7h-1.1c1.5-1.6,2.6-4,2.6-6.7S432.1,28,430.6,26.4z"/>
	</g>
</g>
<path class="st0" d="M102.3,160.2h-96c-2.6,0-4.7-2.1-4.7-4.7V74.5c0-2.6,2.1-4.7,4.7-4.7h96c2.6,0,4.7,2.1,4.7,4.7v81.1
	C106.9,158.2,104.8,160.2,102.3,160.2z"/>
<g>
	<path class="st1" d="M28.8,120.4h-1.1v-11.5h4.2c2.3,0,3.8,1.1,3.8,3.2c0,1.9-1.2,3-3.2,3.2l3.4,5.2h-1.3l-3.3-5.1h-2.5V120.4z
		 M31.8,114.3c1.8,0,2.8-0.8,2.8-2.2c0-1.4-1-2.2-2.8-2.2h-3v4.4H31.8z"/>
	<path class="st1" d="M37.3,116.2c0-2.5,1.5-4.3,3.7-4.3c2.3,0,3.4,1.7,3.4,4.1v0.4h-6.1c0,2,1.2,3.3,2.8,3.3c1.3,0,2.1-0.7,2.4-1.8
		l1,0.3c-0.4,1.5-1.6,2.4-3.3,2.4C38.8,120.5,37.3,118.8,37.3,116.2z M38.4,115.4h5c0-1.4-0.7-2.7-2.4-2.7
		C39.7,112.8,38.6,113.8,38.4,115.4z"/>
	<path class="st1" d="M47.6,120.4h-1.1V112h1.1v1.3c0.4-0.8,1.3-1.5,2.5-1.5c1.2,0,2,0.6,2.4,1.6c0.4-0.8,1.4-1.6,2.7-1.6
		c1.7,0,2.7,1.2,2.7,3v5.5h-1.1v-5.2c0-1.3-0.5-2.3-1.9-2.3c-1.1,0-2.2,1-2.2,2.4v5.1h-1.1v-5.2c0-1.3-0.5-2.3-1.9-2.3
		c-1.1,0-2.2,1-2.2,2.4V120.4z"/>
	<path class="st1" d="M63.7,120.5c-2.2,0-3.7-1.8-3.7-4.3s1.5-4.3,3.7-4.3c2.2,0,3.8,1.8,3.8,4.3S65.9,120.5,63.7,120.5z
		 M63.7,119.6c1.6,0,2.7-1.3,2.7-3.4c0-2.1-1.1-3.4-2.7-3.4c-1.6,0-2.7,1.4-2.7,3.4C61,118.3,62.1,119.6,63.7,119.6z"/>
	<path class="st1" d="M69.8,112.9h-1.4V112h1.4v-2.4h1v2.4h2v0.9h-2v5.4c0,1,0.4,1.2,1.2,1.2c0.4,0,0.6,0,1-0.1v0.9
		c-0.4,0.1-0.7,0.1-1.2,0.1c-1.3,0-2.1-0.5-2.1-2V112.9z"/>
	<path class="st1" d="M74.4,116.2c0-2.5,1.5-4.3,3.7-4.3c2.3,0,3.4,1.7,3.4,4.1v0.4h-6.1c0,2,1.2,3.3,2.8,3.3c1.3,0,2.1-0.7,2.4-1.8
		l1,0.3c-0.4,1.5-1.6,2.4-3.3,2.4C75.9,120.5,74.4,118.8,74.4,116.2z M75.5,115.4h5c0-1.4-0.7-2.7-2.4-2.7
		C76.7,112.8,75.7,113.8,75.5,115.4z"/>
</g>
<path class="st2" d="M102.3,300.6h-96c-2.6,0-4.7-2.1-4.7-4.7v-81.1c0-2.6,2.1-4.7,4.7-4.7h96c2.6,0,4.7,2.1,4.7,4.7v81.1
	C106.9,298.5,104.8,300.6,102.3,300.6z"/>
<g>
	<path class="st1" d="M40.5,249.2v11.5h-1.1v-5.5h-6.7v5.5h-1.1v-11.5h1.1v5.1h6.7v-5.1H40.5z"/>
	<path class="st1" d="M43.6,263.7c-0.3,0-0.5,0-0.8-0.1v-0.9c0.3,0.1,0.5,0.1,0.7,0.1c0.6,0,1-0.3,1.3-1.2l0.5-1.2l-3.1-8.1h1.1
		l2.6,6.8l2.6-6.8h1.1l-3.7,9.4C45.4,262.9,44.8,263.7,43.6,263.7z"/>
	<path class="st1" d="M52.4,259.2v1.5h-1.1v-11.5h1.1v4.6c0.5-1,1.5-1.6,2.8-1.6c2.3,0,3.6,2,3.6,4.3c0,2.4-1.3,4.3-3.6,4.3
		C53.9,260.8,52.9,260.2,52.4,259.2z M52.3,256.9c0,2.2,1.4,3,2.6,3c1.7,0,2.7-1.4,2.7-3.4s-1-3.4-2.7-3.4c-1.2,0-2.6,0.8-2.6,3.1
		V256.9z"/>
	<path class="st1" d="M64.8,253.4c-0.2,0-0.4-0.1-0.7-0.1c-1.2,0-2.3,1.1-2.3,2.7v4.7h-1.1v-8.4h1.1v1.6c0.4-0.9,1.2-1.7,2.3-1.7
		c0.2,0,0.5,0,0.6,0.1V253.4z"/>
	<path class="st1" d="M66.5,249.2h1.2v1.4h-1.2V249.2z M67.6,260.7h-1.1v-8.4h1.1V260.7z"/>
	<path class="st1" d="M69.7,256.5c0-2.4,1.3-4.3,3.6-4.3c1.2,0,2.3,0.7,2.8,1.6v-4.6h1.1v11.5h-1.1v-1.5c-0.5,1-1.5,1.6-2.8,1.6
		C71,260.8,69.7,258.9,69.7,256.5z M73.5,253.1c-1.7,0-2.7,1.4-2.7,3.4s1,3.4,2.7,3.4c1.2,0,2.6-0.8,2.6-3v-0.7
		C76.1,253.9,74.6,253.1,73.5,253.1z"/>
</g>
<path class="st3" d="M102.3,431h-96c-2.6,0-4.7-2.1-4.7-4.7v-81.1c0-2.6,2.1-4.7,4.7-4.7h96c2.6,0,4.7,2.1,4.7,4.7v81.1
	C106.9,428.9,104.8,431,102.3,431z"/>
<g>
	<path d="M39,379.4c2.9,0,5.1,2.4,5.1,5.9s-2.2,5.9-5.1,5.9s-5.1-2.4-5.1-5.9S36.1,379.4,39,379.4z M39,380.4c-2.3,0-4,2-4,4.9
		s1.6,4.9,4,4.9c2.4,0,4-2,4-4.9S41.4,380.4,39,380.4z"/>
	<path d="M49.6,380.4c-0.3,0-0.4,0-0.7,0c-0.9,0-1.4,0.5-1.4,1.7v0.7h2v0.9h-2v7.4h-1.1v-7.4h-1.3v-0.9h1.3V382
		c0-1.5,0.9-2.5,2.4-2.5c0.3,0,0.5,0,0.8,0V380.4z"/>
	<path d="M54.5,380.4c-0.3,0-0.4,0-0.7,0c-0.9,0-1.4,0.5-1.4,1.7v0.7h2v0.9h-2v7.4h-1.1v-7.4H50v-0.9h1.3V382c0-1.5,0.9-2.5,2.4-2.5
		c0.3,0,0.5,0,0.8,0V380.4z"/>
	<path d="M55.8,379.6h1.2v1.4h-1.2V379.6z M57,391.1h-1.1v-8.4H57V391.1z"/>
	<path d="M62.9,390.3c1.3,0,2-0.8,2.3-1.9l1,0.4c-0.4,1.5-1.5,2.5-3.2,2.5c-2.3,0-3.8-1.7-3.8-4.3c0-2.6,1.5-4.3,3.8-4.3
		c1.7,0,2.8,1,3.2,2.4l-0.9,0.4c-0.3-1.1-1-1.9-2.3-1.9c-1.6,0-2.7,1.3-2.7,3.4C60.1,389,61.2,390.3,62.9,390.3z"/>
	<path d="M67.4,386.9c0-2.5,1.5-4.3,3.7-4.3c2.3,0,3.4,1.7,3.4,4.1v0.4h-6.1c0,2,1.2,3.3,2.8,3.3c1.3,0,2.1-0.7,2.4-1.8l1,0.3
		c-0.4,1.5-1.6,2.4-3.3,2.4C68.9,391.2,67.4,389.5,67.4,386.9z M68.5,386.2h5c0-1.4-0.7-2.7-2.4-2.7
		C69.7,383.5,68.7,384.5,68.5,386.2z"/>
</g>
<g>
	<path d="M148.4,110.8h-1l-6.7-9.9v9.9h-1.1V99.3h1.2l6.4,9.5v-9.5h1.1V110.8z"/>
	<path d="M154.4,110.9c-2.2,0-3.7-1.8-3.7-4.3s1.5-4.3,3.7-4.3c2.2,0,3.8,1.8,3.8,4.3S156.6,110.9,154.4,110.9z M154.4,110
		c1.6,0,2.7-1.3,2.7-3.4c0-2.1-1.1-3.4-2.7-3.4c-1.6,0-2.7,1.4-2.7,3.4C151.7,108.7,152.7,110,154.4,110z"/>
	<path d="M163.6,108.3c0.4,1.1,1.5,1.8,2.7,1.8c1.1,0,2.1-0.5,2.1-1.6c0-1-0.9-1.2-2.3-1.5c-1.4-0.3-2.8-0.6-2.8-2.3
		c0-1.4,1.3-2.4,2.9-2.4c1.5,0,2.7,0.8,3.1,1.9l-0.8,0.5c-0.4-0.9-1.2-1.5-2.3-1.5c-1.1,0-1.8,0.6-1.8,1.5c0,0.9,0.8,1.1,2.1,1.4
		c1.5,0.4,3,0.6,3,2.4c0,1.5-1.4,2.5-3.1,2.5c-1.5,0-3-0.7-3.5-2.1L163.6,108.3z"/>
	<path d="M171.2,99.3h1.2v1.4h-1.2V99.3z M172.4,110.8h-1.1v-8.4h1.1V110.8z"/>
	<path d="M178.1,113.8c-1.7,0-3.1-0.9-3.5-2.3l1-0.4c0.3,1.2,1.2,1.8,2.5,1.8c1.6,0,2.7-0.9,2.7-2.8v-1.2c-0.4,1-1.5,1.7-2.7,1.7
		c-2.3,0-3.6-1.9-3.6-4.2c0-2.3,1.3-4.2,3.6-4.2c1.2,0,2.2,0.7,2.7,1.7v-1.5h1.1v7.7C181.8,112.5,180.3,113.8,178.1,113.8z
		 M178.2,103.2c-1.7,0-2.7,1.3-2.7,3.2c0,1.9,1,3.2,2.7,3.2c1.2,0,2.6-0.9,2.6-3v-0.4C180.8,104.1,179.4,103.2,178.2,103.2z"/>
	<path d="M184.5,102.4h1.1v1.3c0.5-0.8,1.4-1.5,2.6-1.5c1.8,0,2.8,1.2,2.8,3v5.5h-1.1v-5.2c0-1.3-0.6-2.3-2-2.3
		c-1.2,0-2.4,0.9-2.4,2.5v5.1h-1.1V102.4z"/>
	<path d="M193.5,99.3h1.2v1.4h-1.2V99.3z M194.7,110.8h-1.1v-8.4h1.1V110.8z"/>
	<path d="M200.8,100.1c-0.3,0-0.4,0-0.7,0c-0.9,0-1.4,0.5-1.4,1.7v0.7h2v0.9h-2v7.4h-1.1v-7.4h-1.3v-0.9h1.3v-0.8
		c0-1.5,0.9-2.5,2.4-2.5c0.3,0,0.5,0,0.8,0V100.1z"/>
	<path d="M202.1,99.3h1.2v1.4h-1.2V99.3z M203.3,110.8h-1.1v-8.4h1.1V110.8z"/>
	<path d="M209.2,110c1.3,0,2-0.8,2.3-1.9l1,0.4c-0.4,1.5-1.5,2.5-3.2,2.5c-2.3,0-3.8-1.7-3.8-4.3c0-2.6,1.5-4.3,3.8-4.3
		c1.7,0,2.8,1,3.2,2.4l-0.9,0.4c-0.3-1.1-1-1.9-2.3-1.9c-1.6,0-2.7,1.3-2.7,3.4C206.4,108.7,207.5,110,209.2,110z"/>
	<path d="M213.6,108.5c0-1.7,1.4-2.4,3.5-2.8l1.8-0.4v-0.5c0-1.1-0.6-1.7-1.8-1.7c-1.2,0-1.9,0.6-2.2,1.6l-1-0.3
		c0.4-1.3,1.6-2.2,3.2-2.2c1.8,0,2.9,0.9,2.9,2.6v4.4c0,0.6,0.4,0.8,1,0.6v0.9c-1.2,0.2-2-0.2-2-1.1c-0.5,0.7-1.5,1.2-2.7,1.2
		C214.8,110.9,213.6,110.1,213.6,108.5z M218.9,106.2l-1.5,0.3c-1.7,0.3-2.7,0.7-2.7,2c0,0.9,0.7,1.5,1.7,1.5c1.4,0,2.5-0.9,2.5-2
		V106.2z"/>
	<path d="M222.7,102.4h1.1v1.3c0.5-0.8,1.4-1.5,2.6-1.5c1.8,0,2.8,1.2,2.8,3v5.5H228v-5.2c0-1.3-0.6-2.3-2-2.3
		c-1.2,0-2.4,0.9-2.4,2.5v5.1h-1.1V102.4z"/>
	<path d="M232,103.3h-1.4v-0.9h1.4V100h1v2.4h2v0.9h-2v5.4c0,1,0.4,1.2,1.2,1.2c0.4,0,0.6,0,1-0.1v0.9c-0.4,0.1-0.7,0.1-1.2,0.1
		c-1.3,0-2.1-0.5-2.1-2V103.3z"/>
	<path d="M140.8,130h-1.1v-11.5h1.1V130z"/>
	<path d="M144.6,130h-1.1v-8.4h1.1v1.3c0.4-0.8,1.3-1.5,2.5-1.5c1.2,0,2,0.6,2.4,1.6c0.4-0.8,1.4-1.6,2.7-1.6c1.7,0,2.7,1.2,2.7,3
		v5.5h-1.1v-5.2c0-1.3-0.5-2.3-1.9-2.3c-1.1,0-2.2,1-2.2,2.4v5.1h-1.1v-5.2c0-1.3-0.5-2.3-1.9-2.3c-1.1,0-2.2,1-2.2,2.4V130z"/>
	<path d="M158.6,130h-1.1v-8.4h1.1v1.3c0.4-0.8,1.3-1.5,2.5-1.5c1.2,0,2,0.6,2.4,1.6c0.4-0.8,1.4-1.6,2.7-1.6c1.7,0,2.7,1.2,2.7,3
		v5.5h-1.1v-5.2c0-1.3-0.5-2.3-1.9-2.3c-1.1,0-2.2,1-2.2,2.4v5.1h-1.1v-5.2c0-1.3-0.5-2.3-1.9-2.3c-1.1,0-2.2,1-2.2,2.4V130z"/>
	<path d="M170.9,125.8c0-2.5,1.5-4.3,3.7-4.3c2.3,0,3.4,1.7,3.4,4.1v0.4H172c0,2,1.2,3.3,2.8,3.3c1.3,0,2.1-0.7,2.4-1.8l1,0.3
		c-0.4,1.5-1.6,2.4-3.3,2.4C172.4,130.1,170.9,128.4,170.9,125.8z M172,125h5c0-1.4-0.7-2.7-2.4-2.7
		C173.3,122.4,172.2,123.4,172,125z"/>
	<path d="M179.6,125.8c0-2.4,1.3-4.3,3.6-4.3c1.2,0,2.3,0.7,2.8,1.6v-4.6h1.1V130h-1.1v-1.5c-0.5,1-1.5,1.6-2.8,1.6
		C180.9,130.1,179.6,128.1,179.6,125.8z M183.3,122.4c-1.7,0-2.7,1.4-2.7,3.4s1,3.4,2.7,3.4c1.2,0,2.6-0.8,2.6-3v-0.7
		C185.9,123.2,184.5,122.4,183.3,122.4z"/>
	<path d="M189.6,118.5h1.2v1.4h-1.2V118.5z M190.7,130h-1.1v-8.4h1.1V130z"/>
	<path d="M192.7,127.7c0-1.7,1.4-2.4,3.5-2.8l1.8-0.4v-0.5c0-1.1-0.6-1.7-1.8-1.7c-1.2,0-1.9,0.6-2.2,1.6l-1-0.3
		c0.4-1.3,1.6-2.2,3.2-2.2c1.8,0,2.9,0.9,2.9,2.6v4.4c0,0.6,0.4,0.8,1,0.6v0.9c-1.2,0.2-2-0.2-2-1.1c-0.5,0.7-1.5,1.2-2.7,1.2
		C193.9,130.1,192.7,129.3,192.7,127.7z M198,125.4l-1.5,0.3c-1.7,0.3-2.7,0.7-2.7,2c0,0.9,0.7,1.5,1.7,1.5c1.4,0,2.5-0.9,2.5-2
		V125.4z"/>
	<path d="M202,122.5h-1.4v-0.9h1.4v-2.4h1v2.4h2v0.9h-2v5.4c0,1,0.4,1.2,1.2,1.2c0.4,0,0.6,0,1-0.1v0.9c-0.4,0.1-0.7,0.1-1.2,0.1
		c-1.3,0-2.1-0.5-2.1-2V122.5z"/>
	<path d="M206.6,125.8c0-2.5,1.5-4.3,3.7-4.3c2.3,0,3.4,1.7,3.4,4.1v0.4h-6.1c0,2,1.2,3.3,2.8,3.3c1.3,0,2.1-0.7,2.4-1.8l1,0.3
		c-0.4,1.5-1.6,2.4-3.3,2.4C208.1,130.1,206.6,128.4,206.6,125.8z M207.6,125h5c0-1.4-0.7-2.7-2.4-2.7
		C208.9,122.4,207.9,123.4,207.6,125z"/>
	<path d="M219.2,118.5h1.2v1.4h-1.2V118.5z M220.3,130h-1.1v-8.4h1.1V130z"/>
	<path d="M224.1,130H223v-8.4h1.1v1.3c0.4-0.8,1.3-1.5,2.5-1.5c1.2,0,2,0.6,2.4,1.6c0.4-0.8,1.4-1.6,2.7-1.6c1.7,0,2.7,1.2,2.7,3
		v5.5h-1.1v-5.2c0-1.3-0.5-2.3-1.9-2.3c-1.1,0-2.2,1-2.2,2.4v5.1h-1.1v-5.2c0-1.3-0.5-2.3-1.9-2.3c-1.1,0-2.2,1-2.2,2.4V130z"/>
	<path d="M238.1,128.5v4.4H237v-11.2h1.1v1.5c0.5-1,1.5-1.6,2.8-1.6c2.3,0,3.6,2,3.6,4.3c0,2.4-1.3,4.3-3.6,4.3
		C239.6,130.1,238.6,129.5,238.1,128.5z M238,126.1c0,2.2,1.4,3,2.6,3c1.7,0,2.7-1.4,2.7-3.4s-1-3.4-2.7-3.4c-1.2,0-2.6,0.8-2.6,3.1
		V126.1z"/>
	<path d="M245.8,127.7c0-1.7,1.4-2.4,3.5-2.8l1.8-0.4v-0.5c0-1.1-0.6-1.7-1.8-1.7c-1.2,0-1.9,0.6-2.2,1.6l-1-0.3
		c0.4-1.3,1.6-2.2,3.2-2.2c1.8,0,2.9,0.9,2.9,2.6v4.4c0,0.6,0.4,0.8,1,0.6v0.9c-1.2,0.2-2-0.2-2-1.1c-0.5,0.7-1.5,1.2-2.7,1.2
		C247,130.1,245.8,129.3,245.8,127.7z M251.1,125.4l-1.5,0.3c-1.7,0.3-2.7,0.7-2.7,2c0,0.9,0.7,1.5,1.7,1.5c1.4,0,2.5-0.9,2.5-2
		V125.4z"/>
	<path d="M258,129.2c1.3,0,2-0.8,2.3-1.9l1,0.4c-0.4,1.5-1.5,2.5-3.2,2.5c-2.3,0-3.8-1.7-3.8-4.3c0-2.6,1.5-4.3,3.8-4.3
		c1.7,0,2.8,1,3.2,2.4l-0.9,0.4c-0.3-1.1-1-1.9-2.3-1.9c-1.6,0-2.7,1.3-2.7,3.4C255.3,127.9,256.4,129.2,258,129.2z"/>
	<path d="M263.5,122.5h-1.4v-0.9h1.4v-2.4h1v2.4h2v0.9h-2v5.4c0,1,0.4,1.2,1.2,1.2c0.4,0,0.6,0,1-0.1v0.9c-0.4,0.1-0.7,0.1-1.2,0.1
		c-1.3,0-2.1-0.5-2.1-2V122.5z"/>
	<path d="M268.5,127.5c0.4,1.1,1.5,1.8,2.7,1.8c1.1,0,2.1-0.5,2.1-1.6c0-1-0.9-1.2-2.3-1.5c-1.4-0.3-2.8-0.6-2.8-2.3
		c0-1.4,1.3-2.4,2.9-2.4c1.5,0,2.7,0.8,3.1,1.9l-0.8,0.5c-0.4-0.9-1.2-1.5-2.3-1.5c-1.1,0-1.8,0.6-1.8,1.5c0,0.9,0.8,1.1,2.1,1.4
		c1.5,0.4,3,0.6,3,2.4c0,1.5-1.4,2.5-3.1,2.5c-1.5,0-3-0.7-3.5-2.1L268.5,127.5z"/>
</g>
<g>
	<path d="M148.4,251.1h-1l-6.7-9.9v9.9h-1.1v-11.5h1.2l6.4,9.5v-9.5h1.1V251.1z"/>
	<path d="M154.4,251.2c-2.2,0-3.7-1.8-3.7-4.3s1.5-4.3,3.7-4.3c2.2,0,3.8,1.8,3.8,4.3S156.6,251.2,154.4,251.2z M154.4,250.3
		c1.6,0,2.7-1.3,2.7-3.4c0-2.1-1.1-3.4-2.7-3.4c-1.6,0-2.7,1.4-2.7,3.4C151.7,249,152.7,250.3,154.4,250.3z"/>
	<path d="M163.6,248.6c0.4,1.1,1.5,1.8,2.7,1.8c1.1,0,2.1-0.5,2.1-1.6s-0.9-1.2-2.3-1.5c-1.4-0.3-2.8-0.6-2.8-2.3
		c0-1.4,1.3-2.4,2.9-2.4c1.5,0,2.7,0.8,3.1,1.9l-0.8,0.5c-0.4-0.9-1.2-1.5-2.3-1.5c-1.1,0-1.8,0.6-1.8,1.5c0,0.9,0.8,1.1,2.1,1.4
		c1.5,0.4,3,0.6,3,2.4c0,1.5-1.4,2.5-3.1,2.5c-1.5,0-3-0.7-3.5-2.1L163.6,248.6z"/>
	<path d="M171.2,239.6h1.2v1.4h-1.2V239.6z M172.4,251.1h-1.1v-8.4h1.1V251.1z"/>
	<path d="M178.1,254.1c-1.7,0-3.1-0.9-3.5-2.3l1-0.4c0.3,1.2,1.2,1.8,2.5,1.8c1.6,0,2.7-0.9,2.7-2.8v-1.2c-0.4,1-1.5,1.7-2.7,1.7
		c-2.3,0-3.6-1.9-3.6-4.2c0-2.3,1.3-4.2,3.6-4.2c1.2,0,2.2,0.7,2.7,1.7v-1.5h1.1v7.7C181.8,252.8,180.3,254.1,178.1,254.1z
		 M178.2,243.5c-1.7,0-2.7,1.3-2.7,3.2c0,1.9,1,3.2,2.7,3.2c1.2,0,2.6-0.9,2.6-3v-0.4C180.8,244.4,179.4,243.5,178.2,243.5z"/>
	<path d="M184.5,242.7h1.1v1.3c0.5-0.8,1.4-1.5,2.6-1.5c1.8,0,2.8,1.2,2.8,3v5.5h-1.1v-5.2c0-1.3-0.6-2.3-2-2.3
		c-1.2,0-2.4,0.9-2.4,2.5v5.1h-1.1V242.7z"/>
	<path d="M193.5,239.6h1.2v1.4h-1.2V239.6z M194.7,251.1h-1.1v-8.4h1.1V251.1z"/>
	<path d="M200.8,240.4c-0.3,0-0.4,0-0.7,0c-0.9,0-1.4,0.5-1.4,1.7v0.7h2v0.9h-2v7.4h-1.1v-7.4h-1.3v-0.9h1.3V242
		c0-1.5,0.9-2.5,2.4-2.5c0.3,0,0.5,0,0.8,0V240.4z"/>
	<path d="M202.1,239.6h1.2v1.4h-1.2V239.6z M203.3,251.1h-1.1v-8.4h1.1V251.1z"/>
	<path d="M209.2,250.3c1.3,0,2-0.8,2.3-1.9l1,0.4c-0.4,1.5-1.5,2.5-3.2,2.5c-2.3,0-3.8-1.7-3.8-4.3c0-2.6,1.5-4.3,3.8-4.3
		c1.7,0,2.8,1,3.2,2.4l-0.9,0.4c-0.3-1.1-1-1.9-2.3-1.9c-1.6,0-2.7,1.3-2.7,3.4C206.4,249,207.5,250.3,209.2,250.3z"/>
	<path d="M213.6,248.9c0-1.7,1.4-2.4,3.5-2.8l1.8-0.4v-0.5c0-1.1-0.6-1.7-1.8-1.7c-1.2,0-1.9,0.6-2.2,1.6l-1-0.3
		c0.4-1.3,1.6-2.2,3.2-2.2c1.8,0,2.9,0.9,2.9,2.6v4.5c0,0.6,0.4,0.8,1,0.6v0.9c-1.2,0.2-2-0.2-2-1.1c-0.5,0.7-1.5,1.2-2.7,1.2
		C214.8,251.2,213.6,250.4,213.6,248.9z M218.9,246.5l-1.5,0.3c-1.7,0.3-2.7,0.7-2.7,2c0,0.9,0.7,1.5,1.7,1.5c1.4,0,2.5-0.9,2.5-2
		V246.5z"/>
	<path d="M222.7,242.7h1.1v1.3c0.5-0.8,1.4-1.5,2.6-1.5c1.8,0,2.8,1.2,2.8,3v5.5H228v-5.2c0-1.3-0.6-2.3-2-2.3
		c-1.2,0-2.4,0.9-2.4,2.5v5.1h-1.1V242.7z"/>
	<path d="M232,243.6h-1.4v-0.9h1.4v-2.4h1v2.4h2v0.9h-2v5.4c0,1,0.4,1.2,1.2,1.2c0.4,0,0.6,0,1-0.1v0.9c-0.4,0.1-0.7,0.1-1.2,0.1
		c-1.3,0-2.1-0.5-2.1-2V243.6z"/>
	<path d="M140.8,270.3h-1.1v-11.5h1.1V270.3z"/>
	<path d="M144.6,270.3h-1.1v-8.4h1.1v1.3c0.4-0.8,1.3-1.5,2.5-1.5c1.2,0,2,0.6,2.4,1.6c0.4-0.8,1.4-1.6,2.7-1.6c1.7,0,2.7,1.2,2.7,3
		v5.5h-1.1V265c0-1.3-0.5-2.3-1.9-2.3c-1.1,0-2.2,1-2.2,2.4v5.1h-1.1V265c0-1.3-0.5-2.3-1.9-2.3c-1.1,0-2.2,1-2.2,2.4V270.3z"/>
	<path d="M158.6,270.3h-1.1v-8.4h1.1v1.3c0.4-0.8,1.3-1.5,2.5-1.5c1.2,0,2,0.6,2.4,1.6c0.4-0.8,1.4-1.6,2.7-1.6c1.7,0,2.7,1.2,2.7,3
		v5.5h-1.1V265c0-1.3-0.5-2.3-1.9-2.3c-1.1,0-2.2,1-2.2,2.4v5.1h-1.1V265c0-1.3-0.5-2.3-1.9-2.3c-1.1,0-2.2,1-2.2,2.4V270.3z"/>
	<path d="M170.9,266.1c0-2.5,1.5-4.3,3.7-4.3c2.3,0,3.4,1.7,3.4,4.1v0.4H172c0,2,1.2,3.3,2.8,3.3c1.3,0,2.1-0.7,2.4-1.8l1,0.3
		c-0.4,1.5-1.6,2.4-3.3,2.4C172.4,270.4,170.9,268.7,170.9,266.1z M172,265.3h5c0-1.4-0.7-2.7-2.4-2.7
		C173.3,262.7,172.2,263.7,172,265.3z"/>
	<path d="M179.6,266.1c0-2.4,1.3-4.3,3.6-4.3c1.2,0,2.3,0.7,2.8,1.6v-4.6h1.1v11.5h-1.1v-1.5c-0.5,1-1.5,1.6-2.8,1.6
		C180.9,270.4,179.6,268.5,179.6,266.1z M183.3,262.7c-1.7,0-2.7,1.4-2.7,3.4s1,3.4,2.7,3.4c1.2,0,2.6-0.8,2.6-3v-0.7
		C185.9,263.5,184.5,262.7,183.3,262.7z"/>
	<path d="M189.6,258.8h1.2v1.4h-1.2V258.8z M190.7,270.3h-1.1v-8.4h1.1V270.3z"/>
	<path d="M192.7,268.1c0-1.7,1.4-2.4,3.5-2.8l1.8-0.4v-0.5c0-1.1-0.6-1.7-1.8-1.7c-1.2,0-1.9,0.6-2.2,1.6l-1-0.3
		c0.4-1.3,1.6-2.2,3.2-2.2c1.8,0,2.9,0.9,2.9,2.6v4.5c0,0.6,0.4,0.8,1,0.6v0.9c-1.2,0.2-2-0.2-2-1.1c-0.5,0.7-1.5,1.2-2.7,1.2
		C193.9,270.4,192.7,269.6,192.7,268.1z M198,265.7l-1.5,0.3c-1.7,0.3-2.7,0.7-2.7,2c0,0.9,0.7,1.5,1.7,1.5c1.4,0,2.5-0.9,2.5-2
		V265.7z"/>
	<path d="M202,262.8h-1.4v-0.9h1.4v-2.4h1v2.4h2v0.9h-2v5.4c0,1,0.4,1.2,1.2,1.2c0.4,0,0.6,0,1-0.1v0.9c-0.4,0.1-0.7,0.1-1.2,0.1
		c-1.3,0-2.1-0.5-2.1-2V262.8z"/>
	<path d="M206.6,266.1c0-2.5,1.5-4.3,3.7-4.3c2.3,0,3.4,1.7,3.4,4.1v0.4h-6.1c0,2,1.2,3.3,2.8,3.3c1.3,0,2.1-0.7,2.4-1.8l1,0.3
		c-0.4,1.5-1.6,2.4-3.3,2.4C208.1,270.4,206.6,268.7,206.6,266.1z M207.6,265.3h5c0-1.4-0.7-2.7-2.4-2.7
		C208.9,262.7,207.9,263.7,207.6,265.3z"/>
	<path d="M219.2,258.8h1.2v1.4h-1.2V258.8z M220.3,270.3h-1.1v-8.4h1.1V270.3z"/>
	<path d="M224.1,270.3H223v-8.4h1.1v1.3c0.4-0.8,1.3-1.5,2.5-1.5c1.2,0,2,0.6,2.4,1.6c0.4-0.8,1.4-1.6,2.7-1.6c1.7,0,2.7,1.2,2.7,3
		v5.5h-1.1V265c0-1.3-0.5-2.3-1.9-2.3c-1.1,0-2.2,1-2.2,2.4v5.1h-1.1V265c0-1.3-0.5-2.3-1.9-2.3c-1.1,0-2.2,1-2.2,2.4V270.3z"/>
	<path d="M238.1,268.8v4.4H237v-11.2h1.1v1.5c0.5-1,1.5-1.6,2.8-1.6c2.3,0,3.6,2,3.6,4.3c0,2.4-1.3,4.3-3.6,4.3
		C239.6,270.4,238.6,269.8,238.1,268.8z M238,266.5c0,2.2,1.4,3,2.6,3c1.7,0,2.7-1.4,2.7-3.4s-1-3.4-2.7-3.4c-1.2,0-2.6,0.8-2.6,3.1
		V266.5z"/>
	<path d="M245.8,268.1c0-1.7,1.4-2.4,3.5-2.8l1.8-0.4v-0.5c0-1.1-0.6-1.7-1.8-1.7c-1.2,0-1.9,0.6-2.2,1.6l-1-0.3
		c0.4-1.3,1.6-2.2,3.2-2.2c1.8,0,2.9,0.9,2.9,2.6v4.5c0,0.6,0.4,0.8,1,0.6v0.9c-1.2,0.2-2-0.2-2-1.1c-0.5,0.7-1.5,1.2-2.7,1.2
		C247,270.4,245.8,269.6,245.8,268.1z M251.1,265.7l-1.5,0.3c-1.7,0.3-2.7,0.7-2.7,2c0,0.9,0.7,1.5,1.7,1.5c1.4,0,2.5-0.9,2.5-2
		V265.7z"/>
	<path d="M258,269.5c1.3,0,2-0.8,2.3-1.9l1,0.4c-0.4,1.5-1.5,2.5-3.2,2.5c-2.3,0-3.8-1.7-3.8-4.3c0-2.6,1.5-4.3,3.8-4.3
		c1.7,0,2.8,1,3.2,2.4l-0.9,0.4c-0.3-1.1-1-1.9-2.3-1.9c-1.6,0-2.7,1.3-2.7,3.4C255.3,268.2,256.4,269.5,258,269.5z"/>
	<path d="M263.5,262.8h-1.4v-0.9h1.4v-2.4h1v2.4h2v0.9h-2v5.4c0,1,0.4,1.2,1.2,1.2c0.4,0,0.6,0,1-0.1v0.9c-0.4,0.1-0.7,0.1-1.2,0.1
		c-1.3,0-2.1-0.5-2.1-2V262.8z"/>
	<path d="M268.5,267.8c0.4,1.1,1.5,1.8,2.7,1.8c1.1,0,2.1-0.5,2.1-1.6s-0.9-1.2-2.3-1.5c-1.4-0.3-2.8-0.6-2.8-2.3
		c0-1.4,1.3-2.4,2.9-2.4c1.5,0,2.7,0.8,3.1,1.9l-0.8,0.5c-0.4-0.9-1.2-1.5-2.3-1.5c-1.1,0-1.8,0.6-1.8,1.5c0,0.9,0.8,1.1,2.1,1.4
		c1.5,0.4,3,0.6,3,2.4c0,1.5-1.4,2.5-3.1,2.5c-1.5,0-3-0.7-3.5-2.1L268.5,267.8z"/>
</g>
<g>
	<path class="st4" d="M156,376.4h-5.4v5.4h-0.7v-5.4h-5.4v-0.7h5.4v-5.4h0.7v5.4h5.4V376.4z"/>
	<path class="st4" d="M169.6,379.9l-0.7,5.3h-11.2v-0.3l2.6-3.2c3.9-4.8,5.8-7.2,5.8-10.4c0-2.3-1.3-3.5-3.4-3.5
		c-2,0-3.3,1.2-4.2,2.8l-0.4-0.2c0.7-1.9,2.4-4.9,6-4.9c3.3,0,5.1,2.2,5.1,4.9c0,3.9-4,7.3-8.2,11.5l-0.7,0.7h4.5
		c3,0,3.8-0.6,4.5-2.7H169.6z"/>
	<path class="st4" d="M171.2,370.2c0-2.7,2.3-4.5,4.5-4.5c2.2,0,4.5,1.8,4.5,4.5c0,2.7-2.4,4.5-4.5,4.5
		C173.5,374.6,171.2,372.8,171.2,370.2z M177.9,370.3c0-2.5-0.9-4.1-2.3-4.1c-1.1,0-2.1,1.3-2.1,3.6c0,2.5,0.9,4.1,2.3,4.1
		C177,374,177.9,372.6,177.9,370.3z M186.6,366h0.8l-12.7,19.2h-0.8L186.6,366z M181.2,381c0-2.7,2.4-4.5,4.5-4.5
		c2.2,0,4.5,1.8,4.5,4.5s-2.3,4.5-4.5,4.5C183.5,385.4,181.2,383.7,181.2,381z M187.9,381.2c0-2.5-0.9-4.1-2.3-4.1
		c-1.1,0-2.1,1.3-2.1,3.6c0,2.5,1,4.1,2.3,4.1C186.9,384.8,187.9,383.5,187.9,381.2z"/>
</g>
<g>
	<path d="M150.8,394.9c2.9,0,5.1,2.4,5.1,5.9s-2.2,5.9-5.1,5.9s-5.1-2.4-5.1-5.9S147.9,394.9,150.8,394.9z M150.8,395.9
		c-2.3,0-4,2-4,4.9c0,2.9,1.6,4.9,4,4.9c2.4,0,4-2,4-4.9C154.8,397.9,153.2,395.9,150.8,395.9z"/>
	<path d="M159,405.1v4.4h-1.1v-11.2h1.1v1.5c0.5-1,1.5-1.6,2.8-1.6c2.3,0,3.6,2,3.6,4.3c0,2.4-1.3,4.3-3.6,4.3
		C160.5,406.7,159.5,406.1,159,405.1z M159,402.8c0,2.2,1.4,3,2.6,3c1.7,0,2.7-1.4,2.7-3.4s-1-3.4-2.7-3.4c-1.2,0-2.6,0.8-2.6,3.1
		V402.8z"/>
	<path d="M167.7,399.1h-1.4v-0.9h1.4v-2.4h1v2.4h2v0.9h-2v5.4c0,1,0.4,1.2,1.2,1.2c0.4,0,0.6,0,1-0.1v0.9c-0.4,0.1-0.7,0.1-1.2,0.1
		c-1.3,0-2.1-0.5-2.1-2V399.1z"/>
	<path d="M172.8,395.1h1.2v1.4h-1.2V395.1z M173.9,406.6h-1.1v-8.4h1.1V406.6z"/>
	<path d="M177.7,406.6h-1.1v-8.4h1.1v1.3c0.4-0.8,1.3-1.5,2.5-1.5c1.2,0,2,0.6,2.4,1.6c0.4-0.8,1.4-1.6,2.7-1.6c1.7,0,2.7,1.2,2.7,3
		v5.5H187v-5.2c0-1.3-0.5-2.3-1.9-2.3c-1.1,0-2.2,1-2.2,2.4v5.1h-1.1v-5.2c0-1.3-0.5-2.3-1.9-2.3c-1.1,0-2.2,1-2.2,2.4V406.6z"/>
	<path d="M190.5,395.1h1.2v1.4h-1.2V395.1z M191.7,406.6h-1.1v-8.4h1.1V406.6z"/>
	<path d="M194.2,404.1c0.4,1.1,1.5,1.8,2.7,1.8c1.1,0,2.1-0.5,2.1-1.6c0-1-0.9-1.2-2.3-1.5c-1.4-0.3-2.8-0.6-2.8-2.3
		c0-1.4,1.3-2.4,2.9-2.4c1.5,0,2.7,0.8,3.1,1.9l-0.8,0.5c-0.4-0.9-1.2-1.5-2.3-1.5c-1.1,0-1.8,0.6-1.8,1.5c0,0.9,0.8,1.1,2.1,1.4
		c1.5,0.4,3,0.6,3,2.4c0,1.5-1.4,2.5-3.1,2.5c-1.5,0-3-0.7-3.5-2.1L194.2,404.1z"/>
	<path d="M203.1,406.6H202v-8.4h1.1v1.3c0.4-0.8,1.3-1.5,2.5-1.5c1.2,0,2,0.6,2.4,1.6c0.4-0.8,1.4-1.6,2.7-1.6c1.7,0,2.7,1.2,2.7,3
		v5.5h-1.1v-5.2c0-1.3-0.5-2.3-1.9-2.3c-1.1,0-2.2,1-2.2,2.4v5.1h-1.1v-5.2c0-1.3-0.5-2.3-1.9-2.3c-1.1,0-2.2,1-2.2,2.4V406.6z"/>
</g>
<g>
	<g>
		<path d="M317.3,74.8h-0.9v-9.3h3.4c1.9,0,3.1,0.9,3.1,2.6c0,1.7-1.2,2.6-3.1,2.6h-2.5V74.8z M319.7,69.8c1.5,0,2.3-0.6,2.3-1.8
			c0-1.2-0.8-1.8-2.3-1.8h-2.5v3.6H319.7z"/>
		<path d="M327.6,68.8c-0.2,0-0.4-0.1-0.6-0.1c-1,0-1.8,0.9-1.8,2.2v3.8h-0.9V68h0.9v1.3c0.3-0.7,0.9-1.4,1.9-1.4
			c0.2,0,0.4,0,0.5,0.1V68.8z"/>
		<path d="M331.6,74.9c-1.8,0-3-1.4-3-3.5s1.2-3.5,3-3.5s3.1,1.4,3.1,3.5S333.4,74.9,331.6,74.9z M331.6,74.2c1.3,0,2.2-1.1,2.2-2.8
			c0-1.7-0.9-2.8-2.2-2.8c-1.3,0-2.2,1.1-2.2,2.8C329.4,73.1,330.3,74.2,331.6,74.2z"/>
		<path d="M335.8,71.4c0-1.9,1.1-3.5,2.9-3.5c1,0,1.8,0.5,2.2,1.3v-3.8h0.9v9.3H341v-1.2c-0.4,0.8-1.2,1.3-2.2,1.3
			C336.9,74.9,335.8,73.3,335.8,71.4z M338.9,68.6c-1.4,0-2.2,1.2-2.2,2.8s0.8,2.8,2.2,2.8c0.9,0,2.1-0.7,2.1-2.5v-0.6
			C341,69.3,339.8,68.6,338.9,68.6z"/>
		<path d="M349.2,74.8h-0.9v-1.1c-0.4,0.7-1.1,1.2-2.1,1.2c-1.5,0-2.2-1-2.2-2.4V68h0.9v4.3c0,1.1,0.5,1.8,1.6,1.8
			c0.9,0,1.9-0.7,1.9-2V68h0.9V74.8z"/>
		<path d="M354,74.2c1,0,1.6-0.6,1.8-1.6l0.8,0.3c-0.3,1.2-1.2,2-2.6,2c-1.8,0-3.1-1.4-3.1-3.5c0-2.1,1.2-3.5,3.1-3.5
			c1.4,0,2.3,0.8,2.6,2l-0.8,0.3c-0.2-0.9-0.8-1.6-1.8-1.6c-1.3,0-2.2,1.1-2.2,2.8C351.7,73.1,352.6,74.2,354,74.2z"/>
		<path d="M358.4,68.7h-1.1V68h1.1v-2h0.8v2h1.6v0.7h-1.6v4.4c0,0.8,0.4,1,1,1c0.3,0,0.5,0,0.8-0.1v0.8c-0.3,0.1-0.6,0.1-1,0.1
			c-1.1,0-1.7-0.4-1.7-1.6V68.7z"/>
		<path d="M362.5,65.4h1v1.2h-1V65.4z M363.4,74.8h-0.9V68h0.9V74.8z"/>
		<path d="M367.4,74.8l-2.6-6.8h0.9l2.1,5.7l2.1-5.7h0.9l-2.6,6.8H367.4z"/>
		<path d="M372.1,65.4h1v1.2h-1V65.4z M373,74.8h-0.9V68h0.9V74.8z"/>
		<path d="M375.4,68.7h-1.1V68h1.1v-2h0.8v2h1.6v0.7h-1.6v4.4c0,0.8,0.4,1,1,1c0.3,0,0.5,0,0.8-0.1v0.8c-0.3,0.1-0.6,0.1-1,0.1
			c-1.1,0-1.7-0.4-1.7-1.6V68.7z"/>
		<path d="M379.9,77.2c-0.3,0-0.4,0-0.6-0.1v-0.8c0.2,0.1,0.4,0.1,0.6,0.1c0.5,0,0.8-0.2,1.1-1l0.4-0.9l-2.5-6.6h0.9l2.1,5.5
			l2.1-5.5h0.9l-3,7.6C381.4,76.6,381,77.2,379.9,77.2z"/>
		<path d="M314.5,102.4h-0.9V93h3.4c1.9,0,3.1,0.9,3.1,2.6c0,1.5-1,2.4-2.6,2.6l2.8,4.2h-1.1l-2.7-4.2h-2V102.4z M316.9,97.4
			c1.5,0,2.3-0.7,2.3-1.8c0-1.2-0.8-1.8-2.3-1.8h-2.5v3.6H316.9z"/>
		<path d="M321.4,99c0-2.1,1.2-3.5,3-3.5c1.8,0,2.8,1.4,2.8,3.3V99h-5c0,1.7,0.9,2.7,2.2,2.7c1,0,1.7-0.6,1.9-1.5l0.8,0.2
			c-0.4,1.2-1.3,2-2.7,2C322.6,102.5,321.4,101.1,321.4,99z M322.3,98.4h4.1c0-1.1-0.6-2.2-1.9-2.2C323.3,96.2,322.5,97,322.3,98.4z
			"/>
		<path d="M328.8,100.4c0.3,0.9,1.2,1.4,2.2,1.4c0.9,0,1.7-0.4,1.7-1.3s-0.7-1-1.9-1.2c-1.2-0.3-2.3-0.5-2.3-1.8c0-1.2,1-2,2.4-2
			c1.2,0,2.2,0.6,2.5,1.5l-0.7,0.4c-0.3-0.7-0.9-1.2-1.9-1.2c-0.9,0-1.5,0.5-1.5,1.2c0,0.8,0.7,0.9,1.7,1.1c1.2,0.3,2.4,0.5,2.4,1.9
			c0,1.2-1.1,2.1-2.5,2.1c-1.2,0-2.4-0.5-2.9-1.7L328.8,100.4z"/>
		<path d="M335.1,93h1v1.2h-1V93z M336,102.4h-0.9v-6.8h0.9V102.4z"/>
		<path d="M339,102.4h-0.9V93h0.9V102.4z"/>
		<path d="M341.2,93h1v1.2h-1V93z M342.1,102.4h-0.9v-6.8h0.9V102.4z"/>
		<path d="M343.8,99c0-2.1,1.2-3.5,3-3.5c1.8,0,2.8,1.4,2.8,3.3V99h-5c0,1.7,0.9,2.7,2.2,2.7c1,0,1.7-0.6,1.9-1.5l0.8,0.2
			c-0.4,1.2-1.3,2-2.7,2C345,102.5,343.8,101.1,343.8,99z M344.7,98.4h4.1c0-1.1-0.6-2.2-1.9-2.2C345.7,96.2,344.8,97,344.7,98.4z"
			/>
		<path d="M351.3,95.6h0.9v1.1c0.4-0.7,1.1-1.2,2.1-1.2c1.5,0,2.2,1,2.2,2.5v4.5h-0.9v-4.3c0-1.1-0.5-1.8-1.6-1.8
			c-0.9,0-1.9,0.8-1.9,2v4.1h-0.9V95.6z"/>
		<path d="M361.3,101.8c1,0,1.6-0.7,1.8-1.6l0.8,0.3c-0.3,1.2-1.2,2-2.6,2c-1.8,0-3.1-1.4-3.1-3.5c0-2.1,1.2-3.5,3.1-3.5
			c1.4,0,2.3,0.8,2.6,2l-0.8,0.3c-0.2-0.9-0.8-1.6-1.8-1.6c-1.3,0-2.2,1.1-2.2,2.8C359,100.7,359.9,101.8,361.3,101.8z"/>
		<path d="M364.9,99c0-2.1,1.2-3.5,3-3.5c1.8,0,2.8,1.4,2.8,3.3V99h-5c0,1.7,0.9,2.7,2.2,2.7c1,0,1.7-0.6,1.9-1.5l0.8,0.2
			c-0.4,1.2-1.3,2-2.7,2C366.2,102.5,364.9,101.1,364.9,99z M365.8,98.4h4.1c0-1.1-0.6-2.2-1.9-2.2C366.8,96.2,366,97,365.8,98.4z"
			/>
		<path d="M318.8,120.6l2.2,8l2.2-8h0.9l-2.6,9.3h-0.9l-2.2-7.8l-2.2,7.8h-0.9l-2.6-9.3h0.9l2.2,8l2.2-8H318.8z"/>
		<path d="M324.9,126.6c0-2.1,1.2-3.5,3-3.5c1.8,0,2.8,1.4,2.8,3.3v0.3h-5c0,1.7,0.9,2.7,2.2,2.7c1,0,1.7-0.6,1.9-1.5l0.8,0.2
			c-0.4,1.2-1.3,2-2.7,2C326.1,130.1,324.9,128.7,324.9,126.6z M325.7,126h4.1c0-1.1-0.6-2.2-1.9-2.2
			C326.8,123.8,325.9,124.6,325.7,126z"/>
		<path d="M333.2,130h-0.9v-9.3h0.9V130z"/>
		<path d="M336.3,130h-0.9v-9.3h0.9V130z"/>
		<path d="M338.2,125.8h3.5v0.8h-3.5V125.8z"/>
		<path d="M344.4,128.8v1.2h-0.9v-9.3h0.9v3.8c0.4-0.8,1.2-1.3,2.2-1.3c1.9,0,2.9,1.6,2.9,3.5c0,1.9-1.1,3.5-2.9,3.5
			C345.6,130.1,344.8,129.6,344.4,128.8z M344.4,126.9c0,1.8,1.2,2.5,2.1,2.5c1.4,0,2.2-1.2,2.2-2.8c0-1.6-0.8-2.8-2.2-2.8
			c-0.9,0-2.1,0.7-2.1,2.5V126.9z"/>
		<path d="M350.7,126.6c0-2.1,1.2-3.5,3-3.5c1.8,0,2.8,1.4,2.8,3.3v0.3h-5c0,1.7,0.9,2.7,2.2,2.7c1,0,1.7-0.6,1.9-1.5l0.8,0.2
			c-0.4,1.2-1.3,2-2.7,2C352,130.1,350.7,128.7,350.7,126.6z M351.6,126h4.1c0-1.1-0.6-2.2-1.9-2.2
			C352.6,123.8,351.8,124.6,351.6,126z"/>
		<path d="M358.2,120.6h1v1.2h-1V120.6z M359.1,130h-0.9v-6.8h0.9V130z"/>
		<path d="M361.3,123.2h0.9v1.1c0.4-0.7,1.1-1.2,2.1-1.2c1.5,0,2.2,1,2.2,2.5v4.5h-0.9v-4.3c0-1.1-0.5-1.8-1.6-1.8
			c-0.9,0-1.9,0.8-1.9,2v4.1h-0.9V123.2z"/>
		<path d="M371.1,132.4c-1.4,0-2.5-0.7-2.8-1.9l0.8-0.3c0.2,0.9,1,1.5,2,1.5c1.3,0,2.2-0.7,2.2-2.2v-1c-0.4,0.8-1.2,1.4-2.2,1.4
			c-1.9,0-3-1.6-3-3.4c0-1.8,1.1-3.4,3-3.4c1,0,1.8,0.6,2.2,1.4v-1.2h0.9v6.2C374.1,131.4,372.9,132.4,371.1,132.4z M371.2,123.8
			c-1.4,0-2.2,1.1-2.2,2.6c0,1.5,0.8,2.6,2.2,2.6c1,0,2.1-0.7,2.1-2.4v-0.3C373.3,124.6,372.2,123.8,371.2,123.8z"/>
		<path d="M317.1,148.1c2.4,0,4.1,1.9,4.1,4.8c0,2.8-1.8,4.8-4.1,4.8c-2.4,0-4.1-2-4.1-4.8C313,150.1,314.7,148.1,317.1,148.1z
			 M317.1,148.9c-1.9,0-3.2,1.6-3.2,4s1.3,4,3.2,4c1.9,0,3.2-1.6,3.2-4S319,148.9,317.1,148.9z"/>
		<path d="M323.8,156.4v3.5h-0.9v-9.1h0.9v1.2c0.4-0.8,1.2-1.3,2.2-1.3c1.9,0,2.9,1.6,2.9,3.5c0,1.9-1.1,3.5-2.9,3.5
			C325,157.7,324.2,157.2,323.8,156.4z M323.7,154.5c0,1.8,1.2,2.5,2.1,2.5c1.4,0,2.2-1.2,2.2-2.8c0-1.6-0.8-2.8-2.2-2.8
			c-0.9,0-2.1,0.7-2.1,2.5V154.5z"/>
		<path d="M330.8,151.5h-1.1v-0.7h1.1v-2h0.8v2h1.6v0.7h-1.6v4.4c0,0.8,0.4,1,1,1c0.3,0,0.5,0,0.8-0.1v0.8c-0.3,0.1-0.6,0.1-1,0.1
			c-1.1,0-1.7-0.4-1.7-1.6V151.5z"/>
		<path d="M335,148.2h1v1.2h-1V148.2z M335.9,157.6H335v-6.8h0.9V157.6z"/>
		<path d="M338.9,157.6h-0.9v-6.8h0.9v1.1c0.4-0.7,1.1-1.2,2.1-1.2c1,0,1.6,0.5,1.9,1.3c0.4-0.7,1.1-1.3,2.2-1.3
			c1.4,0,2.2,1,2.2,2.5v4.5h-0.9v-4.3c0-1.1-0.4-1.8-1.5-1.8c-0.9,0-1.8,0.8-1.8,2v4.1h-0.9v-4.3c0-1.1-0.4-1.8-1.5-1.8
			c-0.9,0-1.8,0.8-1.8,2V157.6z"/>
		<path d="M349.4,148.2h1v1.2h-1V148.2z M350.3,157.6h-0.9v-6.8h0.9V157.6z"/>
		<path d="M352.4,155.6c0.3,0.9,1.2,1.4,2.2,1.4c0.9,0,1.7-0.4,1.7-1.3s-0.7-1-1.9-1.2c-1.2-0.3-2.3-0.5-2.3-1.8c0-1.2,1-2,2.4-2
			c1.2,0,2.2,0.6,2.5,1.5l-0.7,0.4c-0.3-0.7-0.9-1.2-1.9-1.2c-0.9,0-1.5,0.5-1.5,1.2c0,0.8,0.7,0.9,1.7,1.1c1.2,0.3,2.4,0.5,2.4,1.9
			c0,1.2-1.1,2.1-2.5,2.1c-1.2,0-2.4-0.5-2.9-1.7L352.4,155.6z"/>
		<path d="M359.6,157.6h-0.9v-6.8h0.9v1.1c0.4-0.7,1.1-1.2,2.1-1.2c1,0,1.6,0.5,1.9,1.3c0.4-0.7,1.1-1.3,2.2-1.3
			c1.4,0,2.2,1,2.2,2.5v4.5h-0.9v-4.3c0-1.1-0.4-1.8-1.5-1.8c-0.9,0-1.8,0.8-1.8,2v4.1h-0.9v-4.3c0-1.1-0.4-1.8-1.5-1.8
			c-0.9,0-1.8,0.8-1.8,2V157.6z"/>
	</g>
</g>
<g>
	<g>
		<path d="M475.4,69.8v2.9h-0.8v-2.9h-2.9V69h2.9v-2.9h0.8V69h2.9v0.8H475.4z"/>
		<path d="M485.2,66.8c-0.3-1-0.9-1.7-2.1-1.7c-1.5,0-2.8,1.4-2.8,3.9c0,0.1,0,0.2,0,0.4c0.4-1,1.4-1.8,2.7-1.8c1.7,0,3,1.4,3,3.1
			c0,1.8-1.4,3.2-3.2,3.2c-2.4,0-3.4-2.1-3.4-4.7c0-3,1.6-4.9,3.6-4.9c1.6,0,2.5,0.9,2.9,2.2L485.2,66.8z M482.9,68.4
			c-1.3,0-2.3,1-2.3,2.4c0,1.4,1,2.4,2.3,2.4c1.3,0,2.3-1,2.3-2.4C485.2,69.4,484.2,68.4,482.9,68.4z"/>
		<path d="M488.9,64.3c1.1,0,1.7,0.9,1.7,2.3s-0.6,2.3-1.7,2.3s-1.7-0.9-1.7-2.3S487.8,64.3,488.9,64.3z M488.9,68.3
			c0.6,0,1-0.7,1-1.6c0-1-0.4-1.7-1-1.7s-1,0.7-1,1.7C487.9,67.6,488.3,68.3,488.9,68.3z M488.8,73.8H488l6.2-9.3h0.8L488.8,73.8z
			 M494.1,73.9c-1.1,0-1.7-0.9-1.7-2.3s0.6-2.3,1.7-2.3c1.1,0,1.7,0.9,1.7,2.3S495.2,73.9,494.1,73.9z M494.1,73.3
			c0.6,0,1-0.7,1-1.7c0-1-0.4-1.6-1-1.6s-1,0.7-1,1.6C493.1,72.7,493.5,73.3,494.1,73.3z"/>
		<path d="M475.4,97.4v2.9h-0.8v-2.9h-2.9v-0.8h2.9v-2.9h0.8v2.9h2.9v0.8H475.4z"/>
		<path d="M483.8,101.4v-2.6h-4.6v-0.7l4.3-6.1h1.2v6h1.9v0.8h-1.9v2.6H483.8z M483.8,98.1v-5.1l-3.6,5.1H483.8z"/>
		<path d="M489.1,91.9c1.1,0,1.7,0.9,1.7,2.3s-0.6,2.3-1.7,2.3s-1.7-0.9-1.7-2.3S488,91.9,489.1,91.9z M489.1,95.9
			c0.6,0,1-0.7,1-1.6c0-1-0.4-1.7-1-1.7s-1,0.7-1,1.7C488.1,95.2,488.5,95.9,489.1,95.9z M489,101.4h-0.8l6.2-9.3h0.8L489,101.4z
			 M494.3,101.5c-1.1,0-1.7-0.9-1.7-2.3s0.6-2.3,1.7-2.3c1.1,0,1.7,0.9,1.7,2.3S495.4,101.5,494.3,101.5z M494.3,100.9
			c0.6,0,1-0.7,1-1.7c0-1-0.4-1.6-1-1.6s-1,0.7-1,1.6C493.3,100.3,493.7,100.9,494.3,100.9z"/>
		<path d="M475.4,125v2.9h-0.8V125h-2.9v-0.8h2.9v-2.9h0.8v2.9h2.9v0.8H475.4z"/>
		<path d="M483.8,129v-2.6h-4.6v-0.7l4.3-6.1h1.2v6h1.9v0.8h-1.9v2.6H483.8z M483.8,125.7v-5.1l-3.6,5.1H483.8z"/>
		<path d="M489.1,119.5c1.1,0,1.7,0.9,1.7,2.3s-0.6,2.3-1.7,2.3s-1.7-0.9-1.7-2.3S488,119.5,489.1,119.5z M489.1,123.5
			c0.6,0,1-0.7,1-1.6c0-1-0.4-1.7-1-1.7s-1,0.7-1,1.7C488.1,122.8,488.5,123.5,489.1,123.5z M489,129h-0.8l6.2-9.3h0.8L489,129z
			 M494.3,129.1c-1.1,0-1.7-0.9-1.7-2.3s0.6-2.3,1.7-2.3c1.1,0,1.7,0.9,1.7,2.3S495.4,129.1,494.3,129.1z M494.3,128.5
			c0.6,0,1-0.7,1-1.7c0-1-0.4-1.6-1-1.6s-1,0.7-1,1.6C493.3,127.9,493.7,128.5,494.3,128.5z"/>
		<path d="M475.4,152.6v2.9h-0.8v-2.9h-2.9v-0.8h2.9v-2.9h0.8v2.9h2.9v0.8H475.4z"/>
		<path d="M482.4,153.3c1.3-1.1,2.1-1.9,2.1-3.2c0-1.3-0.8-2.1-2.1-2.1c-1.2,0-2.1,0.9-2.1,2.1c0,0.4,0.1,0.8,0.2,1.1h-0.9
			c-0.2-0.4-0.2-0.8-0.2-1.2c0-1.6,1.3-2.8,3-2.8c1.8,0,3,1.2,3,2.9c0,1.5-1,2.6-2.3,3.7l-2.5,2.1h5.1v0.8h-6.3v-0.8L482.4,153.3z"
			/>
		<path d="M488.5,147.1c1.1,0,1.7,0.9,1.7,2.3s-0.6,2.3-1.7,2.3s-1.7-0.9-1.7-2.3S487.4,147.1,488.5,147.1z M488.5,151.1
			c0.6,0,1-0.7,1-1.6c0-1-0.4-1.7-1-1.7s-1,0.7-1,1.7C487.5,150.4,487.9,151.1,488.5,151.1z M488.4,156.6h-0.8l6.2-9.3h0.8
			L488.4,156.6z M493.7,156.7c-1.1,0-1.7-0.9-1.7-2.3s0.6-2.3,1.7-2.3c1.1,0,1.7,0.9,1.7,2.3S494.8,156.7,493.7,156.7z M493.7,156.1
			c0.6,0,1-0.7,1-1.7c0-1-0.4-1.6-1-1.6s-1,0.7-1,1.6C492.7,155.5,493.1,156.1,493.7,156.1z"/>
	</g>
</g>
<g>
	<g>
		<path d="M318.8,205.3l2.2,8l2.2-8h0.9l-2.6,9.3h-0.9l-2.2-7.8l-2.2,7.8h-0.9l-2.6-9.3h0.9l2.2,8l2.2-8H318.8z"/>
		<path d="M324.9,211.2c0-2.1,1.2-3.5,3-3.5c1.8,0,2.8,1.4,2.8,3.3v0.3h-5c0,1.7,0.9,2.7,2.2,2.7c1,0,1.7-0.6,1.9-1.5l0.8,0.2
			c-0.4,1.2-1.3,2-2.7,2C326.1,214.7,324.9,213.3,324.9,211.2z M325.7,210.6h4.1c0-1.1-0.6-2.2-1.9-2.2
			C326.8,208.4,325.9,209.2,325.7,210.6z"/>
		<path d="M333.2,214.6h-0.9v-9.3h0.9V214.6z"/>
		<path d="M336.3,214.6h-0.9v-9.3h0.9V214.6z"/>
		<path d="M338.2,210.4h3.5v0.8h-3.5V210.4z"/>
		<path d="M344.4,213.4v1.2h-0.9v-9.3h0.9v3.8c0.4-0.8,1.2-1.3,2.2-1.3c1.9,0,2.9,1.6,2.9,3.5c0,1.9-1.1,3.5-2.9,3.5
			C345.6,214.7,344.8,214.2,344.4,213.4z M344.4,211.5c0,1.8,1.2,2.5,2.1,2.5c1.4,0,2.2-1.2,2.2-2.8s-0.8-2.8-2.2-2.8
			c-0.9,0-2.1,0.7-2.1,2.5V211.5z"/>
		<path d="M350.7,211.2c0-2.1,1.2-3.5,3-3.5c1.8,0,2.8,1.4,2.8,3.3v0.3h-5c0,1.7,0.9,2.7,2.2,2.7c1,0,1.7-0.6,1.9-1.5l0.8,0.2
			c-0.4,1.2-1.3,2-2.7,2C352,214.7,350.7,213.3,350.7,211.2z M351.6,210.6h4.1c0-1.1-0.6-2.2-1.9-2.2
			C352.6,208.4,351.8,209.2,351.6,210.6z"/>
		<path d="M358.2,205.3h1v1.2h-1V205.3z M359.1,214.6h-0.9v-6.8h0.9V214.6z"/>
		<path d="M361.3,207.8h0.9v1.1c0.4-0.7,1.1-1.2,2.1-1.2c1.5,0,2.2,1,2.2,2.5v4.5h-0.9v-4.3c0-1.1-0.5-1.8-1.6-1.8
			c-0.9,0-1.9,0.8-1.9,2v4.1h-0.9V207.8z"/>
		<path d="M371.1,217.1c-1.4,0-2.5-0.7-2.8-1.9l0.8-0.3c0.2,0.9,1,1.5,2,1.5c1.3,0,2.2-0.7,2.2-2.2v-1c-0.4,0.8-1.2,1.4-2.2,1.4
			c-1.9,0-3-1.6-3-3.4c0-1.8,1.1-3.4,3-3.4c1,0,1.8,0.6,2.2,1.4v-1.2h0.9v6.2C374.1,216,372.9,217.1,371.1,217.1z M371.2,208.4
			c-1.4,0-2.2,1.1-2.2,2.6c0,1.5,0.8,2.6,2.2,2.6c1,0,2.1-0.7,2.1-2.4v-0.3C373.3,209.2,372.2,208.4,371.2,208.4z"/>
		<path d="M314.5,242.2h-0.9v-9.3h3.4c1.9,0,3.1,0.9,3.1,2.6c0,1.7-1.2,2.6-3.1,2.6h-2.5V242.2z M316.9,237.2c1.5,0,2.3-0.7,2.3-1.8
			c0-1.2-0.8-1.8-2.3-1.8h-2.5v3.6H316.9z"/>
		<path d="M324.7,236.2c-0.2,0-0.4-0.1-0.6-0.1c-1,0-1.8,0.9-1.8,2.2v3.8h-0.9v-6.8h0.9v1.3c0.3-0.7,0.9-1.4,1.9-1.4
			c0.2,0,0.4,0,0.5,0.1V236.2z"/>
		<path d="M328.8,242.3c-1.8,0-3-1.4-3-3.5c0-2.1,1.2-3.5,3-3.5s3.1,1.4,3.1,3.5C331.8,240.9,330.6,242.3,328.8,242.3z M328.8,241.6
			c1.3,0,2.2-1.1,2.2-2.8c0-1.7-0.9-2.8-2.2-2.8c-1.3,0-2.2,1.1-2.2,2.8C326.6,240.5,327.5,241.6,328.8,241.6z"/>
		<path d="M333,238.8c0-1.9,1.1-3.5,2.9-3.5c1,0,1.8,0.5,2.2,1.3v-3.8h0.9v9.3h-0.9V241c-0.4,0.8-1.2,1.3-2.2,1.3
			C334.1,242.3,333,240.7,333,238.8z M336.1,236c-1.4,0-2.2,1.2-2.2,2.8c0,1.6,0.8,2.8,2.2,2.8c0.9,0,2.1-0.7,2.1-2.5v-0.6
			C338.2,236.7,337,236,336.1,236z"/>
		<path d="M346.4,242.2h-0.9v-1.1c-0.4,0.7-1.1,1.2-2.1,1.2c-1.5,0-2.2-1-2.2-2.4v-4.5h0.9v4.3c0,1.1,0.5,1.8,1.6,1.8
			c0.9,0,1.9-0.7,1.9-2v-4.1h0.9V242.2z"/>
		<path d="M351.2,241.6c1,0,1.6-0.7,1.8-1.6l0.8,0.3c-0.3,1.2-1.2,2-2.6,2c-1.8,0-3.1-1.4-3.1-3.5c0-2.1,1.2-3.5,3.1-3.5
			c1.4,0,2.3,0.8,2.6,2l-0.8,0.3c-0.2-0.9-0.8-1.6-1.8-1.6c-1.3,0-2.2,1.1-2.2,2.8C348.9,240.5,349.8,241.6,351.2,241.6z"/>
		<path d="M355.5,236.1h-1.1v-0.7h1.1v-2h0.8v2h1.6v0.7h-1.6v4.4c0,0.8,0.4,1,1,1c0.3,0,0.5,0,0.8-0.1v0.8c-0.3,0.1-0.6,0.1-1,0.1
			c-1.1,0-1.7-0.4-1.7-1.6V236.1z"/>
		<path d="M359.7,232.9h1v1.2h-1V232.9z M360.6,242.2h-0.9v-6.8h0.9V242.2z"/>
		<path d="M364.6,242.2l-2.6-6.8h0.9l2.1,5.7l2.1-5.7h0.9l-2.6,6.8H364.6z"/>
		<path d="M369.3,232.9h1v1.2h-1V232.9z M370.2,242.2h-0.9v-6.8h0.9V242.2z"/>
		<path d="M372.6,236.1h-1.1v-0.7h1.1v-2h0.8v2h1.6v0.7h-1.6v4.4c0,0.8,0.4,1,1,1c0.3,0,0.5,0,0.8-0.1v0.8c-0.3,0.1-0.6,0.1-1,0.1
			c-1.1,0-1.7-0.4-1.7-1.6V236.1z"/>
		<path d="M377.1,244.6c-0.3,0-0.4,0-0.6-0.1v-0.8c0.2,0.1,0.4,0.1,0.6,0.1c0.5,0,0.8-0.2,1.1-1l0.4-0.9l-2.5-6.6h0.9l2.1,5.5
			l2.1-5.5h0.9l-3,7.6C378.6,244,378.2,244.6,377.1,244.6z"/>
		<path d="M314.5,269.8h-0.9v-9.3h3.4c1.9,0,3.1,0.9,3.1,2.6c0,1.5-1,2.4-2.6,2.6l2.8,4.2h-1.1l-2.7-4.2h-2V269.8z M316.9,264.8
			c1.5,0,2.3-0.7,2.3-1.8c0-1.2-0.8-1.8-2.3-1.8h-2.5v3.6H316.9z"/>
		<path d="M321.4,266.4c0-2.1,1.2-3.5,3-3.5c1.8,0,2.8,1.4,2.8,3.3v0.3h-5c0,1.7,0.9,2.7,2.2,2.7c1,0,1.7-0.6,1.9-1.5l0.8,0.2
			c-0.4,1.2-1.3,2-2.7,2C322.6,269.9,321.4,268.5,321.4,266.4z M322.3,265.8h4.1c0-1.1-0.6-2.2-1.9-2.2
			C323.3,263.6,322.5,264.4,322.3,265.8z"/>
		<path d="M328.8,267.8c0.3,0.9,1.2,1.4,2.2,1.4c0.9,0,1.7-0.4,1.7-1.3s-0.7-1-1.9-1.2c-1.2-0.3-2.3-0.5-2.3-1.8c0-1.2,1-2,2.4-2
			c1.2,0,2.2,0.6,2.5,1.5l-0.7,0.4c-0.3-0.7-0.9-1.2-1.9-1.2c-0.9,0-1.5,0.5-1.5,1.2c0,0.8,0.7,0.9,1.7,1.1c1.2,0.3,2.4,0.5,2.4,1.9
			c0,1.2-1.1,2.1-2.5,2.1c-1.2,0-2.4-0.5-2.9-1.7L328.8,267.8z"/>
		<path d="M335.1,260.5h1v1.2h-1V260.5z M336,269.8h-0.9V263h0.9V269.8z"/>
		<path d="M339,269.8h-0.9v-9.3h0.9V269.8z"/>
		<path d="M341.2,260.5h1v1.2h-1V260.5z M342.1,269.8h-0.9V263h0.9V269.8z"/>
		<path d="M343.8,266.4c0-2.1,1.2-3.5,3-3.5c1.8,0,2.8,1.4,2.8,3.3v0.3h-5c0,1.7,0.9,2.7,2.2,2.7c1,0,1.7-0.6,1.9-1.5l0.8,0.2
			c-0.4,1.2-1.3,2-2.7,2C345,269.9,343.8,268.5,343.8,266.4z M344.7,265.8h4.1c0-1.1-0.6-2.2-1.9-2.2
			C345.7,263.6,344.8,264.4,344.7,265.8z"/>
		<path d="M351.3,263h0.9v1.1c0.4-0.7,1.1-1.2,2.1-1.2c1.5,0,2.2,1,2.2,2.5v4.5h-0.9v-4.3c0-1.1-0.5-1.8-1.6-1.8
			c-0.9,0-1.9,0.8-1.9,2v4.1h-0.9V263z"/>
		<path d="M361.3,269.2c1,0,1.6-0.7,1.8-1.6l0.8,0.3c-0.3,1.2-1.2,2-2.6,2c-1.8,0-3.1-1.4-3.1-3.5c0-2.1,1.2-3.5,3.1-3.5
			c1.4,0,2.3,0.8,2.6,2l-0.8,0.3c-0.2-0.9-0.8-1.6-1.8-1.6c-1.3,0-2.2,1.1-2.2,2.8C359,268.1,359.9,269.2,361.3,269.2z"/>
		<path d="M364.9,266.4c0-2.1,1.2-3.5,3-3.5c1.8,0,2.8,1.4,2.8,3.3v0.3h-5c0,1.7,0.9,2.7,2.2,2.7c1,0,1.7-0.6,1.9-1.5l0.8,0.2
			c-0.4,1.2-1.3,2-2.7,2C366.2,269.9,364.9,268.5,364.9,266.4z M365.8,265.8h4.1c0-1.1-0.6-2.2-1.9-2.2
			C366.8,263.6,366,264.4,365.8,265.8z"/>
		<path d="M317.1,287.9c2.4,0,4.1,1.9,4.1,4.8c0,2.8-1.8,4.8-4.1,4.8c-2.4,0-4.1-2-4.1-4.8C313,289.9,314.7,287.9,317.1,287.9z
			 M317.1,288.7c-1.9,0-3.2,1.6-3.2,4s1.3,4,3.2,4c1.9,0,3.2-1.6,3.2-4S319,288.7,317.1,288.7z"/>
		<path d="M323.8,296.2v3.5h-0.9v-9.1h0.9v1.2c0.4-0.8,1.2-1.3,2.2-1.3c1.9,0,2.9,1.6,2.9,3.5c0,1.9-1.1,3.5-2.9,3.5
			C325,297.5,324.2,297,323.8,296.2z M323.7,294.3c0,1.8,1.2,2.5,2.1,2.5c1.4,0,2.2-1.2,2.2-2.8c0-1.6-0.8-2.8-2.2-2.8
			c-0.9,0-2.1,0.7-2.1,2.5V294.3z"/>
		<path d="M330.8,291.3h-1.1v-0.7h1.1v-2h0.8v2h1.6v0.7h-1.6v4.4c0,0.8,0.4,1,1,1c0.3,0,0.5,0,0.8-0.1v0.8c-0.3,0.1-0.6,0.1-1,0.1
			c-1.1,0-1.7-0.4-1.7-1.6V291.3z"/>
		<path d="M335,288.1h1v1.2h-1V288.1z M335.9,297.4H335v-6.8h0.9V297.4z"/>
		<path d="M338.9,297.4h-0.9v-6.8h0.9v1.1c0.4-0.7,1.1-1.2,2.1-1.2c1,0,1.6,0.5,1.9,1.3c0.4-0.7,1.1-1.3,2.2-1.3
			c1.4,0,2.2,1,2.2,2.5v4.5h-0.9v-4.3c0-1.1-0.4-1.8-1.5-1.8c-0.9,0-1.8,0.8-1.8,2v4.1h-0.9v-4.3c0-1.1-0.4-1.8-1.5-1.8
			c-0.9,0-1.8,0.8-1.8,2V297.4z"/>
		<path d="M349.4,288.1h1v1.2h-1V288.1z M350.3,297.4h-0.9v-6.8h0.9V297.4z"/>
		<path d="M352.4,295.4c0.3,0.9,1.2,1.4,2.2,1.4c0.9,0,1.7-0.4,1.7-1.3s-0.7-1-1.9-1.2c-1.2-0.3-2.3-0.5-2.3-1.8c0-1.2,1-2,2.4-2
			c1.2,0,2.2,0.6,2.5,1.5l-0.7,0.4c-0.3-0.7-0.9-1.2-1.9-1.2c-0.9,0-1.5,0.5-1.5,1.2c0,0.8,0.7,0.9,1.7,1.1c1.2,0.3,2.4,0.5,2.4,1.9
			c0,1.2-1.1,2.1-2.5,2.1c-1.2,0-2.4-0.5-2.9-1.7L352.4,295.4z"/>
		<path d="M359.6,297.4h-0.9v-6.8h0.9v1.1c0.4-0.7,1.1-1.2,2.1-1.2c1,0,1.6,0.5,1.9,1.3c0.4-0.7,1.1-1.3,2.2-1.3
			c1.4,0,2.2,1,2.2,2.5v4.5h-0.9v-4.3c0-1.1-0.4-1.8-1.5-1.8c-0.9,0-1.8,0.8-1.8,2v4.1h-0.9v-4.3c0-1.1-0.4-1.8-1.5-1.8
			c-0.9,0-1.8,0.8-1.8,2V297.4z"/>
	</g>
</g>
<g>
	<g>
		<path d="M475.4,210.5v2.9h-0.8v-2.9h-2.9v-0.8h2.9v-2.9h0.8v2.9h2.9v0.8H475.4z"/>
		<path d="M480.3,212.2c0.3,1,0.9,1.7,2.1,1.7c1.5,0,2.8-1.4,2.8-3.9c0-0.1,0-0.2,0-0.4c-0.4,1-1.4,1.8-2.7,1.8c-1.7,0-3-1.4-3-3.1
			c0-1.8,1.4-3.2,3.2-3.2c2.4,0,3.4,2.1,3.4,4.7c0,3-1.6,4.9-3.6,4.9c-1.6,0-2.5-0.9-2.9-2.2L480.3,212.2z M482.6,210.6
			c1.3,0,2.3-1,2.3-2.4c0-1.4-1-2.4-2.3-2.4c-1.3,0-2.3,1-2.3,2.4C480.3,209.6,481.3,210.6,482.6,210.6z"/>
		<path d="M488.9,205.1c1.1,0,1.7,0.9,1.7,2.3s-0.6,2.3-1.7,2.3s-1.7-0.9-1.7-2.3S487.8,205.1,488.9,205.1z M488.9,209
			c0.6,0,1-0.7,1-1.6c0-1-0.4-1.7-1-1.7s-1,0.7-1,1.7C487.9,208.4,488.3,209,488.9,209z M488.8,214.6H488l6.2-9.3h0.8L488.8,214.6z
			 M494.1,214.7c-1.1,0-1.7-0.9-1.7-2.3s0.6-2.3,1.7-2.3c1.1,0,1.7,0.9,1.7,2.3S495.2,214.7,494.1,214.7z M494.1,214.1
			c0.6,0,1-0.7,1-1.7c0-1-0.4-1.6-1-1.6s-1,0.7-1,1.6C493.1,213.4,493.5,214.1,494.1,214.1z"/>
		<path d="M475.4,238.1v2.9h-0.8v-2.9h-2.9v-0.8h2.9v-2.9h0.8v2.9h2.9v0.8H475.4z"/>
		<path d="M479.9,233.6v1.7h-0.8v-2.5h6.5v0.8c-2.3,2.6-3,5.1-3,8.6h-0.9c0-3.7,1-6.4,3-8.5H479.9z"/>
		<path d="M488.1,232.7c1.1,0,1.7,0.9,1.7,2.3c0,1.4-0.6,2.3-1.7,2.3s-1.7-0.9-1.7-2.3C486.4,233.6,487.1,232.7,488.1,232.7z
			 M488.1,236.6c0.6,0,1-0.7,1-1.6c0-1-0.4-1.7-1-1.7s-1,0.7-1,1.7C487.1,236,487.5,236.6,488.1,236.6z M488.1,242.2h-0.8l6.2-9.3
			h0.8L488.1,242.2z M493.3,242.3c-1.1,0-1.7-0.9-1.7-2.3s0.6-2.3,1.7-2.3c1.1,0,1.7,0.9,1.7,2.3S494.4,242.3,493.3,242.3z
			 M493.3,241.7c0.6,0,1-0.7,1-1.7c0-1-0.4-1.6-1-1.6s-1,0.7-1,1.6C492.3,241,492.7,241.7,493.3,241.7z"/>
		<path d="M475.4,265.7v2.9h-0.8v-2.9h-2.9V265h2.9v-2.9h0.8v2.9h2.9v0.8H475.4z"/>
		<path d="M479.9,261.2v1.7h-0.8v-2.5h6.5v0.8c-2.3,2.6-3,5.1-3,8.6h-0.9c0-3.7,1-6.4,3-8.5H479.9z"/>
		<path d="M488.1,260.3c1.1,0,1.7,0.9,1.7,2.3s-0.6,2.3-1.7,2.3s-1.7-0.9-1.7-2.3S487.1,260.3,488.1,260.3z M488.1,264.2
			c0.6,0,1-0.7,1-1.6c0-1-0.4-1.7-1-1.7s-1,0.7-1,1.7C487.1,263.6,487.5,264.2,488.1,264.2z M488.1,269.8h-0.8l6.2-9.3h0.8
			L488.1,269.8z M493.3,269.9c-1.1,0-1.7-0.9-1.7-2.3c0-1.4,0.6-2.3,1.7-2.3c1.1,0,1.7,0.9,1.7,2.3
			C495.1,269,494.4,269.9,493.3,269.9z M493.3,269.3c0.6,0,1-0.7,1-1.7c0-1-0.4-1.6-1-1.6s-1,0.7-1,1.6
			C492.3,268.6,492.7,269.3,493.3,269.3z"/>
		<path d="M475.4,293.3v2.9h-0.8v-2.9h-2.9v-0.8h2.9v-2.9h0.8v2.9h2.9v0.8H475.4z"/>
		<path d="M479.3,294.7l0.9-0.2c0.2,1.4,1.2,2.3,2.5,2.3c1.3,0,2.2-0.8,2.2-2c0-1.2-1-1.9-2.3-1.9h-1.1v-0.8h1.1c1.2,0,2-0.6,2-1.7
			c0-1.1-0.8-1.7-2-1.7c-1.2,0-2.1,0.8-2.3,2.1l-0.8-0.2c0.3-1.5,1.4-2.7,3.2-2.7c1.8,0,2.8,1,2.8,2.5c0,1.1-0.7,1.8-1.5,2.1
			c1,0.2,1.8,1,1.8,2.3c0,1.5-1.3,2.7-3.1,2.7C481,297.5,479.6,296.6,479.3,294.7z"/>
		<path d="M488.7,287.9c1.1,0,1.7,0.9,1.7,2.3s-0.6,2.3-1.7,2.3s-1.7-0.9-1.7-2.3S487.6,287.9,488.7,287.9z M488.7,291.8
			c0.6,0,1-0.7,1-1.6c0-1-0.4-1.7-1-1.7s-1,0.7-1,1.7C487.7,291.2,488.1,291.8,488.7,291.8z M488.6,297.4h-0.8l6.2-9.3h0.8
			L488.6,297.4z M493.9,297.5c-1.1,0-1.7-0.9-1.7-2.3c0-1.4,0.6-2.3,1.7-2.3c1.1,0,1.7,0.9,1.7,2.3
			C495.6,296.6,495,297.5,493.9,297.5z M493.9,296.9c0.6,0,1-0.7,1-1.7c0-1-0.4-1.6-1-1.6s-1,0.7-1,1.6
			C492.9,296.2,493.3,296.9,493.9,296.9z"/>
	</g>
</g>
<g>
	<g>
		<path d="M314.5,359h-0.9v-9.3h3.4c1.9,0,3.1,0.9,3.1,2.6c0,1.5-1,2.4-2.6,2.6l2.8,4.2h-1.1l-2.7-4.2h-2V359z M316.9,354.1
			c1.5,0,2.3-0.6,2.3-1.8c0-1.2-0.8-1.8-2.3-1.8h-2.5v3.6H316.9z"/>
		<path d="M321.4,355.6c0-2.1,1.2-3.5,3-3.5c1.8,0,2.8,1.4,2.8,3.3v0.3h-5c0,1.7,0.9,2.7,2.2,2.7c1,0,1.7-0.6,1.9-1.5l0.8,0.2
			c-0.4,1.2-1.3,2-2.7,2C322.6,359.1,321.4,357.7,321.4,355.6z M322.3,355h4.1c0-1.1-0.6-2.2-1.9-2.2
			C323.3,352.8,322.5,353.7,322.3,355z"/>
		<path d="M328.8,357c0.3,0.9,1.2,1.4,2.2,1.4c0.9,0,1.7-0.4,1.7-1.3c0-0.8-0.7-1-1.9-1.2c-1.2-0.3-2.3-0.5-2.3-1.8c0-1.2,1-2,2.4-2
			c1.2,0,2.2,0.7,2.5,1.5l-0.7,0.4c-0.3-0.7-0.9-1.2-1.9-1.2c-0.9,0-1.5,0.5-1.5,1.2c0,0.8,0.7,0.9,1.7,1.1c1.2,0.3,2.4,0.5,2.4,1.9
			c0,1.2-1.1,2.1-2.5,2.1c-1.2,0-2.4-0.5-2.9-1.7L328.8,357z"/>
		<path d="M335.1,349.7h1v1.2h-1V349.7z M336,359h-0.9v-6.8h0.9V359z"/>
		<path d="M339,359h-0.9v-9.3h0.9V359z"/>
		<path d="M341.2,349.7h1v1.2h-1V349.7z M342.1,359h-0.9v-6.8h0.9V359z"/>
		<path d="M343.8,355.6c0-2.1,1.2-3.5,3-3.5c1.8,0,2.8,1.4,2.8,3.3v0.3h-5c0,1.7,0.9,2.7,2.2,2.7c1,0,1.7-0.6,1.9-1.5l0.8,0.2
			c-0.4,1.2-1.3,2-2.7,2C345,359.1,343.8,357.7,343.8,355.6z M344.7,355h4.1c0-1.1-0.6-2.2-1.9-2.2
			C345.7,352.8,344.8,353.7,344.7,355z"/>
		<path d="M351.3,352.2h0.9v1.1c0.4-0.7,1.1-1.2,2.1-1.2c1.5,0,2.2,1,2.2,2.5v4.5h-0.9v-4.3c0-1.1-0.5-1.8-1.6-1.8
			c-0.9,0-1.9,0.8-1.9,2v4.1h-0.9V352.2z"/>
		<path d="M361.3,358.4c1,0,1.6-0.7,1.8-1.6l0.8,0.3c-0.3,1.2-1.2,2-2.6,2c-1.8,0-3.1-1.4-3.1-3.5c0-2.1,1.2-3.5,3.1-3.5
			c1.4,0,2.3,0.8,2.6,2l-0.8,0.3c-0.2-0.9-0.8-1.6-1.8-1.6c-1.3,0-2.2,1.1-2.2,2.8C359,357.3,359.9,358.4,361.3,358.4z"/>
		<path d="M364.9,355.6c0-2.1,1.2-3.5,3-3.5c1.8,0,2.8,1.4,2.8,3.3v0.3h-5c0,1.7,0.9,2.7,2.2,2.7c1,0,1.7-0.6,1.9-1.5l0.8,0.2
			c-0.4,1.2-1.3,2-2.7,2C366.2,359.1,364.9,357.7,364.9,355.6z M365.8,355h4.1c0-1.1-0.6-2.2-1.9-2.2
			C366.8,352.8,366,353.7,365.8,355z"/>
		<path d="M314.5,386.6h-0.9v-9.3h3.4c1.9,0,3.1,0.9,3.1,2.6c0,1.7-1.2,2.6-3.1,2.6h-2.5V386.6z M316.9,381.7c1.5,0,2.3-0.7,2.3-1.8
			c0-1.2-0.8-1.8-2.3-1.8h-2.5v3.6H316.9z"/>
		<path d="M324.7,380.7c-0.2,0-0.4-0.1-0.6-0.1c-1,0-1.8,0.9-1.8,2.2v3.8h-0.9v-6.8h0.9v1.3c0.3-0.7,0.9-1.4,1.9-1.4
			c0.2,0,0.4,0,0.5,0.1V380.7z"/>
		<path d="M328.8,386.7c-1.8,0-3-1.4-3-3.5s1.2-3.5,3-3.5s3.1,1.4,3.1,3.5S330.6,386.7,328.8,386.7z M328.8,386
			c1.3,0,2.2-1.1,2.2-2.8c0-1.7-0.9-2.8-2.2-2.8c-1.3,0-2.2,1.1-2.2,2.8C326.6,384.9,327.5,386,328.8,386z"/>
		<path d="M333,383.2c0-1.9,1.1-3.5,2.9-3.5c1,0,1.8,0.5,2.2,1.3v-3.8h0.9v9.3h-0.9v-1.2c-0.4,0.8-1.2,1.3-2.2,1.3
			C334.1,386.7,333,385.1,333,383.2z M336.1,380.5c-1.4,0-2.2,1.2-2.2,2.8s0.8,2.8,2.2,2.8c0.9,0,2.1-0.7,2.1-2.5V383
			C338.2,381.1,337,380.5,336.1,380.5z"/>
		<path d="M346.4,386.6h-0.9v-1.1c-0.4,0.7-1.1,1.2-2.1,1.2c-1.5,0-2.2-1-2.2-2.4v-4.5h0.9v4.3c0,1.1,0.5,1.8,1.6,1.8
			c0.9,0,1.9-0.7,1.9-2v-4.1h0.9V386.6z"/>
		<path d="M351.2,386c1,0,1.6-0.7,1.8-1.6l0.8,0.3c-0.3,1.2-1.2,2-2.6,2c-1.8,0-3.1-1.4-3.1-3.5c0-2.1,1.2-3.5,3.1-3.5
			c1.4,0,2.3,0.8,2.6,2L353,382c-0.2-0.9-0.8-1.6-1.8-1.6c-1.3,0-2.2,1.1-2.2,2.8C348.9,384.9,349.8,386,351.2,386z"/>
		<path d="M355.5,380.6h-1.1v-0.7h1.1v-2h0.8v2h1.6v0.7h-1.6v4.4c0,0.8,0.4,1,1,1c0.3,0,0.5,0,0.8-0.1v0.8c-0.3,0.1-0.6,0.1-1,0.1
			c-1.1,0-1.7-0.4-1.7-1.6V380.6z"/>
		<path d="M359.7,377.3h1v1.2h-1V377.3z M360.6,386.6h-0.9v-6.8h0.9V386.6z"/>
		<path d="M364.6,386.6l-2.6-6.8h0.9l2.1,5.7l2.1-5.7h0.9l-2.6,6.8H364.6z"/>
		<path d="M369.3,377.3h1v1.2h-1V377.3z M370.2,386.6h-0.9v-6.8h0.9V386.6z"/>
		<path d="M372.6,380.6h-1.1v-0.7h1.1v-2h0.8v2h1.6v0.7h-1.6v4.4c0,0.8,0.4,1,1,1c0.3,0,0.5,0,0.8-0.1v0.8c-0.3,0.1-0.6,0.1-1,0.1
			c-1.1,0-1.7-0.4-1.7-1.6V380.6z"/>
		<path d="M377.1,389.1c-0.3,0-0.4,0-0.6-0.1v-0.8c0.2,0.1,0.4,0.1,0.6,0.1c0.5,0,0.8-0.2,1.1-1l0.4-0.9l-2.5-6.6h0.9l2.1,5.5
			l2.1-5.5h0.9l-3,7.6C378.6,388.5,378.2,389.1,377.1,389.1z"/>
		<path d="M318.8,404.9l2.2,8l2.2-8h0.9l-2.6,9.3h-0.9l-2.2-7.8l-2.2,7.8h-0.9l-2.6-9.3h0.9l2.2,8l2.2-8H318.8z"/>
		<path d="M324.9,410.8c0-2.1,1.2-3.5,3-3.5c1.8,0,2.8,1.4,2.8,3.3v0.3h-5c0,1.7,0.9,2.7,2.2,2.7c1,0,1.7-0.6,1.9-1.5l0.8,0.2
			c-0.4,1.2-1.3,2-2.7,2C326.1,414.3,324.9,412.9,324.9,410.8z M325.7,410.2h4.1c0-1.1-0.6-2.2-1.9-2.2
			C326.8,408,325.9,408.9,325.7,410.2z"/>
		<path d="M333.2,414.2h-0.9v-9.3h0.9V414.2z"/>
		<path d="M336.3,414.2h-0.9v-9.3h0.9V414.2z"/>
		<path d="M338.2,410h3.5v0.8h-3.5V410z"/>
		<path d="M344.4,413v1.2h-0.9v-9.3h0.9v3.8c0.4-0.8,1.2-1.3,2.2-1.3c1.9,0,2.9,1.6,2.9,3.5c0,1.9-1.1,3.5-2.9,3.5
			C345.6,414.3,344.8,413.8,344.4,413z M344.4,411.1c0,1.8,1.2,2.5,2.1,2.5c1.4,0,2.2-1.2,2.2-2.8c0-1.6-0.8-2.8-2.2-2.8
			c-0.9,0-2.1,0.7-2.1,2.5V411.1z"/>
		<path d="M350.7,410.8c0-2.1,1.2-3.5,3-3.5c1.8,0,2.8,1.4,2.8,3.3v0.3h-5c0,1.7,0.9,2.7,2.2,2.7c1,0,1.7-0.6,1.9-1.5l0.8,0.2
			c-0.4,1.2-1.3,2-2.7,2C352,414.3,350.7,412.9,350.7,410.8z M351.6,410.2h4.1c0-1.1-0.6-2.2-1.9-2.2
			C352.6,408,351.8,408.9,351.6,410.2z"/>
		<path d="M358.2,404.9h1v1.2h-1V404.9z M359.1,414.2h-0.9v-6.8h0.9V414.2z"/>
		<path d="M361.3,407.4h0.9v1.1c0.4-0.7,1.1-1.2,2.1-1.2c1.5,0,2.2,1,2.2,2.5v4.5h-0.9v-4.3c0-1.1-0.5-1.8-1.6-1.8
			c-0.9,0-1.9,0.8-1.9,2v4.1h-0.9V407.4z"/>
		<path d="M371.1,416.7c-1.4,0-2.5-0.7-2.8-1.9l0.8-0.3c0.2,0.9,1,1.5,2,1.5c1.3,0,2.2-0.7,2.2-2.2v-1c-0.4,0.8-1.2,1.4-2.2,1.4
			c-1.9,0-3-1.6-3-3.4c0-1.8,1.1-3.4,3-3.4c1,0,1.8,0.6,2.2,1.4v-1.2h0.9v6.2C374.1,415.6,372.9,416.7,371.1,416.7z M371.2,408.1
			c-1.4,0-2.2,1.1-2.2,2.6c0,1.5,0.8,2.6,2.2,2.6c1,0,2.1-0.7,2.1-2.4v-0.3C373.3,408.8,372.2,408.1,371.2,408.1z"/>
		<path d="M317.1,432.3c2.4,0,4.1,1.9,4.1,4.8s-1.8,4.8-4.1,4.8c-2.4,0-4.1-1.9-4.1-4.8S314.7,432.3,317.1,432.3z M317.1,433.2
			c-1.9,0-3.2,1.6-3.2,4c0,2.4,1.3,4,3.2,4c1.9,0,3.2-1.6,3.2-4C320.4,434.8,319,433.2,317.1,433.2z"/>
		<path d="M323.8,440.6v3.5h-0.9V435h0.9v1.2c0.4-0.8,1.2-1.3,2.2-1.3c1.9,0,2.9,1.6,2.9,3.5c0,1.9-1.1,3.5-2.9,3.5
			C325,441.9,324.2,441.4,323.8,440.6z M323.7,438.7c0,1.8,1.2,2.5,2.1,2.5c1.4,0,2.2-1.2,2.2-2.8c0-1.6-0.8-2.8-2.2-2.8
			c-0.9,0-2.1,0.7-2.1,2.5V438.7z"/>
		<path d="M330.8,435.8h-1.1V435h1.1v-2h0.8v2h1.6v0.7h-1.6v4.4c0,0.8,0.4,1,1,1c0.3,0,0.5,0,0.8-0.1v0.8c-0.3,0.1-0.6,0.1-1,0.1
			c-1.1,0-1.7-0.4-1.7-1.6V435.8z"/>
		<path d="M335,432.5h1v1.2h-1V432.5z M335.9,441.8H335V435h0.9V441.8z"/>
		<path d="M338.9,441.8h-0.9V435h0.9v1.1c0.4-0.7,1.1-1.2,2.1-1.2c1,0,1.6,0.5,1.9,1.3c0.4-0.7,1.1-1.3,2.2-1.3c1.4,0,2.2,1,2.2,2.5
			v4.5h-0.9v-4.3c0-1.1-0.4-1.8-1.5-1.8c-0.9,0-1.8,0.8-1.8,2v4.1h-0.9v-4.3c0-1.1-0.4-1.8-1.5-1.8c-0.9,0-1.8,0.8-1.8,2V441.8z"/>
		<path d="M349.4,432.5h1v1.2h-1V432.5z M350.3,441.8h-0.9V435h0.9V441.8z"/>
		<path d="M352.4,439.8c0.3,0.9,1.2,1.4,2.2,1.4c0.9,0,1.7-0.4,1.7-1.3c0-0.8-0.7-1-1.9-1.2c-1.2-0.3-2.3-0.5-2.3-1.8
			c0-1.2,1-2,2.4-2c1.2,0,2.2,0.6,2.5,1.5l-0.7,0.4c-0.3-0.7-0.9-1.2-1.9-1.2c-0.9,0-1.5,0.5-1.5,1.2c0,0.8,0.7,0.9,1.7,1.1
			c1.2,0.3,2.4,0.5,2.4,1.9c0,1.2-1.1,2.1-2.5,2.1c-1.2,0-2.4-0.5-2.9-1.7L352.4,439.8z"/>
		<path d="M359.6,441.8h-0.9V435h0.9v1.1c0.4-0.7,1.1-1.2,2.1-1.2c1,0,1.6,0.5,1.9,1.3c0.4-0.7,1.1-1.3,2.2-1.3c1.4,0,2.2,1,2.2,2.5
			v4.5h-0.9v-4.3c0-1.1-0.4-1.8-1.5-1.8c-0.9,0-1.8,0.8-1.8,2v4.1h-0.9v-4.3c0-1.1-0.4-1.8-1.5-1.8c-0.9,0-1.8,0.8-1.8,2V441.8z"/>
	</g>
</g>
<g>
	<g>
		<path d="M475.4,355v2.9h-0.8V355h-2.9v-0.8h2.9v-2.9h0.8v2.9h2.9v0.8H475.4z"/>
		<path d="M482.4,349.6v9.4h-0.9v-7.2h-2.2v-0.7l1.1-0.1c1-0.1,1.3-0.4,1.4-1.5H482.4z"/>
		<path d="M487.6,349.5c2.1,0,3.5,2,3.5,4.8s-1.3,4.8-3.5,4.8c-2.1,0-3.5-2-3.5-4.8S485.5,349.5,487.6,349.5z M487.6,358.3
			c1.6,0,2.6-1.7,2.6-4s-0.9-4-2.6-4c-1.6,0-2.6,1.7-2.6,4S486,358.3,487.6,358.3z"/>
		<path d="M494.1,349.5c1.1,0,1.7,0.9,1.7,2.3c0,1.4-0.6,2.3-1.7,2.3s-1.7-0.9-1.7-2.3C492.3,350.5,493,349.5,494.1,349.5z
			 M494.1,353.5c0.6,0,1-0.7,1-1.6c0-1-0.4-1.7-1-1.7s-1,0.7-1,1.7C493.1,352.8,493.4,353.5,494.1,353.5z M494,359h-0.8l6.2-9.3h0.8
			L494,359z M499.3,359.1c-1.1,0-1.7-0.9-1.7-2.3c0-1.4,0.6-2.3,1.7-2.3c1.1,0,1.7,0.9,1.7,2.3C501,358.2,500.3,359.1,499.3,359.1z
			 M499.3,358.5c0.6,0,1-0.7,1-1.7c0-1-0.4-1.6-1-1.6s-1,0.7-1,1.6C498.3,357.9,498.6,358.5,499.3,358.5z"/>
		<path d="M475.4,382.6v2.9h-0.8v-2.9h-2.9v-0.8h2.9v-2.9h0.8v2.9h2.9v0.8H475.4z"/>
		<path d="M479.9,378.1v1.7h-0.8v-2.5h6.5v0.8c-2.3,2.6-3,5.1-3,8.6h-0.9c0-3.7,1-6.4,3-8.5H479.9z"/>
		<path d="M488.1,377.1c1.1,0,1.7,0.9,1.7,2.3c0,1.4-0.6,2.3-1.7,2.3s-1.7-0.9-1.7-2.3C486.4,378.1,487.1,377.1,488.1,377.1z
			 M488.1,381.1c0.6,0,1-0.7,1-1.6c0-1-0.4-1.7-1-1.7s-1,0.7-1,1.7C487.1,380.4,487.5,381.1,488.1,381.1z M488.1,386.6h-0.8l6.2-9.3
			h0.8L488.1,386.6z M493.3,386.7c-1.1,0-1.7-0.9-1.7-2.3c0-1.4,0.6-2.3,1.7-2.3c1.1,0,1.7,0.9,1.7,2.3
			C495.1,385.8,494.4,386.7,493.3,386.7z M493.3,386.1c0.6,0,1-0.7,1-1.7c0-1-0.4-1.6-1-1.6s-1,0.7-1,1.6
			C492.3,385.5,492.7,386.1,493.3,386.1z"/>
		<path d="M475.4,410.2v2.9h-0.8v-2.9h-2.9v-0.8h2.9v-2.9h0.8v2.9h2.9v0.8H475.4z"/>
		<path d="M485.2,407.2c-0.3-1-0.9-1.7-2.1-1.7c-1.5,0-2.8,1.4-2.8,3.9c0,0.1,0,0.2,0,0.4c0.4-1,1.4-1.8,2.7-1.8c1.7,0,3,1.4,3,3.1
			c0,1.8-1.4,3.2-3.2,3.2c-2.4,0-3.4-2.1-3.4-4.7c0-3,1.6-4.9,3.6-4.9c1.6,0,2.5,0.9,2.9,2.2L485.2,407.2z M482.9,408.8
			c-1.3,0-2.3,1-2.3,2.4c0,1.4,1,2.4,2.3,2.4c1.3,0,2.3-1,2.3-2.4C485.2,409.8,484.2,408.8,482.9,408.8z"/>
		<path d="M488.9,404.7c1.1,0,1.7,0.9,1.7,2.3c0,1.4-0.6,2.3-1.7,2.3s-1.7-0.9-1.7-2.3C487.2,405.7,487.8,404.7,488.9,404.7z
			 M488.9,408.7c0.6,0,1-0.7,1-1.6c0-1-0.4-1.7-1-1.7s-1,0.7-1,1.7C487.9,408,488.3,408.7,488.9,408.7z M488.8,414.2H488l6.2-9.3
			h0.8L488.8,414.2z M494.1,414.3c-1.1,0-1.7-0.9-1.7-2.3c0-1.4,0.6-2.3,1.7-2.3c1.1,0,1.7,0.9,1.7,2.3
			C495.9,413.4,495.2,414.3,494.1,414.3z M494.1,413.7c0.6,0,1-0.7,1-1.7c0-1-0.4-1.6-1-1.6s-1,0.7-1,1.6
			C493.1,413.1,493.5,413.7,494.1,413.7z"/>
		<path d="M475.4,437.8v2.9h-0.8v-2.9h-2.9V437h2.9v-2.9h0.8v2.9h2.9v0.8H475.4z"/>
		<path d="M482.9,432.3c2.1,0,3.5,2,3.5,4.8s-1.3,4.8-3.5,4.8c-2.1,0-3.5-2-3.5-4.8S480.8,432.3,482.9,432.3z M482.9,441.1
			c1.6,0,2.6-1.7,2.6-4s-0.9-4-2.6-4c-1.6,0-2.6,1.7-2.6,4S481.3,441.1,482.9,441.1z"/>
		<path d="M489.4,432.3c1.1,0,1.7,0.9,1.7,2.3c0,1.4-0.6,2.3-1.7,2.3s-1.7-0.9-1.7-2.3C487.6,433.3,488.3,432.3,489.4,432.3z
			 M489.4,436.3c0.6,0,1-0.7,1-1.6c0-1-0.4-1.7-1-1.7s-1,0.7-1,1.7C488.4,435.6,488.7,436.3,489.4,436.3z M489.3,441.8h-0.8l6.2-9.3
			h0.8L489.3,441.8z M494.6,441.9c-1.1,0-1.7-0.9-1.7-2.3c0-1.4,0.6-2.3,1.7-2.3c1.1,0,1.7,0.9,1.7,2.3
			C496.3,441,495.6,441.9,494.6,441.9z M494.6,441.3c0.6,0,1-0.7,1-1.7c0-1-0.4-1.6-1-1.6s-1,0.7-1,1.6
			C493.6,440.7,493.9,441.3,494.6,441.3z"/>
	</g>
</g>
<rect x="138.3" y="47.3" class="st5" width="135.9" height="0.5"/>
<rect x="312.4" y="47.3" class="st5" width="193.3" height="0.5"/>
<rect x="1.6" y="189.7" class="st5" width="504.1" height="1"/>
<rect x="1.6" y="320.1" class="st5" width="504.1" height="1"/>
<g>
	<path class="st6" d="M315.7,160.9h187.4c1.8,0,3.3,1.5,3.3,3.3v0c0,1.8-1.5,3.3-3.3,3.3H315.7c-1.8,0-3.3-1.5-3.3-3.3v0
		C312.4,162.4,313.9,160.9,315.7,160.9z"/>
	<path class="st0" d="M315.7,160.9h32.3c1.8,0,3.3,1.5,3.3,3.3v0c0,1.8-1.5,3.3-3.3,3.3h-32.3c-1.8,0-3.3-1.5-3.3-3.3v0
		C312.4,162.4,313.9,160.9,315.7,160.9z"/>
</g>
<g>
	<path class="st6" d="M315.7,133.2h187.4c1.8,0,3.3,1.5,3.3,3.3l0,0c0,1.8-1.5,3.3-3.3,3.3H315.7c-1.8,0-3.3-1.5-3.3-3.3l0,0
		C312.4,134.6,313.9,133.2,315.7,133.2z"/>
	<path class="st0" d="M315.7,133.2h71.1c1.8,0,3.3,1.5,3.3,3.3l0,0c0,1.8-1.5,3.3-3.3,3.3h-71.1c-1.8,0-3.3-1.5-3.3-3.3l0,0
		C312.4,134.6,313.9,133.2,315.7,133.2z"/>
</g>
<g>
	<path class="st6" d="M315.7,105.4h187.4c1.8,0,3.3,1.5,3.3,3.3v0c0,1.8-1.5,3.3-3.3,3.3H315.7c-1.8,0-3.3-1.5-3.3-3.3v0
		C312.4,106.9,313.9,105.4,315.7,105.4z"/>
	<path class="st0" d="M315.7,105.4h71.1c1.8,0,3.3,1.5,3.3,3.3v0c0,1.8-1.5,3.3-3.3,3.3h-71.1c-1.8,0-3.3-1.5-3.3-3.3v0
		C312.4,106.9,313.9,105.4,315.7,105.4z"/>
</g>
<g>
	<path class="st6" d="M315.7,77.7h187.4c1.8,0,3.3,1.5,3.3,3.3l0,0c0,1.8-1.5,3.3-3.3,3.3H315.7c-1.8,0-3.3-1.5-3.3-3.3l0,0
		C312.4,79.1,313.9,77.7,315.7,77.7z"/>
	<path class="st0" d="M315.7,77.7h109.8c1.8,0,3.3,1.5,3.3,3.3l0,0c0,1.8-1.5,3.3-3.3,3.3H315.7c-1.8,0-3.3-1.5-3.3-3.3l0,0
		C312.4,79.1,313.9,77.7,315.7,77.7z"/>
</g>
<g>
	<path class="st6" d="M315.7,300.8h187.4c1.8,0,3.3,1.5,3.3,3.3l0,0c0,1.8-1.5,3.3-3.3,3.3H315.7c-1.8,0-3.3-1.5-3.3-3.3l0,0
		C312.4,302.2,313.9,300.8,315.7,300.8z"/>
	<path class="st2" d="M315.7,300.8h51.7c1.8,0,3.3,1.5,3.3,3.3l0,0c0,1.8-1.5,3.3-3.3,3.3h-51.7c-1.8,0-3.3-1.5-3.3-3.3l0,0
		C312.4,302.2,313.9,300.8,315.7,300.8z"/>
</g>
<g>
	<path class="st6" d="M315.7,273h187.4c1.8,0,3.3,1.5,3.3,3.3l0,0c0,1.8-1.5,3.3-3.3,3.3H315.7c-1.8,0-3.3-1.5-3.3-3.3l0,0
		C312.4,274.5,313.9,273,315.7,273z"/>
	<path class="st2" d="M315.7,273h129.2c1.8,0,3.3,1.5,3.3,3.3l0,0c0,1.8-1.5,3.3-3.3,3.3H315.7c-1.8,0-3.3-1.5-3.3-3.3l0,0
		C312.4,274.5,313.9,273,315.7,273z"/>
</g>
<g>
	<path class="st6" d="M315.7,245.3h187.4c1.8,0,3.3,1.5,3.3,3.3v0c0,1.8-1.5,3.3-3.3,3.3H315.7c-1.8,0-3.3-1.5-3.3-3.3v0
		C312.4,246.7,313.9,245.3,315.7,245.3z"/>
	<path class="st2" d="M315.7,245.3h129.2c1.8,0,3.3,1.5,3.3,3.3v0c0,1.8-1.5,3.3-3.3,3.3H315.7c-1.8,0-3.3-1.5-3.3-3.3v0
		C312.4,246.7,313.9,245.3,315.7,245.3z"/>
</g>
<g>
	<path class="st6" d="M315.7,217.5h187.4c1.8,0,3.3,1.5,3.3,3.3v0c0,1.8-1.5,3.3-3.3,3.3H315.7c-1.8,0-3.3-1.5-3.3-3.3v0
		C312.4,219,313.9,217.5,315.7,217.5z"/>
	<path class="st2" d="M315.7,217.5h168c1.8,0,3.3,1.5,3.3,3.3v0c0,1.8-1.5,3.3-3.3,3.3h-168c-1.8,0-3.3-1.5-3.3-3.3v0
		C312.4,219,313.9,217.5,315.7,217.5z"/>
</g>
<path class="st3" d="M315.7,362h187.4c1.8,0,3.3,1.5,3.3,3.3l0,0c0,1.8-1.5,3.3-3.3,3.3H315.7c-1.8,0-3.3-1.5-3.3-3.3l0,0
	C312.4,363.4,313.9,362,315.7,362z"/>
<g>
	<path class="st7" d="M315.7,417.2h187.4c1.8,0,3.3,1.5,3.3,3.3l0,0c0,1.8-1.5,3.3-3.3,3.3H315.7c-1.8,0-3.3-1.5-3.3-3.3l0,0
		C312.4,418.6,313.9,417.2,315.7,417.2z"/>
	<path class="st3" d="M315.7,417.2h109.8c1.8,0,3.3,1.5,3.3,3.3l0,0c0,1.8-1.5,3.3-3.3,3.3H315.7c-1.8,0-3.3-1.5-3.3-3.3l0,0
		C312.4,418.6,313.9,417.2,315.7,417.2z"/>
</g>
<g>
	<path class="st7" d="M315.7,446.1h187.4c1.8,0,3.3,1.5,3.3,3.3l0,0c0,1.8-1.5,3.3-3.3,3.3H315.7c-1.8,0-3.3-1.5-3.3-3.3l0,0
		C312.4,447.6,313.9,446.1,315.7,446.1z"/>
</g>
<g>
	<path class="st7" d="M315.7,389.4h187.4c1.8,0,3.3,1.5,3.3,3.3v0c0,1.8-1.5,3.3-3.3,3.3H315.7c-1.8,0-3.3-1.5-3.3-3.3v0
		C312.4,390.8,313.9,389.4,315.7,389.4z"/>
	<path class="st3" d="M315.7,389.4h129.2c1.8,0,3.3,1.5,3.3,3.3v0c0,1.8-1.5,3.3-3.3,3.3H315.7c-1.8,0-3.3-1.5-3.3-3.3v0
		C312.4,390.8,313.9,389.4,315.7,389.4z"/>
</g>
</svg>
