<svg width="13" height="12" viewBox="0 0 13 12" fill="none" xmlns="http://www.w3.org/2000/svg">
<path d="M2.93581 11.5H0.345032V3.72767H2.93581V11.5ZM1.64094 2.69136C0.924329 2.69136 0.345032 2.11051 0.345032 1.39546C0.345032 0.680402 0.925365 0.100586 1.64094 0.100586C2.35496 0.100586 2.93581 0.681438 2.93581 1.39546C2.93581 2.11051 2.35496 2.69136 1.64094 2.69136ZM12.2626 11.5H9.77183V7.71747C9.77183 6.81536 9.75473 5.65521 8.47696 5.65521C7.18002 5.65521 6.98053 6.63763 6.98053 7.65218V11.5H4.49027V3.72197H6.88104V4.78471H6.91472C7.24738 4.17329 8.06036 3.5287 9.27285 3.5287C11.7963 3.5287 12.2626 5.13965 12.2626 7.23403V11.5Z" fill="black"/>
</svg>
