<svg width="13" height="11" viewBox="0 0 13 11" fill="none" xmlns="http://www.w3.org/2000/svg">
<path d="M12.7084 1.74993C12.2589 1.94956 11.776 2.08389 11.2692 2.14449C11.7868 1.83448 12.1837 1.34364 12.3707 0.758381C11.8869 1.04537 11.3505 1.25392 10.7793 1.36665C10.3223 0.879565 9.67127 0.575195 8.95074 0.575195C7.56698 0.575195 6.44532 1.69733 6.44532 3.08061C6.44532 3.27695 6.46787 3.46859 6.51014 3.6513C4.42793 3.54703 2.58198 2.54937 1.34571 1.03316C1.13059 1.40329 1.00706 1.83354 1.00706 2.29338C1.00706 3.16234 1.44905 3.92937 2.1212 4.37841C1.71068 4.36526 1.32411 4.25253 0.986388 4.06512C0.986388 4.07592 0.986388 4.08578 0.986388 4.09659C0.986388 5.31078 1.84971 6.32347 2.99626 6.55315C2.7863 6.61046 2.5646 6.64099 2.33586 6.64099C2.17475 6.64099 2.01739 6.62502 1.86474 6.59637C2.18367 7.59168 3.10899 8.31643 4.20529 8.33663C3.34807 9.00878 2.26775 9.40944 1.09348 9.40944C0.891507 9.40944 0.691882 9.3977 0.495544 9.37421C1.60452 10.0849 2.92111 10.4996 4.33634 10.4996C8.9451 10.4996 11.4646 6.68185 11.4646 3.37089C11.4646 3.26239 11.4623 3.15436 11.4576 3.04679C11.9475 2.6931 12.3726 2.25205 12.7084 1.74993Z" fill="black"/>
</svg>
